<?xml version="1.0" encoding="UTF-8" standalone="no"?>
<!-- Created with Inkscape (http://www.inkscape.org/) -->

<svg
   width="210mm"
   height="297mm"
   viewBox="0 0 210 297"
   version="1.1"
   id="svg1"
   inkscape:version="1.4 (86a8ad7, 2024-10-11)"
   sodipodi:docname="logo2.svg"
   xmlns:inkscape="http://www.inkscape.org/namespaces/inkscape"
   xmlns:sodipodi="http://sodipodi.sourceforge.net/DTD/sodipodi-0.dtd"
   xmlns="http://www.w3.org/2000/svg"
   xmlns:svg="http://www.w3.org/2000/svg">
  <sodipodi:namedview
     id="namedview1"
     pagecolor="#ffffff"
     bordercolor="#000000"
     borderopacity="0.25"
     inkscape:showpageshadow="2"
     inkscape:pageopacity="0.0"
     inkscape:pagecheckerboard="0"
     inkscape:deskcolor="#d1d1d1"
     inkscape:document-units="mm"
     inkscape:zoom="0.71891835"
     inkscape:cx="396.42889"
     inkscape:cy="561.25984"
     inkscape:window-width="1920"
     inkscape:window-height="1009"
     inkscape:window-x="-8"
     inkscape:window-y="-8"
     inkscape:window-maximized="1"
     inkscape:current-layer="layer1" />
  <defs
     id="defs1">
    <clipPath
       clipPathUnits="userSpaceOnUse"
       id="clipPath16">
      <path
         d="M -9,-9 H 1693 V 2393 H -9 Z"
         transform="translate(0,2.5e-5)"
         clip-rule="evenodd"
         id="path16" />
    </clipPath>
    <clipPath
       clipPathUnits="userSpaceOnUse"
       id="clipPath18">
      <path
         d="M -9,-9 H 1693 V 2393 H -9 Z"
         transform="translate(0,2.5e-5)"
         clip-rule="evenodd"
         id="path18" />
    </clipPath>
    <clipPath
       clipPathUnits="userSpaceOnUse"
       id="clipPath20">
      <path
         d="M -9,-9 H 1693 V 2393 H -9 Z"
         transform="translate(0,2.5e-5)"
         clip-rule="evenodd"
         id="path20" />
    </clipPath>
    <clipPath
       clipPathUnits="userSpaceOnUse"
       id="clipPath22">
      <path
         d="M -9,-9 H 1693 V 2393 H -9 Z"
         transform="translate(0,2.5e-5)"
         clip-rule="evenodd"
         id="path22" />
    </clipPath>
    <clipPath
       clipPathUnits="userSpaceOnUse"
       id="clipPath24">
      <path
         d="M -9,-9 H 1693 V 2393 H -9 Z"
         transform="translate(0,2.5e-5)"
         clip-rule="evenodd"
         id="path24" />
    </clipPath>
    <clipPath
       clipPathUnits="userSpaceOnUse"
       id="clipPath42">
      <path
         d="M -9,-9 H 1693 V 2393 H -9 Z"
         transform="translate(0,2.5e-5)"
         clip-rule="evenodd"
         id="path42" />
    </clipPath>
    <clipPath
       clipPathUnits="userSpaceOnUse"
       id="clipPath44">
      <path
         d="M -9,-9 H 1693 V 2393 H -9 Z"
         transform="translate(0,2.5e-5)"
         clip-rule="evenodd"
         id="path44" />
    </clipPath>
    <clipPath
       clipPathUnits="userSpaceOnUse"
       id="clipPath48">
      <path
         d="M -9,-9 H 1693 V 2393 H -9 Z"
         transform="matrix(1,0,0,-1,-1117.9491,613.76684)"
         clip-rule="evenodd"
         id="path48" />
    </clipPath>
  </defs>
  <g
     inkscape:label="Capa 1"
     inkscape:groupmode="layer"
     id="layer1">
    <g
       id="g1"
       transform="matrix(0.69432475,0,0,0.69432475,24.333888,22.457566)">
      <path
         id="path15"
         d="m 981.1996,768.2973 -11.6467,28.2991 -12.1576,-28.2991 z m -26.1539,-27.8907 h -18.7982 v 1.328 l 6.9471,3.2692 24.2127,56.5986 -1.7368,4.1887 h 9.6035 l 25.1323,-60.9916 7.3556,-2.9628 v -1.4301 H 982.732 v 1.4301 l 8.0708,2.9628 -8.2752,19.7175 h -26.6647 l -8.0708,-19.6152 7.2536,-2.9628 z m 99.4133,45.8714 c 0,2.1112 -0.068,3.899 -0.2044,5.3634 -0.136,1.4644 -0.3574,2.6904 -0.6639,3.678 -0.3067,0.9876 -0.6981,1.8048 -1.1749,2.4519 -0.4768,0.6469 -1.0216,1.243 -1.6348,1.7878 -2.4516,2.0433 -6.402,3.0649 -11.8508,3.0649 h -13.8943 v -30.3424 h 14.2008 c 5.5848,0 9.5181,1.1067 11.7997,3.3203 2.2819,2.2135 3.4226,5.7721 3.4226,10.6761 z m -14.8136,-17.3679 h -14.6095 v -23.2934 l 7.8667,-3.2692 v -1.9409 h -24.1106 v 1.8388 l 7.3556,3.3713 v 55.5772 l -7.3556,2.8604 v 1.6348 h 32.1814 c 4.3592,0 7.9688,-0.4088 10.8295,-1.226 2.8605,-0.8175 5.1591,-1.9752 6.8959,-3.4736 1.7368,-1.4984 2.9627,-3.3205 3.6779,-5.4658 0.7152,-2.1455 1.141,-4.5805 1.277,-7.3048 0.1364,-3.746 -0.4768,-6.9812 -1.8388,-9.7053 -1.3623,-2.7244 -3.8823,-4.972 -7.5603,-6.743 -1.5664,-0.7492 -3.3032,-1.3621 -5.2103,-1.8389 l 14.5074,-24.315 7.3556,-3.4733 v -1.7368 h -14.2007 z m 77.4479,17.3679 c 0,2.1112 -0.068,3.899 -0.2044,5.3634 -0.136,1.4644 -0.3574,2.6904 -0.6638,3.678 -0.3067,0.9876 -0.6982,1.8048 -1.175,2.4519 -0.4768,0.6469 -1.0216,1.243 -1.6347,1.7878 -2.4517,2.0433 -6.4021,3.0649 -11.8508,3.0649 h -13.8943 v -30.3424 h 14.2007 c 5.5848,0 9.5182,1.1067 11.7998,3.3203 2.2819,2.2135 3.4225,5.7721 3.4225,10.6761 z m -14.8136,-17.3679 h -14.6094 v -23.2934 l 7.8667,-3.2692 v -1.9409 h -24.1107 v 1.8388 l 7.3557,3.3713 v 55.5772 l -7.3557,2.8604 v 1.6348 h 32.1815 c 4.3591,0 7.9687,-0.4088 10.8295,-1.226 2.8604,-0.8175 5.159,-1.9752 6.8958,-3.4736 1.7368,-1.4984 2.9628,-3.3205 3.678,-5.4658 0.7151,-2.1455 1.1409,-4.5805 1.277,-7.3048 0.1363,-3.746 -0.4768,-6.9812 -1.8389,-9.7053 -1.3623,-2.7244 -3.8823,-4.972 -7.5603,-6.743 -1.5664,-0.7492 -3.3032,-1.3621 -5.2103,-1.8389 l 14.5074,-24.315 7.3556,-3.4733 v -1.7368 h -14.2007 z m 49.9661,-23.8042 6.6407,-3.3713 v -1.328 l -21.5566,0.1021 v 1.1239 l 6.7427,3.5756 v 55.9857 l -6.8448,3.1669 v 1.4303 h 21.6587 v -1.4303 l -6.6407,-3.1669 z m 60.6931,59.2549 v 1.4303 h 16.8571 v -1.4303 l -6.232,-2.8605 -23.8042,-60.9916 h -4.3928 l -25.9495,60.9916 -6.4364,2.8605 v 1.4303 h 22.8847 v -1.4303 l -7.2539,-2.8605 21.0459,-50.2645 19.6154,50.3666 z m 21.5649,-63.9542 v 1.6345 l 6.1296,3.1671 v 55.5769 l -6.1296,3.678 v 1.328 h 49.6513 l 2.1456,-13.0768 h -1.9412 l -6.2319,9.6032 c -18.7983,0 -28.1971,-0.034 -28.1971,-0.102 v -26.2562 h 23.7019 l -2.9628,-3.78 h -20.7391 v -28.1971 h 28.1971 l 6.1296,9.2968 h 2.0435 l -2.1456,-12.7703 z m 109.0168,33.5095 c 0,5.1083 -0.6302,9.4161 -1.8902,12.9237 -1.26,3.5076 -3.0478,6.3853 -5.3634,8.6329 -1.158,1.1577 -2.3499,2.1793 -3.5759,3.0648 -1.226,0.8853 -2.6051,1.6345 -4.1375,2.2476 -1.5327,0.6129 -3.2524,1.0897 -5.1593,1.4304 -1.9072,0.3404 -4.0867,0.5108 -6.5384,0.5108 h -8.4796 v -58.642 h 13.2812 c 7.7644,0 13.3492,2.4349 16.7548,7.3049 3.4055,4.8696 5.1083,12.3786 5.1083,22.5269 z m -23.8043,31.875 c 5.1084,0 9.7226,-0.5788 13.8433,-1.7368 4.1205,-1.1579 7.6281,-3.0138 10.5228,-5.5678 2.8945,-2.5543 5.142,-5.8575 6.7428,-9.9099 1.6004,-4.0524 2.4009,-9.0074 2.4009,-14.8649 0,-10.7611 -2.6053,-18.9853 -7.8157,-24.6725 -5.2103,-5.6871 -13.1278,-8.5305 -23.7529,-8.5305 -2.8607,0 -5.8745,0.034 -9.0414,0.102 -3.1671,0.0683 -6.0449,0.1023 -8.6329,0.1023 h -12.4639 v 1.5324 l 7.9687,3.2692 v 55.577 l -7.9687,2.9627 v 1.7368 z m 38.422,-65.3845 v 1.6345 l 6.1296,3.1671 v 55.5769 l -6.1296,3.678 v 1.328 h 49.6513 l 2.1456,-13.0768 h -1.9412 l -6.232,9.6032 c -18.7982,0 -28.197,-0.034 -28.197,-0.102 v -26.2562 h 23.7019 l -2.9628,-3.78 h -20.7391 v -28.1971 h 28.197 l 6.1297,9.2968 h 2.0435 l -2.1456,-12.7703 z m 100.4349,45.8714 c 0,2.1112 -0.068,3.899 -0.2044,5.3634 -0.1361,1.4644 -0.3575,2.6904 -0.6639,3.678 -0.3067,0.9876 -0.6982,1.8048 -1.1749,2.4519 -0.4768,0.6469 -1.0217,1.243 -1.6348,1.7878 -2.4517,2.0433 -6.402,3.0649 -11.8508,3.0649 h -13.8943 v -30.3424 h 14.2007 c 5.5849,0 9.5182,1.1067 11.7998,3.3203 2.2819,2.2135 3.4226,5.7721 3.4226,10.6761 z m -14.8136,-17.3679 h -14.6095 v -23.2934 l 7.8667,-3.2692 v -1.9409 h -24.1106 v 1.8388 l 7.3556,3.3713 v 55.5772 l -7.3556,2.8604 v 1.6348 h 32.1814 c 4.3591,0 7.9688,-0.4088 10.8295,-1.226 2.8604,-0.8175 5.1591,-1.9752 6.8958,-3.4736 1.7368,-1.4984 2.9628,-3.3205 3.678,-5.4658 0.7152,-2.1455 1.1409,-4.5805 1.277,-7.3048 0.1364,-3.746 -0.4768,-6.9812 -1.8388,-9.7053 -1.3624,-2.7244 -3.8824,-4.972 -7.5603,-6.743 -1.5664,-0.7492 -3.3032,-1.3621 -5.2104,-1.8389 l 14.5075,-24.315 7.3556,-3.4733 v -1.7368 h -14.2007 z m 43.5297,3.2692 c 0,-4.6996 0.5278,-9.0414 1.5834,-13.0258 1.0559,-3.9843 2.6053,-7.2025 4.6485,-9.6545 1.9752,-2.3836 4.4102,-4.1204 7.3046,-5.2103 2.8948,-1.0897 6.215,-1.6345 9.961,-1.6345 4.9719,0 9.263,0.4425 12.8727,1.328 l 6.2319,10.2164 h 1.9412 l -2.1455,-13.0771 c -0.2044,-0.068 -1.1067,-0.2554 -2.7074,-0.5618 -1.6005,-0.3064 -3.2862,-0.5618 -5.057,-0.7662 -1.7028,-0.2044 -3.4906,-0.3745 -5.3635,-0.5108 -1.8731,-0.1361 -3.9333,-0.2044 -6.1809,-0.2044 -5.3127,0 -9.995,0.6642 -14.0477,1.9922 -4.0524,1.3283 -7.4749,3.4566 -10.2673,6.3853 -2.7924,2.8605 -4.904,6.4874 -6.334,10.8805 -1.4304,4.3929 -2.1456,9.0414 -2.1456,13.9453 0,11.9189 2.8264,20.7051 8.4796,26.358 5.6531,5.6531 13.7579,8.4795 24.315,8.4795 2.2476,0 4.1888,-0.068 5.8232,-0.2043 1.6348,-0.1361 3.1331,-0.3065 4.4952,-0.5108 0.6812,-0.1361 1.4133,-0.2724 2.1966,-0.4085 0.7832,-0.1364 1.5324,-0.2724 2.2476,-0.4088 0.7151,-0.136 1.311,-0.2554 1.7878,-0.3574 0.4767,-0.1023 0.7832,-0.1534 0.9195,-0.1534 l 2.1453,-13.0768 h -1.9409 l -6.232,10.2164 c -3.6099,0.8853 -7.2878,1.328 -11.0338,1.328 -3.6777,0 -6.9642,-0.5278 -9.8586,-1.5834 -2.8948,-1.0559 -5.3638,-2.7927 -7.407,-5.2104 -2.0432,-2.4179 -3.5926,-5.6191 -4.6485,-9.6035 -1.0556,-3.9843 -1.5834,-8.9053 -1.5834,-14.7625 z m 65.393,-27.0734 6.6407,-3.3713 v -1.328 l -21.5566,0.1021 v 1.1239 l 6.7427,3.5756 v 55.9857 l -6.8448,3.1669 v 1.4303 h 21.6587 v -1.4303 l -6.6407,-3.1669 z"
         style="fill:#cfa64b;fill-opacity:1;fill-rule:nonzero;stroke:none"
         transform="matrix(0.35277776,0,0,-0.35277776,-324.19491,464.51789)"
         clip-path="url(#clipPath16)" />
      <path
         id="path17"
         d="m 1187.3985,678.3678 h -3.2383 c -0.9816,-1.8354 -2.3624,-3.3091 -4.1431,-4.4214 -1.7805,-1.1124 -3.7361,-1.6685 -5.8672,-1.6685 -3.1334,0 -5.8184,1.154 -8.0543,3.4622 -2.1731,2.2453 -3.2596,4.9428 -3.2596,8.0921 0,3.1771 1.0865,5.8884 3.2596,8.134 1.0233,1.0568 2.222,1.8978 3.596,2.5234 1.3739,0.6259 2.7198,0.9386 4.0377,0.9386 1.3181,0 2.4743,-0.146 3.4698,-0.438 3.0632,-0.8969 5.3694,-2.753 6.9186,-5.5687 h 3.2388 c -1.0797,2.6975 -2.8179,4.8736 -5.2154,6.5282 -2.3973,1.6546 -5.061,2.4818 -7.9912,2.4818 -3.9605,0 -7.3394,-1.446 -10.1361,-4.3382 -1.2901,-1.3345 -2.2995,-2.8851 -3.0283,-4.6508 -0.729,-1.7657 -1.0936,-3.636 -1.0936,-5.6103 0,-3.9696 1.374,-7.376 4.1219,-10.2195 2.7967,-2.8922 6.1756,-4.3452 10.1361,-4.3452 2.916,0 5.5939,0.8484 8.0331,2.5308 2.4185,1.6684 4.157,3.8582 5.2155,6.5695 z m 7.234,1.7521 5.2155,13.0558 5.1942,-13.0558 z m 17.7489,-10.4351 -12.5334,30.3318 -12.5757,-30.3318 h 3.1964 l 3.0844,7.7238 h 12.5617 l 3.0702,-7.7238 z m 20.567,25.66 v 2.7114 h -16.992 v -28.3714 h 2.9444 v 12.8126 h 13.6269 v 2.753 h -13.6269 v 10.0944 z m 20.9874,-25.66 v 2.7181 h -14.0476 v 10.0945 h 13.627 v 2.753 h -13.627 v 10.0944 h 14.0476 v 2.7114 h -16.992 v -28.3714 z m -2.4814,37.256 h -3.617 l -3.3647,-5.9647 h 2.3553 z m 38.8205,-29.3445 c 0,2.016 -0.4907,3.6983 -1.4721,5.047 -0.9813,1.3488 -2.3133,2.2456 -3.9957,2.6907 1.0023,0.4379 1.8227,1.2024 2.4608,2.2941 0.2942,0.5006 0.5184,1.0219 0.6726,1.5641 0.1545,0.5423 0.2313,1.2861 0.2313,2.2317 0,0.9454 -0.2245,1.8771 -0.6729,2.7947 -1.2478,2.5583 -3.9674,3.8376 -8.1595,3.8376 h -7.7389 v -28.3714 h 8.7483 c 2.9163,0 5.2435,0.6672 6.9817,1.9882 0.8975,0.6814 1.6124,1.5502 2.1453,2.607 0.5326,1.0568 0.7991,2.1623 0.7991,3.3163 z m -5.0471,13.3687 c 0,-1.5296 -0.4626,-2.6697 -1.3879,-3.4203 -0.9255,-0.7509 -2.1449,-1.1265 -3.6592,-1.1265 h -5.6358 v 8.8433 h 4.7945 c 3.9257,0 5.8884,-1.4324 5.8884,-4.2965 z m 2.1027,-12.8058 c 0,-1.6892 -0.5814,-3.0657 -1.7453,-4.1295 -1.1216,-1.0287 -2.5863,-1.5432 -4.3951,-1.5432 h -6.6452 v 11.0121 h 7.1078 c 1.5072,0 2.8179,-0.4936 3.9325,-1.4809 0.5188,-0.4589 0.9394,-1.008 1.2617,-1.6477 0.3226,-0.6395 0.4836,-1.3766 0.4836,-2.2108 z m 11.5665,1.9607 5.2152,13.0558 5.1942,-13.0558 z m 17.7489,-10.4351 -12.5337,30.3318 -12.5753,-30.3318 h 3.1963 l 3.0841,7.7238 h 12.562 l 3.0702,-7.7238 z m 6.5191,14.0224 v 11.5543 h 6.6455 c 1.7382,0 3.1264,-0.5355 4.1638,-1.6061 1.0375,-1.0707 1.5563,-2.4333 1.5563,-4.0879 0,-1.6475 -0.5469,-3.0449 -1.6405,-4.1918 -1.0655,-1.1124 -2.4253,-1.6685 -4.0796,-1.6685 z m 15.3096,5.798 c 0,2.4539 -0.8901,4.5048 -2.6708,6.1526 -1.7314,1.5987 -3.8696,2.3984 -6.4139,2.3984 h -9.169 v -28.3714 h 2.9441 v 11.2274 h 3.4347 l 8.384,-11.2274 h 3.9535 l -8.8044,11.2484 c 2.2224,0.146 4.1151,0.9385 5.671,2.3777 1.7807,1.6475 2.6708,3.7122 2.6708,6.1943"
         style="fill:#cfa64b;fill-opacity:1;fill-rule:nonzero;stroke:none"
         transform="matrix(0.35277776,0,0,-0.35277776,-324.19491,464.51789)"
         clip-path="url(#clipPath18)" />
      <path
         id="path19"
         d="m 1059.893,672.6988 c -2.2184,0 -4.017,1.4131 -4.017,3.1564 0,1.7433 1.7986,3.1564 4.017,3.1564 h 56.6164 c 2.2184,0 4.017,-1.4131 4.017,-3.1564 0,-1.7433 -1.7986,-3.1564 -4.017,-3.1564 z"
         style="fill:#cfa64b;fill-opacity:1;fill-rule:nonzero;stroke:none"
         transform="matrix(0.35277776,0,0,-0.35277776,-324.19491,464.51789)"
         clip-path="url(#clipPath20)" />
      <path
         id="path21"
         d="m 1379.0611,672.6988 c -2.2184,0 -4.017,1.4131 -4.017,3.1564 0,1.7433 1.7986,3.1564 4.017,3.1564 h 56.6163 c 2.2184,0 4.017,-1.4131 4.017,-3.1564 0,-1.7433 -1.7986,-3.1564 -4.017,-3.1564 z"
         style="fill:#cfa64b;fill-opacity:1;fill-rule:nonzero;stroke:none"
         transform="matrix(0.35277776,0,0,-0.35277776,-324.19491,464.51789)"
         clip-path="url(#clipPath22)" />
      <path
         id="path23"
         d="m 1248.3031,1180.9936 v 0 -0.017 c 104.6038,-6e-4 199.3102,-42.4055 267.8587,-110.954 68.5474,-68.548 110.9517,-163.2529 110.9529,-267.8547 h 0.017 v -0.004 -0.002 h -0.017 c -6e-4,-104.6035 -42.4055,-199.3104 -110.9543,-267.8587 -68.548,-68.5477 -163.2532,-110.9517 -267.855,-110.9528 v -0.0168 0 0 0.0168 c -104.6032,5e-4 -199.3099,42.4054 -267.8581,110.9542 -68.5474,68.5477 -110.9517,163.2529 -110.9529,267.8551 h -0.0167 v 0.004 0.002 h 0.0167 c 6e-4,104.6032 42.4055,199.3099 110.9543,267.8581 68.5477,68.5477 163.2529,110.9517 267.8545,110.9529 v 0.017 0 z m 0,-8.4872 v -0.017 0 0 0.017 c -102.2321,-9e-4 -194.813,-41.4655 -261.8422,-108.4947 -67.0345,-67.0297 -108.5,-159.612 -108.5003,-261.8458 h 0.0168 v -0.002 -0.004 h -0.0168 c 9e-4,-102.2327 41.4658,-194.8136 108.4947,-261.8428 67.0297,-67.0303 159.6121,-108.4958 261.8458,-108.496 v 0.0167 0 0 -0.0167 c 102.2323,8e-4 194.8135,41.4657 261.8427,108.4946 67.0303,67.0297 108.4958,159.6124 108.4961,261.8464 h -0.017 v 0.002 0.004 h 0.017 c -9e-4,102.2323 -41.4661,194.8132 -108.4947,261.8424 -67.03,67.03 -159.6124,108.4955 -261.8464,108.4958"
         style="fill:#cfa64b;fill-opacity:1;fill-rule:nonzero;stroke:none"
         transform="matrix(0.35277776,0,0,-0.35277776,-324.19491,464.51789)"
         clip-path="url(#clipPath24)" />
      <path
         id="path41"
         d="m 940.6103,865.3292 c -2.3828,0 -4.3149,1.5196 -4.3149,3.3939 0,1.8743 1.9321,3.3939 4.3149,3.3939 205.1444,0 410.2897,0 615.4341,0 2.3828,0 4.3149,-1.5196 4.3149,-3.3939 0,-1.8743 -1.9321,-3.3939 -4.3149,-3.3939 -205.1444,0 -410.2897,0 -615.4341,0"
         style="fill:#cfa64b;fill-opacity:1;fill-rule:nonzero;stroke:none"
         transform="matrix(0.35277776,0,0,-0.35277776,-324.19491,464.51789)"
         clip-path="url(#clipPath42)" />
      <path
         id="path43"
         d="m 1133.572,896.6237 h 7.4165 l -0.3274,1.2251 v 0.1621 h -0.9972 v 1.1461 c 2.0855,0 3.6295,1.3705 4.7843,3.1637 1.2005,-2.008 2.8446,-3.1637 5.0474,-3.1637 v -1.1461 h -1.1228 v -1.3872 h 7.2147 v -2.5334 h -22.0155 z m 247.7769,-7.8342 h 3.3296 v -1.0125 h -3.3296 z m 14.5664,0 h 3.3293 v -1.0125 h -3.3293 z m -113.3212,5.4633 h 0.906 v 1.5953 h -0.906 v 2.1713 h 0.906 v 5.3178 h -0.906 v 2.1714 h 43.7828 v -2.1714 h -1.0111 v -5.3178 h 1.0111 v -2.1713 h -1.0111 v -1.5953 h 1.0111 v -2.1714 h -1.0111 v -7.3131 h 1.0111 v -2.1716 h -1.0111 v -5.5403 h 2.2975 v 17.9935 h -1.4037 l 15.0627,10.6251 15.0622,-10.6251 h -1.2575 v -17.9935 h 5.4485 v 2.9285 c 0.3059,0 0.612,0 0.9181,0 0,0.4971 0,0.9943 0,1.4921 0.6517,0.6534 1.4724,1.2056 2.6626,1.5372 -0.047,0.1758 -0.094,0.3515 -0.1411,0.5276 0,0.9569 0,1.9139 0,2.8709 0.3367,0.6049 0.8356,1.1021 1.4961,1.4924 0.2679,9.1829 0.5354,18.3657 0.8036,27.5488 0.035,1.0704 1.8757,1.0622 1.9514,0 0.191,-9.1831 0.3824,-18.3659 0.5737,-27.5488 0.5865,-0.4215 1.2396,-0.8424 1.3961,-1.2628 0,-1.0329 0,-2.0662 0,-3.0991 0.3444,-0.2296 0.326,-0.4592 0.6701,-0.6888 0,-0.2679 0,-0.5358 0,-0.8034 0.4592,0 0.9184,0 1.3776,0 0,1.4536 0,2.9078 0,4.3617 -0.3064,0 -0.6126,0 -0.9184,0 0.053,0.1976 -0.015,0.3951 0.038,0.5927 1.1747,1.5214 2.7136,2.7984 4.6684,3.5396 1.6681,-0.6156 3.0438,-1.4745 4.1323,-2.8695 0.2296,0 0.4589,0 0.6885,0 0,1.1092 0,2.2187 0,3.3285 0.024,0.6661 0.47,1.404 1.3414,2.2116 0.2622,0.7072 0.4961,1.4944 0.5641,2.3507 0.073,-0.9198 0.3356,-1.7603 0.6211,-2.5069 0.5768,-0.5562 0.998,-1.1651 1.2614,-1.8255 0.3432,1.2804 0.6862,2.5613 1.0295,3.842 0.4391,1.7822 1.4587,3.1935 3.2791,4.0955 0.6129,1.7306 1.2016,3.7021 1.357,5.8729 0.1573,-2.1969 0.7571,-4.1897 1.3776,-5.9352 1.7445,-0.904 2.7295,-2.2913 3.1587,-4.0332 0.3432,-1.2807 0.6862,-2.5616 1.0295,-3.842 0.2614,0.655 0.6761,1.26 1.2461,1.8121 0.2874,0.7498 0.5545,1.5948 0.6276,2.5203 0.068,-0.8515 0.2976,-1.6344 0.5581,-2.3383 0.8796,-0.8127 1.332,-1.5545 1.3561,-2.224 0,-1.1098 0,-2.2193 0,-3.3285 0.2296,0 0.4593,0 0.6889,0 1.0882,1.395 2.4638,2.2539 4.1323,2.8695 1.9545,-0.7412 3.4937,-2.0182 4.6684,-3.5396 0.053,-0.1976 -0.015,-0.3951 0.038,-0.5927 -0.3059,0 -0.612,0 -0.9182,0 0,-1.4539 0,-4.8172 0,-6.2711 0.459,0 0.9182,0 1.3774,0 0,0.2679 0,1.8958 0,2.1637 0.1406,0.3832 0.2035,0.5513 0.6701,0.6888 0,7.5643 0.271,15.6892 0.4312,23.3938 0.076,1.0624 0.9207,1.0703 0.9558,0 0.2302,-7.8917 0.6667,-15.8871 0.6667,-23.2835 0.824,-0.2007 0.3512,-0.6562 0.811,-0.8805 0.027,-0.5428 -0.013,-1.0845 0,-1.7047 0,-0.4975 0.8456,-0.3821 1.8329,-0.3915 0.3061,0 0.7858,-0.2752 0.7994,-0.5805 0,-1.2246 0,-2.4492 0,-3.6732 0.076,-1.4938 0.153,-2.988 0.2296,-4.4821 l -9.9102,0.1684 v 6.5775 h -2.8585 v -6.529 l -13.0144,0.2208 h -27.9938 -1.9565 -5.2189 -1.8309 -1.8312 -1.8309 -1.8306 -1.8309 -1.8311 -1.8307 -1.8311 -1.8309 -1.8312 -1.8306 -1.8309 -1.8309 -1.8309 -1.8309 -2.2975 -0.919 -3.8764 v 8.5997 c -1.8669,2.0486 -3.6878,2.3196 -5.4433,0 v -8.5997 h -4.9485 v 15.2039 c -3.6212,3.4058 -7.1526,3.8557 -10.5565,0 v -15.2039 h -4.9484 v 8.5997 c -1.8672,2.0486 -3.6882,2.3196 -5.4434,0 v -8.5997 h -95.4522 -0.4972 -26.0095 -0.491 -18.9836 v 12.7944 c -2.0574,1.2473 -4.0847,1.3275 -6.0747,0 v -12.7944 h -40.5773 v 4.9898 h 3.9138 v 0.9048 h -3.9138 -1.5055 -3.2111 -1.5055 -3.7131 v -0.9048 h 3.7131 v -4.9898 h -14.3952 c 0.3019,13.9541 0.6038,27.9082 0.9057,41.8626 0.2679,0.5204 0.606,0.7789 1.0587,1.0806 -0.034,0.4697 0.031,0.9654 0,1.4351 -0.5559,0.3345 -0.4326,0.6701 0,1.0061 0,0.57 0,1.1403 0,1.7109 0.3016,0.495 0.6035,0.495 0.9057,0 0,-0.5703 0,-1.1406 0,-1.7107 0.3557,-0.3019 0.5757,-0.7231 -0.017,-1.0241 0,-0.5032 0.017,-0.8878 0.017,-1.391 0.42,-0.3189 0.8229,-0.6032 1.057,-1.0063 0.3356,-9.5936 0.671,-19.1871 1.0063,-28.7804 0.6038,0 1.2076,0 1.8113,0 -0.033,1.0732 -0.019,2.3261 -0.052,3.3996 -0.2013,0.1675 -0.4025,0.3353 -0.6038,0.5031 0.8385,0.6038 1.6291,1.0281 2.4676,1.6319 0.9056,-0.5031 1.8113,-1.0063 2.717,-1.5094 -0.2347,-0.2013 -0.4694,-0.4025 -0.7044,-0.6038 0,-2.4151 0,-4.8302 0,-7.2454 4.8974,0 9.7948,0 14.6922,0 0,1.5764 0,3.153 0,4.7296 0.9559,1.7442 2.3307,3.4878 4.629,5.2328 0,1.1069 0,2.2139 0,3.3208 0.6372,0 1.2747,0 1.912,0 0,-1.1741 0,-2.3479 0,-3.5221 2.0797,-1.4088 3.6226,-3.086 4.6289,-5.0315 0,-1.9457 0,-3.8911 0,-5.8368 0.4026,0 0.8051,0 1.2076,0 0.235,-0.3019 0.6979,-0.2894 0.9329,-0.5913 0.3631,-0.0757 0.1672,-3.181 0.2194,-3.9571 0.2531,0 0.5065,0 0.7597,0 v 9.4504 h -0.7985 v 0.7721 h 13.149 v 0.796 h -12.3505 v 1.9902 h -0.7985 v 0.7588 h 47.4752 l -0.054,0.8093 h -46.6222 v 2.4123 h -0.7985 v 0.8799 h 47.1517 c -0.2228,2.3797 -0.5065,4.754 -0.8532,7.1016 -0.6664,4.5122 -5.0006,28.8406 -4.5519,30.9957 l 2.2247,0.9168 c 0.1366,1.3512 -0.019,2.8187 -0.7291,4.517 -0.3714,0.8889 -0.9757,0.2554 -1.3476,1.1443 -0.5828,1.3952 2.6209,3.0637 4.2361,3.7287 3.9223,1.6158 13.0224,3.5025 14.2781,0.4972 l 0.1015,-0.2418 c 0.269,-0.6449 -1.9185,-3.0362 -0.699,-5.9547 0.4807,-1.1489 3.0764,0.2653 3.7298,-1.2974 l 0.2922,-0.7277 10.0455,-44.4356 -0.1837,25.8211 c 2.0449,4.8852 10.7495,8.6952 21.3188,12.2045 1.8022,-5.3042 3.6045,-10.6081 5.4071,-15.912 0.566,-0.2063 1.1327,-0.4121 1.6993,-0.6179 1.2872,-2.9353 2.5745,-5.8706 3.8619,-8.8059 0.3606,0 0.7209,0 1.0815,0 0.1545,-0.4118 0.3089,-0.824 0.4634,-1.2359 5.4584,0 10.9168,0 16.3755,0 0,0.9786 0,1.9568 0,2.9353 19.6979,-0.5984 34.1059,-2.1929 39.0847,-5.5613 v -13.7055 h 1.2359 v 7.3131 h -0.906 v 2.1714 z m -115.6584,-8.4975 -0.033,0.796 h -11.0228 v -0.796 h 11.0562 z m 26.3132,-9.199 -0.01,1.2178 -1.0902,5.2571 c -0.013,0.061 -0.3583,0.582 -0.5143,0.8839 l -0.924,-0.3915 0.7336,-7.3726 1.8042,0.4053 z m -21.4293,56.8395 c -0.078,0.3144 -0.8031,0.3739 -1.0443,0.4195 -0.953,-1.3994 0.343,-6.3677 1.2554,-8.5504 l 1.7303,0.7126 z m -5.5837,-2.5835 c -0.2702,0.6466 -0.6557,0.5684 -1.1452,0.6619 -0.6324,-1.3499 0.1604,-5.4581 1.1769,-7.1853 0.3376,-0.5731 0.8688,-0.0938 1.5103,0.0499 -0.4887,1.5279 -0.826,4.7608 -1.3399,5.9902 z m -3.8645,-0.4583 c -0.8575,-0.3535 0.3288,-6.3318 0.8521,-7.5833 0.8039,0.3104 1.2495,0.826 1.457,1.4482 0.5298,1.5888 -0.4955,3.8747 -1.0624,5.2319 l -0.2018,0.4833 c -0.2331,0.557 -0.4751,0.6543 -1.0449,0.4199 z m 6.4823,1.8204 c -0.2328,0.5567 -0.4751,0.6539 -1.0449,0.4195 -0.9964,-0.4108 0.6965,-6.5188 1.3011,-7.9651 1.8321,0.7084 2.0206,-0.129 1.2385,2.5195 -0.4629,1.5667 -0.457,2.5426 -0.9893,3.8171 z m 6.5381,0.9927 c -0.2727,0.6531 -0.3963,0.6179 -0.7523,1.1069 l -0.9885,-0.4074 1.6087,-7.804 1.768,0.4246 c -0.6486,1.6512 -0.8527,4.8062 -1.4338,6.196 z m 3.1677,0.7381 c -0.094,0.3424 -0.563,0.3345 -0.9428,0.1783 -0.7861,-0.3232 0.6273,-6.3553 1.0984,-7.4818 l 1.8238,0.5023 z m 3.3256,-0.3305 c -0.2327,0.557 -0.4754,0.6542 -1.0446,0.4195 -0.9799,-0.4031 0.4405,-5.9074 0.8964,-6.9976 l 1.824,0.5023 -1.2798,5.3728 z m -17.8225,-12.6641 c -1.0832,-1.3218 -0.5199,-4.3313 0.2137,-6.2067 l 1.836,0.4481 -1.0049,5.3385 z m 2.5868,1.2725 c -0.7786,-1.1282 -0.079,-4.5417 0.5933,-6.2575 l 1.836,0.4482 c -0.6794,1.7461 -0.4674,3.2093 -1.2841,5.1633 l -0.3018,0.6723 z m 7.3245,1.8986 c -0.233,0.5568 -0.4751,0.6548 -1.0449,0.4201 -1.2894,-0.5312 0.2835,-5.5298 0.8966,-6.9984 l 1.2359,0.5096 c 1.1467,0.4723 -0.5538,4.7912 -1.0876,6.0687 z m -2.9659,-1.2214 c -0.2327,0.5573 -0.4754,0.6545 -1.0446,0.4201 -1.0332,-0.4258 0.1868,-5.2183 0.6945,-6.5149 l 1.8357,0.4479 -1.2509,5.4368 z m 11.1314,-3.0654 c -0.2118,1.2929 -0.7898,5.9085 -2.4701,5.2163 -0.9278,-0.3821 0.2698,-4.8039 0.7398,-5.9295 z m -4.7951,4.5422 c -0.3362,0.8034 -0.7399,0.5247 -1.5395,0.216 0.1579,-0.9612 0.4192,-6.6288 1.9307,-6.0054 l 0.9887,0.407 c -0.536,1.6671 -0.3983,3.0319 -1.1781,4.8986 z m 6.5937,0.1653 c -0.2325,0.5573 -0.4746,0.6548 -1.0443,0.4198 -1.1999,-0.4941 0.065,-4.2415 0.5377,-5.4456 l 1.8354,0.4481 c -0.7424,1.7878 -0.2508,1.9984 -0.8237,3.369 z m -17.2707,-17.5983 c 1.4777,0.6088 0.8484,0.0303 0.4961,2.4156 -0.091,0.6146 -0.2084,2.441 -0.4385,2.992 -0.2501,0.599 -1.0871,0.3847 -1.7862,0.1143 l 0.8255,-5.8536 z m 4.8441,8.5121 c -0.9666,-0.3974 0.3164,-5.5318 0.7954,-6.7558 2.3885,0.9839 2.0883,-0.3302 1.3468,2.4755 -0.2047,0.775 -0.4278,2.9506 -0.6486,3.4792 -0.2361,0.5656 -0.8269,1.0764 -1.4936,0.8011 z m -2.2697,-1.5012 c -0.081,0.3433 -0.5703,0.3322 -0.9442,0.178 -1.1727,-0.4827 0.086,-4.7659 0.4932,-6.031 l 1.8358,0.4485 z m 5.2353,2.7232 c -1.0454,-0.43 0.3839,-5.6868 0.8964,-6.9979 2.389,0.984 2.0891,-0.3299 1.347,2.4761 -0.2713,1.0281 -0.3694,2.8106 -0.7492,3.7202 -0.2361,0.5658 -0.8269,1.0766 -1.4942,0.8016 z m 3.3701,0.2552 c -0.8778,-0.3615 0.438,-5.2073 0.942,-6.4129 l 0.7413,0.3056 c 1.1372,0.468 1.2036,0.2877 0.428,2.4429 -0.485,1.3482 -0.5219,1.9409 -1.1676,3.4863 -0.1414,0.3385 -0.5391,0.3447 -0.9437,0.1781 z m 3.7188,0.1148 c -1.1599,-0.478 0.094,-4.3844 0.6384,-5.6875 l 0.7418,0.3053 c 1.5279,0.6293 0.9425,-0.2537 0.4159,2.0449 -0.2603,1.1353 -0.2452,1.7054 -0.7518,2.9172 -0.233,0.5575 -0.4751,0.6548 -1.0443,0.4201 z m 2.8758,0.0513 c -0.8992,-0.3711 0.3682,-4.3484 0.8855,-5.5863 l 0.7416,0.3059 c 1.5137,0.6233 0.9243,-0.1403 0.3823,2.2595 -0.265,1.1755 -0.3308,1.7765 -0.8189,2.9446 -0.2832,0.1097 -0.7903,0.2407 -1.1905,0.0763 z m -14.1483,-17.4456 c 1.8697,0.7226 2.1325,-0.2103 1.5823,2.1793 -0.2897,1.2563 -0.4558,2.5155 -0.7829,3.5337 -0.3742,0.2968 -0.6747,0.572 -1.2918,0.3177 -0.9706,-0.3997 0.1296,-4.9031 0.4924,-6.0307 z m -2.6158,4.8731 c -2.069,-0.9057 -1.0769,-4.3577 -0.2495,-6.3366 l 1.7306,0.7121 c -0.4178,1.3002 -0.4374,3.8185 -0.83,4.7588 -0.214,0.511 -0.222,0.2826 -0.6511,0.8657 z m 5.3368,2.4806 c -0.7946,-0.3269 0.3971,-5.7393 0.7951,-6.7559 l 0.9887,0.4077 c 1.3867,0.5712 0.9867,0.4031 0.3626,2.6696 -0.3286,1.1991 -0.2498,1.9131 -0.8553,3.3614 -0.123,0.2942 -0.8141,0.5145 -1.2911,0.3172 z m 4.3585,0.6627 c -0.1567,0.6403 -0.7378,0.5834 -1.1458,0.6613 -1.0743,-1.5786 -0.06,-4.8931 0.6498,-7.0999 l 2.0794,0.5669 z m 2.2246,0.9008 c -0.8648,-1.2548 0.093,-4.6286 0.6945,-6.4998 2.062,0.8498 2.0946,-0.2373 1.5166,2.2068 -0.3169,1.3405 -0.3838,2.0148 -0.9649,3.4047 l -0.4026,0.9147 z m 4.6616,-0.0481 c -0.1386,0.3322 -0.7571,0.3653 -1.0445,0.4198 l -0.6305,-1.158 1.105,-4.877 c 2.0798,0.8532 2.1129,-0.2341 1.5346,2.2108 -0.3169,1.3402 -0.3838,2.014 -0.9646,3.4044 z m 3.2239,-0.0888 c -0.084,0.3158 -0.7988,0.3731 -1.0443,0.4201 -0.9658,-1.4187 -0.2628,-3.5319 0.6383,-5.6877 l 1.7306,0.7126 z m -11.4273,-10.091 c -0.2365,0.5663 -0.8144,0.7979 -1.3927,0.5595 -1.1767,-0.4844 0.1256,-5.1525 0.6945,-6.5145 l 1.836,0.4487 c -0.1656,1.0054 -0.7892,4.6723 -1.1378,5.5063 z m -4.0108,-0.8017 c -0.129,0.5432 -1.7382,0.6883 -1.1078,-2.3709 0.2041,-0.9904 0.421,-2.6761 0.758,-3.7238 l 1.8235,0.5023 z m -2.8647,-1.4632 c -0.1414,0.3385 -0.5391,0.3444 -0.9439,0.1777 -1.0434,-0.4294 0.055,-4.9691 0.2457,-6.1324 l 1.836,0.4473 c -0.3302,2.0092 -0.1233,3.0795 -1.1378,5.5074 z m 9.7404,3.7284 c -0.2327,0.5567 -0.4751,0.6545 -1.0443,0.4201 -1.3317,-0.5482 0.1849,-5.6571 0.6495,-7.1005 l 1.9771,0.8144 -1.2353,5.4156 z m 3.7185,0.1148 c -0.2367,0.5658 -0.8141,0.7985 -1.3935,0.5599 -1.0196,-0.4204 0.3716,-5.0471 0.9422,-6.4126 l 1.7306,0.7124 c -0.9011,2.1549 -0.5655,3.433 -1.1784,4.8985 z m 2.2244,0.9165 c -0.9134,-0.3765 0.3271,-4.8756 0.7395,-5.9296 1.9698,0.8113 2.2411,-0.2205 1.4871,2.0172 -0.4059,1.2041 -0.1619,1.745 -0.7325,3.1107 l -0.1015,0.2418 c -0.2358,0.5658 -0.8141,0.7982 -1.3926,0.5599 z m 4.5158,-0.4071 c -0.233,0.557 -0.475,0.6542 -1.0448,0.4201 -1.2186,-0.5023 0.045,-4.2653 0.6389,-5.6877 l 1.73,0.7126 -1.1404,4.3339 z m -13.9566,-16.5166 c -0.222,1.3535 -0.5423,6.294 -2.3241,5.5604 -1.433,-0.5907 -0.3439,-4.6281 0.2457,-6.1327 z m 5.2931,8.1309 c -0.2832,0.1102 -0.7903,0.2415 -1.1905,0.0765 -1.1172,-0.4603 0.4493,-5.6089 0.8963,-6.9985 l 2.0798,0.5673 z m -10.976,-4.2378 c -1.1498,-0.4734 -0.068,-4.6908 0.4921,-6.0307 l 0.7415,0.305 c 0.6676,0.2752 0.7297,0.1652 1.3368,0.267 l -1.279,5.1406 c -0.1369,0.5794 -0.5513,0.6231 -1.0445,0.4201 z m 8.0657,2.1889 c -0.1111,0.4935 -0.4252,0.6576 -0.7521,1.1075 -1.995,-0.8739 -0.7608,-5.1129 0.054,-7.0623 l 0.7416,0.3053 c 0.6678,0.2753 0.7296,0.1656 1.3368,0.2673 l -1.3802,5.3822 z m 6.6285,2.164 c -0.084,0.3424 -0.5689,0.3322 -0.9436,0.178 l -0.7413,-0.3056 -0.094,-1.1696 1.1248,-4.9113 2.1367,0.5786 -1.4825,5.6299 z m 3.4427,0.8124 -0.2747,-0.0743 c -1.7042,-0.7461 -1.0584,-3.7063 -0.4059,-5.2679 l 0.3033,-0.7251 1.8907,0.487 z m 3.399,-0.5449 c -0.013,0.0457 -0.3835,0.4082 -0.5508,0.6234 l -0.9887,-0.4071 0.7852,-5.6035 2.1804,0.5845 z m -13.9343,-18.2126 c -0.2074,1.7853 -0.5065,8.2353 -2.1707,7.5289 -1.3388,-0.5687 -0.3218,-5.9525 0.2293,-7.9847 z m 4.9442,9.8133 c -0.2647,0.1817 -0.7384,0.4215 -1.1123,0.2631 -1.0434,-0.4431 0.4198,-7.3338 0.8374,-9.1965 l 1.9426,0.449 z m -10.2526,-3.9838 c -1.074,-0.4558 -0.064,-6.0724 0.4598,-7.8863 l 0.6925,0.2934 c 0.6236,0.2651 0.6817,0.1137 1.2487,0.1622 l -1.1949,6.8405 c -0.1275,0.7699 -0.5147,0.8839 -0.9754,0.6883 z m 7.5339,1.7283 c -0.1037,0.6545 -0.3971,0.911 -0.7024,1.5389 -1.8635,-0.8586 -0.7106,-6.5242 0.051,-9.1636 l 0.6927,0.294 c 0.6237,0.265 0.6815,0.1145 1.2487,0.1624 l -1.2895,7.1683 z m 6.1915,1.8927 c -0.078,0.4555 -0.5313,0.5091 -0.8813,0.3608 l -0.6925,-0.2942 -0.088,-1.5035 1.0505,-6.522 1.9965,0.4561 -1.3853,7.5028 z m 3.2159,0.5797 -0.2563,-0.0584 c -1.5919,-0.7328 -0.989,-4.6596 -0.3795,-6.7737 l 0.2834,-0.9819 1.7657,0.371 z m 36.6332,-10.9245 h 4.7662 c 0,2.6121 0,4.4136 0,7.026 -1.5891,2.0418 -3.1779,2.0415 -4.7662,0 z m -7.0135,0 h 4.7659 c 0,2.4718 0,4.1763 0,6.6484 -1.5888,1.9324 -3.1776,1.9324 -4.7659,0 z m -6.3331,0 h 4.458 c 0,2.312 0,3.9064 0,6.2189 -1.4862,1.8074 -2.9724,1.8074 -4.458,0 z m -6.2425,0 h 4.1409 c 0,2.1816 0,3.6862 0,5.8683 -1.3805,1.7056 -2.761,1.7056 -4.1409,0 z m -5.6542,0 h 3.869 c 0,1.893 0,3.1966 0,5.0882 -1.2901,1.4794 -2.5798,1.4794 -3.869,0 z m -5.1118,0 h 3.4166 c 0,1.7274 0,2.9166 0,4.6429 -1.1392,1.3493 -2.2779,1.3493 -3.4166,0 z m 23.3416,12.6666 h 4.7659 c 0,3.1346 0,5.2963 0,8.4311 -1.5888,2.4506 -3.1776,2.4506 -4.7659,0 z m -6.3331,0 h 4.458 c 0,2.9322 0,4.9539 0,7.8863 -1.4862,2.2921 -2.9724,2.2921 -4.458,0 z m -6.2425,0 h 4.1409 c 0,2.7666 0,4.6746 0,7.4418 -1.3805,2.1631 -2.761,2.1631 -4.1409,0 z m -5.6542,0 h 3.869 c 0,2.4004 0,4.0536 0,6.4528 -1.2901,1.876 -2.5798,1.876 -3.869,0 z m -5.1118,0 h 3.4166 c 0,2.1904 0,3.6984 0,5.8879 -1.1392,1.7107 -2.2779,1.7107 -3.4166,0 z m 0,11.7162 h 3.4166 c 0,1.7969 0,3.0333 0,4.8294 -1.1392,1.4026 -2.2779,1.4026 -3.4166,0 z m 4.2761,1.5381 h 3.0311 c 0,1.7968 0,3.0333 0,4.8293 -1.0108,1.4026 -2.0211,1.4026 -3.0311,0 z m 3.981,0.9048 h 3.4038 c 0,2.1149 0,3.5699 0,5.6837 -1.135,1.6506 -2.2694,1.6506 -3.4038,0 z m 5.0244,0.9952 h 3.5818 c 0,2.2252 0,3.7568 0,5.9808 -1.1945,1.7371 -2.3884,1.7371 -3.5818,0 z m 5.9261,0.3167 h 3.9821 c 0,2.474 0,4.1768 0,6.6498 -1.3277,1.9309 -2.6552,1.9309 -3.9821,0 z m 36.275,-28.1376 h -4.7662 c 0,2.6121 0,4.4136 0,7.026 1.5888,2.0418 3.1779,2.0415 4.7662,0 z m 7.0134,0 h -4.7658 c 0,2.4718 0,4.1763 0,6.6484 1.5888,1.9324 3.1776,1.9321 4.7658,0 z m 6.3332,0 h -4.458 c 0,2.312 0,3.9064 0,6.2189 1.4862,1.8074 2.9724,1.8068 4.458,0 z m 6.2425,0 h -4.1412 c 0,2.1816 0,3.6865 0,5.8683 1.3808,1.7056 2.7613,1.7053 4.1412,0 z m 5.6542,0 h -3.869 c 0,1.8919 0,3.1966 0,5.0885 1.2901,1.4791 2.5796,1.4788 3.869,0 z m 5.1117,0 h -3.4166 c 0,1.726 0,2.9166 0,4.6429 1.139,1.3496 2.278,1.3493 3.4166,0 z m -23.5213,12.6666 h -4.7659 c 0,3.1346 0,5.2966 0,8.4314 1.5889,2.4503 3.1777,2.45 4.7659,0 z m 6.3332,0 h -4.4581 c 0,2.9319 0,4.9539 0,7.8863 1.4862,2.2918 2.9725,2.2915 4.4581,0 z m 6.2424,0 h -4.1411 c 0,2.7669 0,4.6749 0,7.4421 1.3808,2.1628 2.7612,2.1623 4.1411,0 z m 5.6543,0 h -3.869 c 0,2.3993 0,4.0539 0,6.4531 1.2901,1.8751 2.5795,1.8751 3.869,0 z m 5.1117,0 h -3.4166 c 0,2.1889 0,3.6987 0,5.8879 1.139,1.7112 2.278,1.7107 3.4166,0 z m 111.3018,-12.4143 h -2.8584 v 3.706 h 2.8584 z m -10.8742,0 h -1.6251 v 3.706 h 1.6251 z m 0,5.559 h -1.6251 v 2.9194 h 1.6251 z m -3.8676,-0.7863 h -2.2978 v 3.7057 h 2.2978 z m 0,6.2887 h -2.2978 v 2.4706 h 2.2978 z m 3.8676,0 h -1.7377 v 2.4706 h 1.7377 z m 3.3074,0 h -1.7379 v 1.5159 h 1.7379 z m 0.224,-5.5024 h -1.4568 v 2.9194 h 1.4568 z m 3.6992,0 h -1.4568 v 2.9194 h 1.4568 z m -3.6992,-1.6285 h -1.4568 v 0.8986 h 1.4568 z m 3.6992,0 h -1.4568 v 0.8986 h 1.4568 z m 5.6055,1.6285 h -1.4567 v 2.9194 h 1.4567 z m 3.6995,0 h -1.457 v 2.9194 h 1.457 z m -3.6995,-1.6285 h -1.4567 v 0.8986 h 1.4567 z m 3.6995,0 h -1.457 v 0.8986 h 1.457 z m 3.6995,-3.9305 h -1.6251 v 3.706 h 1.6251 z m 0,5.559 h -1.6251 v 2.9194 h 1.6251 z m 4.204,0 h -1.6251 v 2.9194 h 1.6251 z m 0,5.6707 h -1.6251 v 2.9194 h 1.6251 z m -7.8474,-0.1683 h -1.7376 v 1.5159 h 1.7376 z m 3.5875,0 h -1.7379 v 1.5159 h 1.7379 z m -14.7072,7.8823 h 1.218 V 889.42 h -1.218 z m 2.0018,0 h 1.218 V 889.42 h -1.218 z m 2.0279,0 h 1.218 V 889.42 h -1.218 z m 2.0018,0 h 1.2181 V 889.42 h -1.2181 z m -63.3472,2.573 v -17.9935 h 1.8309 v 17.9935 z m 3.6618,0 v -17.9935 h 1.8309 v 17.9935 z m 3.6615,0 v -17.9935 h 1.8312 v 17.9935 z m 3.6621,0 v -17.9935 h 1.8311 v 17.9935 h -0.9884 z m 3.6618,0 v -17.9935 h 1.8311 v 17.9935 z m 3.662,0 v -17.9935 h 1.8306 v 17.9935 z m 3.6615,0 v -17.9935 h 1.8312 v 17.9935 z m -64.0491,-4.3852 h 4.1239 v -4.1239 h -4.1239 z m 6.103,0 h 4.1239 v -4.1239 h -4.1239 z m 18.8867,0 h 4.1239 v -4.1239 h -4.1239 z m 6.103,0 h 4.1238 v -4.1239 h -4.1238 z m -175.8489,7.5223 h 0.9756 v -1.5639 h -0.9756 z m 3.1583,0 h 0.9757 v -1.5639 h -0.9757 z m -39.3545,-20.3412 h 1.6058 v -3.3386 h -1.6058 z m 2.3105,0 h 1.9069 v -3.3386 h -1.9069 z m 10.2365,0 h -1.6058 v -3.3386 h 1.6058 z m -2.3105,0 h -1.9069 v -3.3386 h 1.9069 z m -17.0606,-6.0162 h -3.2111 v 4.9898 h 3.2111 z m 33.1208,2.6767 h 1.061 v 13.1531 h -1.061 v 0.7959 h 23.0868 v -0.7959 h -0.707 v -13.1531 h 0.9723 v -0.7957 h -0.9723 -0.8506 -1.061 v 0.7957 h 1.061 v 13.1531 h -4.1004 v -13.1531 h 0.9726 v -0.7957 h -0.9726 -0.8506 -1.061 v 0.7957 h 1.061 v 13.1531 h -9.2733 v -13.1531 h 1.0168 v -0.7957 h -1.0168 -0.8507 -1.0168 v 0.7957 h 1.0168 v 13.1531 h -4.5425 v -13.1531 h 0.9726 v -0.7957 h -0.9726 -0.8507 -1.061 z m 20.3902,5.7609 v -3.831 h -1.7294 v 3.831 z m 0,5.1811 v -2.4142 h -1.7294 v 2.4142 z m -15.1189,-5.1811 v -3.831 h -1.8674 v 3.831 z m 0,5.1811 v -2.4142 h -1.8674 v 2.4142 z m 18.9207,-0.8203 h 1.7241 v -2.7014 h -1.7241 z m 0,-4.517 h 1.7241 v -3.2326 h -1.7241 z m 3.625,4.517 h 1.724 v -2.7014 h -1.724 z m 0,-4.517 h 1.724 v -3.2326 h -1.724 z m 3.6249,4.517 h 1.7238 v -2.7014 h -1.7238 z m 0,-4.517 h 1.7238 v -3.2326 h -1.7238 z m -41.5105,4.517 h 1.724 v -2.7014 h -1.724 z m 0,-4.517 h 1.724 v -3.2326 h -1.724 z m 3.6249,4.517 h 1.724 v -2.7014 h -1.724 z m 0,-4.517 h 1.724 v -3.2326 h -1.724 z m 3.625,4.517 h 1.7237 v -2.7014 h -1.7237 z m 0,-4.517 h 1.7237 v -3.2326 h -1.7237 z"
         style="fill:#cfa64b;fill-opacity:1;fill-rule:evenodd;stroke:none"
         transform="matrix(0.35277776,0,0,-0.35277776,-324.19491,464.51789)"
         clip-path="url(#clipPath44)" />
      <path
         id="path47"
         d="m 8.5655484,-4.6643406 c 0,0.6445312 0,1.2304687 0.1171875,1.640625 0.058594,0.3984375 0.234375,0.6914062 0.4570313,0.984375 0.234375,0.234375 0.6445312,0.3515625 1.1132808,0.46875 0.46875,0.1171875 1.042969,0.1757812 1.863282,0.1757812 h 2.097656 c 1.101562,0 1.980469,-0.1171875 2.683594,-0.2929687 0.691406,-0.1757813 1.277343,-0.46875 1.746093,-0.9375 0.457032,-0.3984375 0.867188,-0.984375 1.277344,-1.6875 0.351563,-0.703125 0.761719,-1.5703125 1.160156,-2.5664063 l 1.113282,0.234375 c -0.117188,0.5859375 -0.292969,1.171875 -0.410157,1.7460938 -0.117187,0.6445312 -0.234375,1.2890625 -0.351562,1.875 -0.117188,0.6328125 -0.234375,1.1601562 -0.292969,1.6875 -0.05859,0.57421872 -0.105469,0.98437497 -0.164062,1.335937475 -3.738282,0 -6.820313,0 -9.152344,-0.058593755 -2.3320313,0 -4.0781251,0 -5.2382813,0 -0.3515625,0 -0.7617188,0 -1.2304688,0 -0.4570312,0 -0.9257812,0 -1.453125,0 -0.46875,0 -0.9257812,0.058593755 -1.3945312,0.058593755 -0.46875,0 -0.8789063,0 -1.171875,0 L 1.2178922,-0.99637188 c 0.8789062,-0.046875 1.5820312,-0.10546872 2.0976562,-0.22265622 0.5273438,-0.1171875 0.9375,-0.3515625 1.2304688,-0.5859375 0.2929687,-0.234375 0.46875,-0.6445313 0.5742187,-1.0546875 0.1171875,-0.4570313 0.1171875,-1.0429688 0.1171875,-1.7460938 V -23.765903 c 0,-0.46875 0,-0.820313 -0.1171875,-1.113281 -0.058594,-0.339844 -0.2226562,-0.574219 -0.515625,-0.75 -0.234375,-0.234375 -0.5859375,-0.351563 -1.1132812,-0.46875 -0.46875,-0.05859 -1.1015625,-0.175782 -1.921875,-0.175782 l 0.058594,-1.042968 c 0.4101563,0 0.8203125,0 1.2890625,0 0.4570313,0.05859 0.9257813,0.05859 1.3945313,0.05859 0.46875,0 0.9257812,0 1.3945312,0 0.46875,0 0.9375,0 1.3359375,0 0.703125,0 2.2734375,0 4.6640618,0 2.332032,-0.05859 5.367188,-0.05859 9.035157,-0.05859 -0.117188,0.984375 -0.175782,1.980468 -0.234375,3.023437 -0.05859,1.113281 -0.117188,2.214844 -0.117188,3.433594 h -1.171875 c -0.164062,-0.984375 -0.339844,-1.804688 -0.574219,-2.4375 -0.175781,-0.644531 -0.46875,-1.171875 -0.878906,-1.582031 -0.351562,-0.339844 -0.867187,-0.632813 -1.453125,-0.808594 -0.644531,-0.175781 -1.394531,-0.234375 -2.390625,-0.234375 H 9.9014859 c -0.5859375,0 -0.984375,0.05859 -1.1015625,0.175781 -0.1757812,0.117188 -0.234375,0.410156 -0.234375,0.867188 v 9.84375 l 9.6093746,-0.28125 0.175782,0.234375 -0.05859,2.320312 c -1.746094,-0.117187 -3.433594,-0.234375 -5.132813,-0.292969 -1.628906,-0.04687 -3.1992183,-0.105468 -4.5937496,-0.164062 z M 35.126095,-11.355747 c -0.05859,-0.585937 -0.234375,-1.171875 -0.46875,-1.640625 -0.234375,-0.515625 -0.515625,-0.984375 -0.925781,-1.335937 -0.410156,-0.351563 -0.820312,-0.644532 -1.347656,-0.808594 -0.515625,-0.234375 -1.042969,-0.292969 -1.628906,-0.292969 -0.410157,0 -0.75,0.05859 -1.042969,0.175781 -0.351563,0.117188 -0.644531,0.222657 -0.878906,0.457032 -0.292969,0.234375 -0.46875,0.46875 -0.632813,0.761718 -0.175781,0.351563 -0.234375,0.703125 -0.234375,1.101563 0,0.46875 0.117188,0.878906 0.339844,1.230469 0.234375,0.351562 0.585937,0.644531 0.9375,0.925781 0.410156,0.292969 0.878906,0.527344 1.335937,0.761719 0.527344,0.1757809 1.054688,0.4101559 1.582032,0.5859371 0.574218,0.2929688 1.160156,0.515625 1.746093,0.8085938 0.574219,0.234375 1.101563,0.5859375 1.570313,0.9375 0.410156,0.4101562 0.820312,0.8085937 1.042969,1.3359375 0.292968,0.5273437 0.410156,1.1132812 0.410156,1.8046875 0,0.9375 -0.175781,1.6875 -0.527344,2.3320312 -0.398437,0.5859375 -0.867187,1.171875 -1.511719,1.57031252 -0.585937,0.41015625 -1.277343,0.703125 -2.039062,0.9375 -0.75,0.17578125 -1.570313,0.29296875 -2.332031,0.29296875 -0.457032,0 -0.984375,-0.0585938 -1.511719,-0.1171875 -0.46875,-0.0585938 -0.925781,-0.17578125 -1.394531,-0.234375 -0.410157,-0.1171875 -0.761719,-0.234374995 -1.113282,-0.29296875 -0.398437,-0.1171875 -0.808593,-0.17578125 -1.21875,-0.17578125 -0.05859,-0.3515625 -0.05859,-0.76171875 -0.117187,-1.21874997 -0.05859,-0.5273438 -0.117188,-1.0546875 -0.175781,-1.5234375 -0.05859,-0.515625 -0.117188,-1.0429688 -0.175782,-1.5117188 -0.05859,-0.4101562 -0.117187,-0.8085937 -0.175781,-1.0429687 l 0.9375,-0.2929688 c 0.292969,0.6445313 0.585938,1.2773438 0.867188,1.921875 0.351562,0.5859375 0.703125,1.1015625 1.171875,1.5703125 0.46875,0.46875 0.925781,0.8789063 1.511718,1.1132813 0.585938,0.28124997 1.21875,0.45703122 2.039063,0.45703122 0.761719,0 1.394531,-0.234375 1.980469,-0.63281252 0.527343,-0.4101562 0.820312,-0.9960937 0.820312,-1.8632812 0,-0.46875 -0.117187,-0.8789063 -0.292969,-1.2304688 -0.234375,-0.4101562 -0.527343,-0.6914062 -0.9375,-0.984375 -0.351562,-0.2929687 -0.75,-0.5859375 -1.21875,-0.7617187 -0.46875,-0.234375 -0.9375,-0.46875 -1.453125,-0.6445313 -0.585937,-0.2226562 -1.171875,-0.515625 -1.757812,-0.8085937 -0.574219,-0.234375 -1.101563,-0.5859375 -1.570313,-0.9375 -0.46875,-0.4101563 -0.808593,-0.8085938 -1.101562,-1.3359375 -0.292969,-0.5273434 -0.410156,-1.1015624 -0.410156,-1.8632814 0,-0.878906 0.175781,-1.628906 0.527343,-2.214844 0.410157,-0.644531 0.867188,-1.160156 1.453125,-1.570312 0.585938,-0.410156 1.21875,-0.703125 1.980469,-0.878906 0.703125,-0.234375 1.453125,-0.292969 2.214844,-0.292969 0.761719,0 1.511719,0.05859 2.273437,0.234375 0.691407,0.117187 1.570313,0.234375 2.507813,0.292969 -0.05859,0.585937 -0.05859,1.171875 -0.117188,1.6875 0,0.527343 0,1.113281 0,1.746093 v 1.40625 z m 20.797852,-4.957031 c -0.05859,0.46875 -0.117188,1.054687 -0.175781,1.628906 -0.05859,0.585938 -0.05859,1.230469 -0.117188,1.804688 0,0.585937 -0.05859,1.171875 -0.05859,1.699218 0,0.515625 -0.05859,0.984375 -0.05859,1.2773441 V 9.3747219 c 0,0.46875 0.05859,0.8203121 0.117187,1.1132811 0.05859,0.292969 0.175781,0.46875 0.351563,0.632813 0.234375,0.175781 0.527343,0.234375 0.9375,0.292968 0.398437,0.05859 0.925781,0.117188 1.628906,0.175782 l -0.117188,1.054687 c -0.585937,0 -1.277343,0 -2.15625,-0.05859 -0.820312,0 -1.6875,0 -2.566406,0 -0.410156,0 -0.75,0 -1.21875,0 -0.410156,0 -0.878906,0 -1.289062,0 -0.457032,0 -0.867188,0 -1.277344,0.05859 -0.351563,0 -0.703125,0 -0.925781,0 l -0.117188,-0.9375 c 0.867188,-0.05859 1.511719,-0.117187 1.980469,-0.234375 0.457031,-0.117187 0.867187,-0.292969 1.101562,-0.515625 0.234375,-0.234375 0.410157,-0.585937 0.46875,-0.9960936 0.05859,-0.46875 0.05859,-0.984375 0.05859,-1.7460938 v -9.609375 c -0.9375,0.69140627 -1.921875,1.16015627 -2.859375,1.51171877 -0.925781,0.29296875 -1.863281,0.41015625 -2.789062,0.41015625 -1.054688,0 -2.097657,-0.17578125 -2.976563,-0.64453125 -0.925781,-0.41015625 -1.6875,-0.92578127 -2.332031,-1.68749997 -0.574219,-0.703125 -1.101563,-1.5117188 -1.453125,-2.5078125 -0.351563,-0.9257813 -0.527344,-1.9804688 -0.527344,-3.0820313 0,-1.40625 0.292969,-2.6835936 0.820313,-3.7851566 0.527343,-1.171875 1.21875,-2.15625 2.15625,-2.976562 0.867187,-0.820313 1.980468,-1.453125 3.140625,-1.921875 1.230468,-0.46875 2.507812,-0.703125 3.902343,-0.703125 0.46875,0 1.171875,0.05859 1.980469,0.175781 0.820313,0.117188 1.628906,0.292969 2.390625,0.585938 0.292969,-0.05859 0.585938,-0.175782 0.878906,-0.292969 0.351563,-0.05859 0.574219,-0.175781 0.808594,-0.234375 z m -3.433594,2.742187 c -0.527344,-0.585937 -1.171875,-0.996093 -1.921875,-1.289062 -0.703125,-0.28125 -1.453125,-0.457031 -2.273437,-0.457031 -0.585938,0 -1.21875,0.117187 -1.804688,0.398437 -0.644531,0.234375 -1.171875,0.644531 -1.6875,1.171875 -0.527344,0.527344 -0.9375,1.21875 -1.289062,2.097656 -0.292969,0.867188 -0.457032,1.9218754 -0.457032,3.1406254 0,1.171875 0.164063,2.0976562 0.515625,2.9765625 0.292969,0.8085937 0.761719,1.5703125 1.289063,2.15625 0.515625,0.5742187 1.160156,0.984375 1.804687,1.3359375 0.632813,0.2929687 1.335938,0.4101562 2.039063,0.4101562 0.632812,0 1.335937,-0.058594 1.980469,-0.2929687 0.632812,-0.1757813 1.277343,-0.46875 1.804687,-0.8789063 z m 20.625,13.74609412 c 0,-0.3515625 0.05859,-0.76171875 0.05859,-1.21875002 0,-0.46875 0.05859,-0.8789062 0.05859,-1.2304687 -0.996094,0.9375 -2.097657,1.62890622 -3.210938,2.09765622 -1.101562,0.52734375 -2.214844,0.76171875 -3.257812,0.76171875 -0.703125,0 -1.335938,-0.1171875 -1.921875,-0.3515625 -0.585938,-0.234374995 -1.113282,-0.5859375 -1.511719,-1.0546875 -0.46875,-0.51562497 -0.820313,-1.10156247 -1.054688,-1.86328127 -0.234375,-0.75 -0.351562,-1.6875 -0.351562,-2.7304687 v -6.8203124 c 0,-0.527344 -0.05859,-0.925781 -0.117188,-1.277344 -0.05859,-0.292969 -0.175781,-0.527344 -0.339843,-0.703125 -0.175782,-0.175781 -0.410157,-0.292969 -0.761719,-0.410156 -0.351563,-0.05859 -0.761719,-0.175781 -1.335938,-0.234375 l -0.05859,-0.867188 c 0.632812,-0.05859 1.21875,-0.117187 1.804687,-0.234375 0.632813,-0.117187 1.160156,-0.175781 1.6875,-0.292968 0.527344,-0.117188 0.984375,-0.175782 1.394531,-0.292969 0.351563,-0.05859 0.644532,-0.175781 0.878907,-0.234375 l 0.292968,0.234375 c -0.05859,0.46875 -0.117187,0.996094 -0.117187,1.511719 -0.05859,0.527343 -0.05859,1.054687 -0.117188,1.582031 0,0.515625 -0.05859,0.984375 -0.05859,1.453125 0,0.46875 0,0.878906 0,1.21875 v 4.2539061 c 0,0.8789063 0.05859,1.6289063 0.292968,2.2734375 0.175782,0.5859375 0.398438,1.1132813 0.691407,1.5117188 0.292968,0.3515625 0.644531,0.6445312 1.113281,0.7617187 0.410156,0.1757813 0.808594,0.2929688 1.335937,0.2929688 0.761719,0 1.570313,-0.1757813 2.390625,-0.5273438 0.808594,-0.3515625 1.570313,-0.7617187 2.332032,-1.3359375 v -8.6835936 c 0,-0.527344 -0.05859,-0.925781 -0.117188,-1.277344 -0.05859,-0.292969 -0.175781,-0.527344 -0.351562,-0.703125 -0.175782,-0.175781 -0.46875,-0.292969 -0.878907,-0.410156 -0.339843,-0.05859 -0.867187,-0.175781 -1.453125,-0.234375 l -0.05859,-0.867188 c 0.644531,-0.05859 1.289062,-0.117187 1.921875,-0.234375 0.644531,-0.117187 1.230468,-0.175781 1.746093,-0.292968 0.527344,-0.117188 0.996094,-0.234375 1.40625,-0.292969 0.339844,-0.05859 0.632813,-0.175781 0.808594,-0.234375 l 0.351563,0.234375 c -0.05859,0.46875 -0.117188,0.996094 -0.175782,1.511719 0,0.527343 -0.05859,1.054687 -0.05859,1.582031 -0.05859,0.515625 -0.05859,0.984375 -0.05859,1.453125 -0.05859,0.46875 -0.05859,0.878906 -0.05859,1.21875 v 6.6445311 c 0,0.5273438 0.05859,0.9375 0.117188,1.2773438 0.05859,0.2929687 0.175781,0.5273437 0.351562,0.703125 0.234375,0.1757812 0.527344,0.2929687 0.878906,0.3515625 0.398438,0.1171875 0.925782,0.1757812 1.570313,0.2929687 l 0.117187,0.80859377 c -0.585937,0.0585938 -1.171875,0.1171875 -1.746093,0.234375 -0.585938,0.0585938 -1.171875,0.17578125 -1.699219,0.234375 -0.574219,0.1171875 -1.042969,0.234375005 -1.453125,0.3515625 -0.46875,0.1171875 -0.808594,0.234375 -0.984375,0.29296875 z m 17.06543,-0.175781245 c -0.585938,0 -1.335938,0 -2.15625,-0.058593755 -0.878906,0 -1.746094,0 -2.683594,0 -0.691406,0 -1.453125,0 -2.15625,0 -0.691406,0.058593755 -1.277344,0.058593755 -1.804687,0.058593755 l -0.05859,-0.937500005 c 0.585937,-0.0585938 1.113281,-0.10546877 1.464844,-0.22265627 0.398437,-0.1171875 0.691406,-0.2929687 0.867187,-0.5273437 0.234375,-0.234375 0.351563,-0.5859375 0.410156,-0.9960938 0.05859,-0.4570312 0.117188,-0.984375 0.117188,-1.7460937 v -7.4531254 c 0,-0.527343 -0.05859,-0.9375 -0.117188,-1.277343 -0.05859,-0.292969 -0.175781,-0.527344 -0.351562,-0.703125 -0.175781,-0.175782 -0.410156,-0.292969 -0.75,-0.410157 -0.351563,-0.05859 -0.820313,-0.175781 -1.40625,-0.292968 l -0.05859,-0.808594 c 0.585938,-0.117188 1.171875,-0.234375 1.746094,-0.351563 0.585937,-0.117187 1.171875,-0.234375 1.699219,-0.351562 0.515625,-0.175781 0.984375,-0.292969 1.394531,-0.410156 0.410156,-0.117188 0.703125,-0.234375 0.925781,-0.292969 l 0.292969,0.234375 c -0.05859,0.46875 -0.117188,0.9375 -0.175781,1.511719 -0.05859,0.527343 -0.05859,1.054687 -0.05859,1.582031 -0.05859,0.515625 -0.05859,0.984375 -0.05859,1.453125 0,0.46875 0,0.878906 0,1.21875 v 7.5234374 c 0,0.4570312 0,0.8085937 0.05859,1.1015625 0.05859,0.2929687 0.175781,0.46875 0.410156,0.6445312 0.175781,0.1757813 0.46875,0.234375 0.878906,0.2929688 0.410157,0.058594 0.925782,0.1171875 1.628907,0.1757812 z M 83.594845,-23.590122 c 0,-0.644531 0.175782,-1.171875 0.527344,-1.511719 0.410156,-0.410156 0.9375,-0.585937 1.511719,-0.585937 0.703125,0 1.230469,0.175781 1.570312,0.585937 0.410157,0.339844 0.585938,0.867188 0.585938,1.511719 0,0.574219 -0.175781,1.101563 -0.585938,1.511719 -0.339843,0.351562 -0.867187,0.585937 -1.570312,0.585937 -0.574219,0 -1.101563,-0.234375 -1.511719,-0.585937 -0.351562,-0.410156 -0.527344,-0.9375 -0.527344,-1.511719 z M 100.60754,-2.78125e-4 c -0.58594,0 -1.277343,0 -2.039062,-0.058593755 -0.761719,0 -1.570312,0 -2.507812,0 -0.75,0 -1.453125,0 -2.214844,0 -0.691406,0.058593755 -1.335938,0.058593755 -1.863281,0.058593755 L 91.865353,-0.93777813 c 0.644531,-0.0585938 1.171875,-0.10546877 1.582031,-0.22265627 0.339844,-0.1171875 0.691407,-0.2929687 0.867188,-0.5273437 0.234375,-0.234375 0.410156,-0.5859375 0.46875,-0.9960938 0.05859,-0.4570312 0.05859,-0.984375 0.05859,-1.7460937 v -7.3359374 c 0,-0.527344 0,-0.996094 -0.05859,-1.289063 -0.05859,-0.28125 -0.175781,-0.515625 -0.351563,-0.691406 -0.175781,-0.175781 -0.46875,-0.351562 -0.808593,-0.410156 -0.351563,-0.117188 -0.820313,-0.234375 -1.40625,-0.292969 l -0.05859,-0.808594 c 0.46875,-0.05859 0.996094,-0.175781 1.523437,-0.351562 0.515625,-0.117188 1.042969,-0.234375 1.570313,-0.410156 0.527344,-0.117188 0.984375,-0.292969 1.453125,-0.410157 0.46875,-0.117187 0.820312,-0.234375 1.101562,-0.351562 l 0.351563,0.234375 c -0.05859,0.410156 -0.117188,0.761719 -0.175781,1.171875 -0.05859,0.398437 -0.05859,0.75 -0.05859,1.160156 1.054687,-0.820312 2.097655,-1.453125 3.269535,-1.863281 1.16015,-0.46875 2.27344,-0.703125 3.25781,-0.703125 0.70313,0 1.34766,0.117187 1.92188,0.292969 0.64453,0.234375 1.17187,0.585937 1.57031,1.054687 0.41015,0.457031 0.76172,1.101563 1.05469,1.804688 0.23437,0.75 0.35156,1.628906 0.35156,2.671875 v 7.6992184 c 0,0.4570312 0.0586,0.8085937 0.11719,1.1015625 0.0586,0.2929687 0.17578,0.46875 0.35156,0.6445312 0.16406,0.1757813 0.45703,0.234375 0.80859,0.2929688 0.35156,0.058594 0.82031,0.1171875 1.45313,0.1757812 l -0.0586,1.042968775 c -0.63281,0 -1.27734,0 -2.03906,-0.058593755 -0.69141,0 -1.51172,0 -2.4375,0 -0.76172,0 -1.46484,0 -2.09766,0 -0.70312,0.058593755 -1.28906,0.058593755 -1.80468,0.058593755 l -0.11719,-0.937500005 c 0.57422,-0.0585938 1.10156,-0.10546877 1.45312,-0.22265627 0.35157,-0.058594 0.64454,-0.234375 0.82032,-0.46875 0.16406,-0.1757812 0.28125,-0.5273437 0.33984,-0.9375 0.0586,-0.4101562 0.11719,-0.9257812 0.11719,-1.6875 v -5.9999996 c 0,-1.511719 -0.35156,-2.625 -1.04297,-3.257813 -0.64453,-0.703125 -1.51172,-1.054687 -2.50781,-1.054687 -0.76172,0 -1.51172,0.175781 -2.33203,0.46875 -0.8086,0.292968 -1.628913,0.703125 -2.449225,1.21875 v 9.6210934 c 0,0.4570312 0.05859,0.8085937 0.05859,1.1015625 0.05859,0.2929687 0.175781,0.46875 0.351562,0.6445312 0.234375,0.1757813 0.527344,0.234375 0.878906,0.2929688 0.351563,0.058594 0.867187,0.1171875 1.453117,0.1757812 z M 124.02453,-9.1994969 c 0.0586,-0.1171875 0.0586,-0.2929687 0.0586,-0.46875 v -2.0976561 c 0,-0.9375 -0.22266,-1.746094 -0.69141,-2.390625 -0.46875,-0.644531 -1.23047,-0.925781 -2.21484,-0.925781 -0.58594,0 -1.05469,0.04687 -1.39453,0.28125 -0.41016,0.175781 -0.76172,0.46875 -0.9961,0.761718 -0.23437,0.351563 -0.46875,0.703125 -0.58594,1.101563 -0.11718,0.410156 -0.17578,0.878906 -0.17578,1.347656 -0.28125,0.234375 -0.6914,0.351563 -1.27734,0.351563 -0.41016,0 -0.82031,-0.117188 -1.21875,-0.292969 -0.35156,-0.175781 -0.58594,-0.527344 -0.58594,-0.878906 0,-0.351563 0.11719,-0.644532 0.35156,-0.984375 0.23438,-0.292969 0.58594,-0.644532 0.92579,-0.9375 0.41015,-0.292969 0.8789,-0.585938 1.34765,-0.867188 0.45703,-0.292969 0.92578,-0.527344 1.45313,-0.761719 1.21875,-0.527343 2.50781,-0.820312 3.72656,-0.820312 0.58594,0 1.17187,0.05859 1.6875,0.234375 0.52734,0.175781 0.99609,0.410156 1.40625,0.761719 0.39844,0.351562 0.69141,0.808593 0.92578,1.335937 0.23438,0.585938 0.35156,1.230469 0.35156,1.980469 0,1.171875 0,2.449219 -0.0586,3.9609374 0,1.4648437 -0.0586,3.1523437 -0.0586,4.9570312 0,0.75 0.17578,1.3359375 0.46875,1.7460938 0.23437,0.4101562 0.63281,0.5859375 1.16015,0.5859375 0.46875,0 0.9375,-0.1171875 1.45313,-0.46875 l 0.52734,0.74999997 c -0.41016,0.41015625 -0.92578,0.76171875 -1.57031,1.0546875 -0.64453,0.29296875 -1.27735,0.41015625 -1.92188,0.41015625 -0.70312,0 -1.27734,-0.17578125 -1.86328,-0.5859375 -0.52734,-0.3515625 -0.9375,-0.9375 -1.11328,-1.80468752 -0.17578,0.1171875 -0.45703,0.2929688 -0.86719,0.5859375 -0.41015,0.234375 -0.8789,0.51562502 -1.39453,0.80859377 -0.46875,0.29296875 -1.05469,0.52734375 -1.64062,0.703125 -0.57422,0.234375 -1.16016,0.3515625 -1.6875,0.3515625 -0.58594,0 -1.16016,-0.1171875 -1.6875,-0.3515625 -0.52735,-0.234374995 -0.9375,-0.52734375 -1.33594,-0.9375 -0.35156,-0.39843747 -0.64453,-0.80859377 -0.82031,-1.33593747 -0.23438,-0.5273438 -0.35157,-1.0429688 -0.35157,-1.6289063 0,-0.9375 0.29297,-1.7460937 0.87891,-2.4492187 0.52734,-0.703125 1.27734,-1.21875 2.21484,-1.6289063 0.63282,-0.234375 1.51172,-0.5273437 2.61329,-0.8203125 1.11328,-0.2929687 2.44921,-0.46875 3.96093,-0.6328125 z m 0,5.9414063 c 0,-0.7617188 0,-1.5820313 0,-2.3320313 0,-0.7617187 0,-1.5117187 0,-2.3320312 -0.45703,0.058594 -0.98437,0.1171875 -1.51172,0.234375 -0.52734,0.058594 -1.04296,0.1757812 -1.51171,0.2929687 -0.52735,0.1757813 -0.9961,0.3515625 -1.39454,0.515625 -0.46875,0.234375 -0.82031,0.46875 -1.11328,0.7617188 -0.46875,0.4101562 -0.6914,0.9375 -0.6914,1.6289062 0,0.7617188 0.16406,1.4648438 0.57422,1.9804688 0.41015,0.5859375 1.05468,0.8789062 1.92187,0.8789062 0.58594,0 1.23047,-0.1757812 1.86328,-0.46875 0.70313,-0.2929687 1.28906,-0.6445312 1.86328,-1.1601562 z m 35.13574,-23.1914064 c -1.86328,0.410156 -3.44531,1.054688 -4.83984,1.863281 -1.33594,0.761719 -2.50781,1.6875 -3.49219,2.800782 -0.99609,1.042968 -1.74609,2.273437 -2.33203,3.609375 -0.58594,1.335937 -0.99609,2.742187 -1.27734,4.253906 0.98437,-0.703125 1.98047,-1.160156 2.96484,-1.511719 1.05469,-0.351562 2.03906,-0.527344 3.03516,-0.527344 0.98437,0 1.92187,0.175782 2.78906,0.527344 0.87891,0.351563 1.6875,0.808594 2.33203,1.453125 0.70313,0.585938 1.21875,1.394531 1.62891,2.273438 0.35156,0.925781 0.58594,1.9804684 0.58594,3.1406246 0,1.2890625 -0.23438,2.5078125 -0.64454,3.609375 -0.46875,1.1132813 -1.04296,2.0390625 -1.80468,2.9179688 -0.75,0.8203125 -1.6875,1.45312497 -2.78907,1.92187497 -1.05468,0.46875 -2.21484,0.703125 -3.5039,0.703125 -1.45313,0 -2.67188,-0.29296875 -3.72656,-0.87890625 -1.04297,-0.52734375 -1.92188,-1.27734372 -2.625,-2.27343752 -0.69141,-0.9257812 -1.21875,-2.0390625 -1.51172,-3.2578125 -0.35157,-1.21875 -0.52735,-2.5078125 -0.52735,-3.9023437 0,-2.3320314 0.35157,-4.5468754 1.05469,-6.5859374 0.70313,-1.980469 1.74609,-3.785156 3.02344,-5.355469 1.34765,-1.570312 2.97656,-2.859375 4.83984,-3.902344 1.92188,-1.054687 4.01953,-1.804687 6.41016,-2.273437 z m -12,13.980469 c -0.0586,0.292969 -0.11718,0.585937 -0.11718,0.878906 0,0.351563 0,0.632813 0,0.984375 0,0.8789064 0.0586,1.8632814 0.23437,3.0351564 0.16406,1.1015625 0.45703,2.15625 0.86719,3.140625 0.41016,0.9960937 0.99609,1.8046875 1.74609,2.4492187 0.70313,0.703125 1.62891,0.98437502 2.80078,0.98437502 0.75,0 1.39454,-0.10546872 1.92188,-0.45703122 0.52734,-0.3515625 0.98437,-0.7617188 1.33594,-1.3476563 0.35156,-0.515625 0.58593,-1.21875 0.76172,-1.921875 0.17578,-0.75 0.29296,-1.5703125 0.29296,-2.4375 0,-0.9375 -0.11718,-1.7578125 -0.35156,-2.5664062 -0.17578,-0.7617184 -0.52734,-1.3945314 -0.99609,-1.9804684 -0.39844,-0.527344 -0.98438,-0.9375 -1.6875,-1.230469 -0.69141,-0.28125 -1.51172,-0.457031 -2.44922,-0.457031 -0.69141,0 -1.45313,0.05859 -2.26172,0.234375 -0.82031,0.164062 -1.52344,0.398437 -2.09766,0.691406 z m 16.7754,-6.117188 c 0,-0.691406 -0.0586,-1.277343 -0.0586,-1.804687 -0.0586,-0.527344 -0.0586,-1.101563 -0.11719,-1.6875 1.10157,-0.644531 2.21485,-1.160156 3.31641,-1.570313 1.05469,-0.351562 2.27344,-0.527343 3.5625,-0.527343 0.92578,0 1.80469,0.117187 2.67188,0.351562 0.8789,0.234375 1.6875,0.585938 2.39062,1.042969 0.64453,0.46875 1.21875,1.054687 1.6875,1.746094 0.41016,0.703125 0.64453,1.523437 0.64453,2.507812 0,0.234375 -0.0586,0.527344 -0.11719,0.9375 -0.0586,0.410156 -0.29296,0.867188 -0.52734,1.394531 -0.29297,0.527344 -0.69141,1.113282 -1.27734,1.746094 -0.52735,0.644531 -1.28907,1.289063 -2.21485,2.039063 0.76172,0.234375 1.51172,0.527343 2.15625,0.878906 0.69141,0.410156 1.33594,0.808594 1.80469,1.394531 0.52734,0.5273439 0.92578,1.1015626 1.21875,1.8046876 0.29297,0.6445313 0.46875,1.3945313 0.46875,2.2148438 0,1.6875 -0.41016,3.1992187 -1.10156,4.4882812 -0.76172,1.27734377 -1.69922,2.39062502 -2.85938,3.2578125 -1.16015,0.8789063 -2.44922,1.5117188 -3.96093,1.9804688 -1.45313,0.46875 -2.91797,0.6445312 -4.3711,0.6445312 -0.52734,0 -1.04297,0 -1.6289,-0.058594 -0.52735,-0.1171875 -1.04297,-0.234375 -1.45313,-0.4101563 -0.46875,-0.1757812 -0.87891,-0.46875 -1.17187,-0.7617187 -0.29297,-0.3398438 -0.39844,-0.75 -0.39844,-1.2773438 0,-0.5273437 0.16406,-0.92578123 0.51562,-1.33593748 0.41016,-0.3515625 0.87891,-0.64453125 1.40625,-0.703125 0.69141,0.76171875 1.51172,1.33593748 2.4961,1.74609378 0.99609,0.46875 2.03906,0.6445312 3.03515,0.6445312 0.92578,0 1.7461,-0.1757812 2.50782,-0.46875 0.6914,-0.3515625 1.33593,-0.74999998 1.86328,-1.33593748 0.45703,-0.5859375 0.86718,-1.2890625 1.10156,-2.03906252 0.29297,-0.8203125 0.41016,-1.6875 0.41016,-2.625 0,-0.984375 -0.11719,-1.8632812 -0.46875,-2.5664062 -0.29297,-0.75 -0.75,-1.3359375 -1.27735,-1.8046875 -0.58594,-0.515625 -1.23047,-0.8671875 -1.98047,-1.1015625 -0.82031,-0.2343746 -1.6875,-0.3515626 -2.625,-0.3515626 -0.41015,0 -0.8789,0 -1.33593,0.05859 -0.46875,0.05859 -0.9375,0.117188 -1.28907,0.2929686 l -0.23437,-1.2773436 c 0.8789,-0.234375 1.8164,-0.46875 2.80078,-0.761719 0.9375,-0.292968 1.74609,-0.703125 2.56641,-1.171875 0.75,-0.515625 1.33593,-1.101562 1.86328,-1.863281 0.46875,-0.75 0.70312,-1.6875 0.70312,-2.789062 0,-0.644532 -0.11719,-1.230469 -0.35156,-1.746094 -0.23438,-0.527344 -0.58594,-0.996094 -0.99609,-1.347656 -0.41016,-0.339844 -0.92579,-0.632813 -1.45313,-0.808594 -0.58594,-0.234375 -1.11328,-0.351563 -1.74609,-0.351563 -0.70313,0 -1.34766,0.117188 -1.98047,0.351563 -0.58594,0.234375 -1.05469,0.574219 -1.51172,0.984375 -0.41016,0.410156 -0.76172,0.9375 -1.05469,1.523437 -0.23437,0.574219 -0.41015,1.277344 -0.46875,1.980469 l -1.16015,-0.05859 z m 48.29003,3.269532 c -0.57421,0.05859 -1.04296,0.117187 -1.39453,0.234375 -0.35156,0.105468 -0.64453,0.222656 -0.8789,0.457031 -0.28125,0.175781 -0.51563,0.46875 -0.69141,0.820312 -0.23437,0.292969 -0.46875,0.75 -0.76172,1.335938 -0.41015,0.878906 -0.92578,1.863281 -1.39453,3.0351561 -0.52734,1.1601563 -1.05469,2.390625 -1.57031,3.6679688 -0.58594,1.2773437 -1.11328,2.625 -1.69922,3.9609375 -0.51563,1.39453122 -1.04297,2.74218747 -1.57031,4.078125 -0.35157,0.9257812 -0.75,1.8632812 -1.16016,2.8476562 -0.41016,0.9960938 -0.82031,1.921875 -1.28906,2.8007813 -0.39844,0.8789062 -0.86719,1.6289062 -1.33594,2.3320311 -0.46875,0.703125 -0.86719,1.21875 -1.33594,1.570313 -0.99609,0.820312 -1.92187,1.230468 -2.91797,1.230468 -0.46875,0 -0.86718,-0.175781 -1.27734,-0.46875 -0.35156,-0.292968 -0.52734,-0.703125 -0.52734,-1.289062 0,-0.398438 0.11718,-0.75 0.35156,-1.042969 0.23437,-0.3515624 0.52734,-0.5859374 0.92578,-0.8203124 0.17578,0.058594 0.35156,0.058594 0.52734,0.1171875 0.17579,0 0.35157,0.058594 0.52735,0.058594 0.41015,0 0.82031,-0.058594 1.21875,-0.234375 0.41015,-0.1171875 0.76172,-0.2929688 1.05469,-0.6328125 0.6914,-0.703125 1.33593,-1.6992188 1.98046,-3.0351563 0.64454,-1.2773437 1.33594,-2.7890625 1.98047,-4.546875 l 0.0586,-0.22265623 -0.0586,-0.41015625 c -0.41015,-0.99609375 -0.82031,-2.09765622 -1.23047,-3.21093752 -0.45703,-1.1601562 -0.86718,-2.3320312 -1.33593,-3.4335937 -0.46875,-1.1601563 -0.86719,-2.2734375 -1.33594,-3.3164063 -0.46875,-1.1132813 -0.87891,-2.0976563 -1.28906,-3.0351563 -0.22266,-0.585938 -0.45703,-1.042969 -0.63282,-1.335938 -0.23437,-0.351562 -0.46875,-0.644531 -0.70312,-0.820312 -0.23438,-0.175781 -0.58594,-0.351563 -0.92578,-0.410156 -0.35156,-0.04687 -0.76172,-0.105469 -1.34766,-0.164063 l 0.0586,-1.054687 c 0.64453,0 1.34765,0 2.09765,0.05859 0.82031,0 1.62891,0 2.44922,0 0.76172,0 1.45313,0 2.03906,0 0.64453,-0.05859 1.21875,-0.05859 1.7461,-0.05859 l 0.0586,0.9375 c -0.76172,0.117187 -1.27734,0.234375 -1.57031,0.339843 -0.29297,0.117188 -0.46875,0.351563 -0.46875,0.703125 0,0.117188 0.0586,0.351563 0.11719,0.527344 0.0586,0.234375 0.11718,0.46875 0.23437,0.75 l 3.78516,9.8554691 4.13672,-9.9140631 c 0.23437,-0.691406 0.35156,-1.042968 0.35156,-1.160156 0,-0.351562 -0.17578,-0.585937 -0.52735,-0.761719 -0.29296,-0.164062 -0.8789,-0.28125 -1.74609,-0.28125 l 0.0586,-0.996093 c 0.58594,0 1.16016,0 1.7461,0.05859 0.58594,0 1.27734,0 2.15625,0 0.64453,0 1.21875,0 1.74609,0 0.52735,-0.05859 0.9961,-0.05859 1.51172,-0.05859 z m 27.85254,-11.132813 c -1.86328,0.410156 -3.44531,1.054688 -4.83984,1.863281 -1.33594,0.761719 -2.50781,1.6875 -3.49219,2.800782 -0.99609,1.042968 -1.74609,2.273437 -2.33203,3.609375 -0.58594,1.335937 -0.99609,2.742187 -1.27734,4.253906 0.98437,-0.703125 1.98047,-1.160156 2.96484,-1.511719 1.05469,-0.351562 2.03906,-0.527344 3.03516,-0.527344 0.98437,0 1.92187,0.175782 2.78906,0.527344 0.87891,0.351563 1.6875,0.808594 2.33203,1.453125 0.70313,0.585938 1.21875,1.394531 1.62891,2.273438 0.35156,0.925781 0.58593,1.9804684 0.58593,3.1406246 0,1.2890625 -0.23437,2.5078125 -0.64453,3.609375 -0.46875,1.1132813 -1.04297,2.0390625 -1.80468,2.9179688 -0.75,0.8203125 -1.6875,1.45312497 -2.78907,1.92187497 -1.05468,0.46875 -2.21484,0.703125 -3.5039,0.703125 -1.45313,0 -2.67188,-0.29296875 -3.72657,-0.87890625 -1.04296,-0.52734375 -1.92187,-1.27734372 -2.625,-2.27343752 -0.6914,-0.9257812 -1.21875,-2.0390625 -1.51171,-3.2578125 -0.35157,-1.21875 -0.52735,-2.5078125 -0.52735,-3.9023437 0,-2.3320314 0.35156,-4.5468754 1.05469,-6.5859374 0.70312,-1.980469 1.74609,-3.785156 3.02344,-5.355469 1.34765,-1.570312 2.97656,-2.859375 4.83984,-3.902344 1.92188,-1.054687 4.01953,-1.804687 6.41016,-2.273437 z m -12,13.980469 c -0.0586,0.292969 -0.11718,0.585937 -0.11718,0.878906 0,0.351563 0,0.632813 0,0.984375 0,0.8789064 0.0586,1.8632814 0.23437,3.0351564 0.16406,1.1015625 0.45703,2.15625 0.86719,3.140625 0.41015,0.9960937 0.99609,1.8046875 1.74609,2.4492187 0.70313,0.703125 1.62891,0.98437502 2.80078,0.98437502 0.75,0 1.39453,-0.10546872 1.92188,-0.45703122 0.52734,-0.3515625 0.98437,-0.7617188 1.33594,-1.3476563 0.35156,-0.515625 0.58593,-1.21875 0.76171,-1.921875 0.17579,-0.75 0.29297,-1.5703125 0.29297,-2.4375 0,-0.9375 -0.11718,-1.7578125 -0.35156,-2.5664062 -0.17578,-0.7617184 -0.52734,-1.3945314 -0.99609,-1.9804684 -0.39844,-0.527344 -0.98438,-0.9375 -1.6875,-1.230469 -0.69141,-0.28125 -1.51172,-0.457031 -2.44922,-0.457031 -0.69141,0 -1.45313,0.05859 -2.26172,0.234375 -0.82031,0.164062 -1.52344,0.398437 -2.09766,0.691406 z m 31.3418,-13.980469 c -1.86328,0.410156 -3.44531,1.054688 -4.83984,1.863281 -1.33594,0.761719 -2.50782,1.6875 -3.49219,2.800782 -0.99609,1.042968 -1.74609,2.273437 -2.33203,3.609375 -0.58594,1.335937 -0.9961,2.742187 -1.27735,4.253906 0.98438,-0.703125 1.98047,-1.160156 2.96485,-1.511719 1.05469,-0.351562 2.03906,-0.527344 3.03515,-0.527344 0.98438,0 1.92188,0.175782 2.78907,0.527344 0.8789,0.351563 1.6875,0.808594 2.33203,1.453125 0.70312,0.585938 1.21875,1.394531 1.6289,2.273438 0.35157,0.925781 0.58594,1.9804684 0.58594,3.1406246 0,1.2890625 -0.23437,2.5078125 -0.64453,3.609375 -0.46875,1.1132813 -1.04297,2.0390625 -1.80469,2.9179688 -0.75,0.8203125 -1.6875,1.45312497 -2.78906,1.92187497 -1.05469,0.46875 -2.21484,0.703125 -3.50391,0.703125 -1.45312,0 -2.67187,-0.29296875 -3.72656,-0.87890625 -1.04297,-0.52734375 -1.92187,-1.27734372 -2.625,-2.27343752 -0.6914,-0.9257812 -1.21875,-2.0390625 -1.51172,-3.2578125 -0.35156,-1.21875 -0.52734,-2.5078125 -0.52734,-3.9023437 0,-2.3320314 0.35156,-4.5468754 1.05469,-6.5859374 0.70312,-1.980469 1.74609,-3.785156 3.02343,-5.355469 1.34766,-1.570312 2.97657,-2.859375 4.83985,-3.902344 1.92187,-1.054687 4.01953,-1.804687 6.41015,-2.273437 z m -12,13.980469 c -0.0586,0.292969 -0.11719,0.585937 -0.11719,0.878906 0,0.351563 0,0.632813 0,0.984375 0,0.8789064 0.0586,1.8632814 0.23438,3.0351564 0.16406,1.1015625 0.45703,2.15625 0.86719,3.140625 0.41015,0.9960937 0.99609,1.8046875 1.74609,2.4492187 0.70312,0.703125 1.62891,0.98437502 2.80078,0.98437502 0.75,0 1.39453,-0.10546872 1.92188,-0.45703122 0.52734,-0.3515625 0.98437,-0.7617188 1.33593,-1.3476563 0.35157,-0.515625 0.58594,-1.21875 0.76172,-1.921875 0.17578,-0.75 0.29297,-1.5703125 0.29297,-2.4375 0,-0.9375 -0.11719,-1.7578125 -0.35156,-2.5664062 -0.17578,-0.7617184 -0.52735,-1.3945314 -0.9961,-1.9804684 -0.39843,-0.527344 -0.98437,-0.9375 -1.6875,-1.230469 -0.6914,-0.28125 -1.51171,-0.457031 -2.44921,-0.457031 -0.69141,0 -1.45313,0.05859 -2.26172,0.234375 -0.82032,0.164062 -1.52344,0.398437 -2.09766,0.691406 z m 0,0"
         style="fill:#cfa64b;fill-opacity:1;fill-rule:nonzero;stroke:none"
         aria-label="Esquina 63 y 66"
         transform="matrix(0.35277776,0,0,0.35277776,70.192684,247.99458)"
         clip-path="url(#clipPath48)" />
    </g>
  </g>
</svg>
