<?xml version="1.0" encoding="UTF-8" standalone="no"?>
<!-- Created with Inkscape (http://www.inkscape.org/) -->

<svg
   width="210mm"
   height="297mm"
   viewBox="0 0 210 297"
   version="1.1"
   id="svg1"
   inkscape:version="1.4 (86a8ad7, 2024-10-11)"
   sodipodi:docname="Logo4.svg"
   xmlns:inkscape="http://www.inkscape.org/namespaces/inkscape"
   xmlns:sodipodi="http://sodipodi.sourceforge.net/DTD/sodipodi-0.dtd"
   xmlns="http://www.w3.org/2000/svg"
   xmlns:svg="http://www.w3.org/2000/svg">
  <sodipodi:namedview
     id="namedview1"
     pagecolor="#ffffff"
     bordercolor="#000000"
     borderopacity="0.25"
     inkscape:showpageshadow="2"
     inkscape:pageopacity="0.0"
     inkscape:pagecheckerboard="0"
     inkscape:deskcolor="#d1d1d1"
     inkscape:document-units="mm"
     inkscape:zoom="0.71891835"
     inkscape:cx="396.42889"
     inkscape:cy="561.25984"
     inkscape:window-width="1920"
     inkscape:window-height="1009"
     inkscape:window-x="-8"
     inkscape:window-y="-8"
     inkscape:window-maximized="1"
     inkscape:current-layer="layer1" />
  <defs
     id="defs1">
    <clipPath
       clipPathUnits="userSpaceOnUse"
       id="clipPath52">
      <path
         d="M -9,-9 H 1693 V 2393 H -9 Z"
         transform="translate(0,2.5e-5)"
         clip-rule="evenodd"
         id="path52" />
    </clipPath>
    <clipPath
       clipPathUnits="userSpaceOnUse"
       id="clipPath54">
      <path
         d="M -9,-9 H 1693 V 2393 H -9 Z"
         transform="translate(0,2.5e-5)"
         clip-rule="evenodd"
         id="path54" />
    </clipPath>
    <clipPath
       clipPathUnits="userSpaceOnUse"
       id="clipPath56">
      <path
         d="M -9,-9 H 1693 V 2393 H -9 Z"
         transform="translate(0,2.5e-5)"
         clip-rule="evenodd"
         id="path56" />
    </clipPath>
    <clipPath
       clipPathUnits="userSpaceOnUse"
       id="clipPath58">
      <path
         d="M -9,-9 H 1693 V 2393 H -9 Z"
         transform="translate(0,2.5e-5)"
         clip-rule="evenodd"
         id="path58" />
    </clipPath>
    <clipPath
       clipPathUnits="userSpaceOnUse"
       id="clipPath60">
      <path
         d="M -9,-9 H 1693 V 2393 H -9 Z"
         transform="translate(0,2.5e-5)"
         clip-rule="evenodd"
         id="path60" />
    </clipPath>
    <clipPath
       clipPathUnits="userSpaceOnUse"
       id="clipPath62">
      <path
         d="M -9,-9 H 1693 V 2393 H -9 Z"
         transform="translate(0,2.5e-5)"
         clip-rule="evenodd"
         id="path62" />
    </clipPath>
    <clipPath
       clipPathUnits="userSpaceOnUse"
       id="clipPath64">
      <path
         d="M -9,-9 H 1693 V 2393 H -9 Z"
         transform="matrix(1,0,0,-1,-1068.8958,1292.2311)"
         clip-rule="evenodd"
         id="path64" />
    </clipPath>
  </defs>
  <g
     inkscape:label="Capa 1"
     inkscape:groupmode="layer"
     id="layer1">
    <g
       id="g1"
       transform="matrix(0.85259771,0,0,0.85259771,-33.750444,-1.7855142)">
      <path
         id="path51"
         d="m 1019.3153,1568.8831 -11.6467,28.2991 -12.1575,-28.2991 z m -26.1538,-27.8906 h -18.7983 v 1.328 l 6.9472,3.2692 24.2127,56.5985 -1.7368,4.1888 h 9.6035 l 25.1322,-60.9917 7.3557,-2.9627 v -1.4301 h -25.03 v 1.4301 l 8.0709,2.9627 -8.2752,19.7175 h -26.6647 l -8.0708,-19.6151 7.2536,-2.9628 z m 99.4133,45.8713 c 0,2.1113 -0.068,3.8991 -0.2044,5.3635 -0.1361,1.4644 -0.3575,2.6903 -0.6639,3.6779 -0.3067,0.9876 -0.6982,1.8048 -1.1749,2.452 -0.4768,0.6469 -1.0216,1.243 -1.6348,1.7878 -2.4517,2.0432 -6.402,3.0648 -11.8508,3.0648 h -13.8943 v -30.3423 h 14.2007 c 5.5849,0 9.5182,1.1066 11.7998,3.3202 2.2819,2.2136 3.4226,5.7722 3.4226,10.6761 z m -14.8136,-17.3678 h -14.6095 v -23.2934 l 7.8667,-3.2692 v -1.9409 h -24.1106 v 1.8388 l 7.3556,3.3713 v 55.5771 l -7.3556,2.8605 v 1.6347 h 32.1814 c 4.3591,0 7.9688,-0.4087 10.8295,-1.226 2.8604,-0.8175 5.1591,-1.9751 6.8959,-3.4735 1.7367,-1.4984 2.9627,-3.3205 3.6779,-5.4658 0.7152,-2.1455 1.1409,-4.5805 1.277,-7.3049 0.1364,-3.746 -0.4768,-6.9811 -1.8388,-9.7052 -1.3624,-2.7244 -3.8824,-4.972 -7.5603,-6.7431 -1.5664,-0.7492 -3.3032,-1.362 -5.2104,-1.8388 l 14.5075,-24.315 7.3556,-3.4733 v -1.7368 h -14.2007 z m 77.4479,17.3678 c 0,2.1113 -0.068,3.8991 -0.2044,5.3635 -0.136,1.4644 -0.3574,2.6903 -0.6638,3.6779 -0.3068,0.9876 -0.6982,1.8048 -1.175,2.452 -0.4768,0.6469 -1.0216,1.243 -1.6348,1.7878 -2.4516,2.0432 -6.402,3.0648 -11.8508,3.0648 h -13.8943 v -30.3423 h 14.2008 c 5.5848,0 9.5181,1.1066 11.7998,3.3202 2.2818,2.2136 3.4225,5.7722 3.4225,10.6761 z m -14.8136,-17.3678 h -14.6095 v -23.2934 l 7.8668,-3.2692 v -1.9409 h -24.1107 v 1.8388 l 7.3556,3.3713 v 55.5771 l -7.3556,2.8605 v 1.6347 h 32.1815 c 4.3591,0 7.9687,-0.4087 10.8294,-1.226 2.8605,-0.8175 5.1591,-1.9751 6.8959,-3.4735 1.7368,-1.4984 2.9628,-3.3205 3.6779,-5.4658 0.7152,-2.1455 1.141,-4.5805 1.277,-7.3049 0.1364,-3.746 -0.4767,-6.9811 -1.8388,-9.7052 -1.3623,-2.7244 -3.8823,-4.972 -7.5603,-6.7431 -1.5664,-0.7492 -3.3032,-1.362 -5.2103,-1.8388 l 14.5074,-24.315 7.3556,-3.4733 v -1.7368 h -14.2007 z m 49.966,-23.8043 6.6408,-3.3712 v -1.328 l -21.5567,0.102 v 1.124 l 6.7428,3.5756 v 55.9856 l -6.8448,3.1669 v 1.4304 h 21.6587 v -1.4304 l -6.6408,-3.1669 z m 60.6932,59.2549 v 1.4304 h 16.8571 v -1.4304 l -6.232,-2.8604 -23.8042,-60.9917 h -4.3929 l -25.9494,60.9917 -6.4364,2.8604 v 1.4304 h 22.8847 v -1.4304 l -7.2539,-2.8604 21.0458,-50.2645 19.6155,50.3665 z m 21.5649,-63.9541 v 1.6344 l 6.1296,3.1672 v 55.5769 l -6.1296,3.6779 v 1.3281 h 49.6513 l 2.1456,-13.0768 h -1.9412 l -6.232,9.6032 c -18.7982,0 -28.197,-0.034 -28.197,-0.102 v -26.2562 h 23.7019 l -2.9628,-3.78 h -20.7391 v -28.1971 h 28.197 l 6.1297,9.2968 h 2.0435 l -2.1456,-12.7704 z m 109.0167,33.5095 c 0,5.1083 -0.6301,9.4161 -1.8901,12.9237 -1.26,3.5076 -3.0478,6.3853 -5.3634,8.6329 -1.158,1.1577 -2.3499,2.1793 -3.5759,3.0648 -1.226,0.8853 -2.6051,1.6345 -4.1375,2.2476 -1.5327,0.6128 -3.2525,1.0896 -5.1593,1.4304 -1.9072,0.3404 -4.0867,0.5108 -6.5384,0.5108 h -8.4796 v -58.6421 h 13.2812 c 7.7644,0 13.3492,2.435 16.7547,7.3049 3.4056,4.8697 5.1083,12.3786 5.1083,22.527 z m -23.8042,31.875 c 5.1083,0 9.7226,-0.5789 13.8433,-1.7368 4.1204,-1.158 7.628,-3.0138 10.5228,-5.5678 2.8944,-2.5543 5.142,-5.8575 6.7427,-9.9099 1.6005,-4.0525 2.401,-9.0074 2.401,-14.8649 0,-10.7612 -2.6053,-18.9853 -7.8157,-24.6725 -5.2104,-5.6871 -13.1278,-8.5306 -23.7529,-8.5306 -2.8607,0 -5.8745,0.034 -9.0414,0.1021 -3.1671,0.068 -6.0449,0.1023 -8.6329,0.1023 h -12.4639 v 1.5324 l 7.9687,3.2692 v 55.5769 l -7.9687,2.9628 v 1.7368 z m 38.4219,-65.3845 v 1.6344 l 6.1297,3.1672 v 55.5769 l -6.1297,3.6779 v 1.3281 h 49.6514 l 2.1456,-13.0768 h -1.9412 l -6.232,9.6032 c -18.7982,0 -28.197,-0.034 -28.197,-0.102 v -26.2562 h 23.7018 l -2.9627,-3.78 h -20.7391 v -28.1971 h 28.197 l 6.1297,9.2968 h 2.0435 l -2.1456,-12.7704 z m 100.4349,45.8713 c 0,2.1113 -0.068,3.8991 -0.2043,5.3635 -0.1361,1.4644 -0.3575,2.6903 -0.6639,3.6779 -0.3067,0.9876 -0.6982,1.8048 -1.175,2.452 -0.4768,0.6469 -1.0216,1.243 -1.6347,1.7878 -2.4517,2.0432 -6.4021,3.0648 -11.8508,3.0648 h -13.8943 v -30.3423 h 14.2007 c 5.5848,0 9.5182,1.1066 11.7998,3.3202 2.2819,2.2136 3.4225,5.7722 3.4225,10.6761 z m -14.8135,-17.3678 h -14.6095 v -23.2934 l 7.8667,-3.2692 v -1.9409 h -24.1106 v 1.8388 l 7.3556,3.3713 v 55.5771 l -7.3556,2.8605 v 1.6347 h 32.1814 c 4.3591,0 7.9688,-0.4087 10.8295,-1.226 2.8604,-0.8175 5.159,-1.9751 6.8958,-3.4735 1.7368,-1.4984 2.9628,-3.3205 3.678,-5.4658 0.7152,-2.1455 1.1409,-4.5805 1.277,-7.3049 0.1363,-3.746 -0.4768,-6.9811 -1.8388,-9.7052 -1.3624,-2.7244 -3.8824,-4.972 -7.5603,-6.7431 -1.5665,-0.7492 -3.3032,-1.362 -5.2104,-1.8388 l 14.5074,-24.315 7.3557,-3.4733 v -1.7368 h -14.2008 z m 43.5296,3.2692 c 0,-4.6996 0.5279,-9.0414 1.5835,-13.0258 1.0559,-3.9844 2.6053,-7.2025 4.6485,-9.6545 1.9752,-2.3837 4.4101,-4.1205 7.3046,-5.2104 2.8947,-1.0896 6.215,-1.6344 9.961,-1.6344 4.9719,0 9.263,0.4425 12.8726,1.328 l 6.232,10.2163 h 1.9412 l -2.1456,-13.077 c -0.2043,-0.068 -1.1066,-0.2554 -2.7073,-0.5619 -1.6005,-0.3064 -3.2862,-0.5618 -5.057,-0.7662 -1.7028,-0.2043 -3.4906,-0.3744 -5.3635,-0.5108 -1.8731,-0.136 -3.9333,-0.2043 -6.1809,-0.2043 -5.3127,0 -9.995,0.6641 -14.0477,1.9921 -4.0524,1.3284 -7.4749,3.4566 -10.2673,6.3854 -2.7925,2.8604 -4.904,6.4873 -6.3341,10.8805 -1.4303,4.3928 -2.1455,9.0414 -2.1455,13.9453 0,11.9188 2.8264,20.7051 8.4796,26.3579 5.6531,5.6532 13.7579,8.4796 24.315,8.4796 2.2476,0 4.1887,-0.068 5.8232,-0.2044 1.6347,-0.136 3.1331,-0.3064 4.4952,-0.5108 0.6811,-0.136 1.4133,-0.2724 2.1965,-0.4084 0.7833,-0.1364 1.5324,-0.2725 2.2476,-0.4088 0.7152,-0.1361 1.3111,-0.2554 1.7878,-0.3575 0.4768,-0.1023 0.7833,-0.1533 0.9196,-0.1533 l 2.1453,-13.0768 h -1.9409 l -6.232,10.2164 c -3.6099,0.8852 -7.2879,1.328 -11.0338,1.328 -3.6777,0 -6.9642,-0.5278 -9.8587,-1.5834 -2.8947,-1.056 -5.3637,-2.7927 -7.4069,-5.2104 -2.0432,-2.418 -3.5926,-5.6191 -4.6485,-9.6035 -1.0556,-3.9844 -1.5835,-8.9053 -1.5835,-14.7626 z m 65.393,-27.0735 6.6408,-3.3712 v -1.328 l -21.5567,0.102 v 1.124 l 6.7428,3.5756 v 55.9856 l -6.8448,3.1669 v 1.4304 h 21.6587 v -1.4304 l -6.6408,-3.1669 z"
         style="fill:#1c1f2d;fill-opacity:1;fill-rule:nonzero;stroke:none"
         transform="matrix(0.35277776,0,0,-0.35277776,-291.0816,711.63009)"
         clip-path="url(#clipPath52)" />
      <path
         id="path53"
         d="m 1225.5143,1478.9537 h -3.2383 c -0.9817,-1.8354 -2.3624,-3.3092 -4.1431,-4.4215 -1.7805,-1.1123 -3.7361,-1.6685 -5.8672,-1.6685 -3.1334,0 -5.8184,1.154 -8.0544,3.4623 -2.173,2.2453 -3.2595,4.9428 -3.2595,8.092 0,3.1771 1.0865,5.8885 3.2595,8.1341 1.0233,1.0567 2.2221,1.8978 3.5961,2.5234 1.3739,0.6259 2.7198,0.9385 4.0376,0.9385 1.3181,0 2.4744,-0.146 3.4699,-0.4379 3.0631,-0.8969 5.3694,-2.753 6.9185,-5.5687 h 3.2389 c -1.0797,2.6975 -2.8179,4.8736 -5.2154,6.5282 -2.3973,1.6546 -5.061,2.4817 -7.9912,2.4817 -3.9606,0 -7.3395,-1.4459 -10.1361,-4.3381 -1.2901,-1.3346 -2.2995,-2.8851 -3.0283,-4.6508 -0.729,-1.7657 -1.0936,-3.636 -1.0936,-5.6104 0,-3.9696 1.374,-7.376 4.1219,-10.2194 2.7966,-2.8922 6.1755,-4.3452 10.1361,-4.3452 2.916,0 5.5939,0.8484 8.0331,2.5307 2.4185,1.6685 4.157,3.8583 5.2155,6.5696 z m 7.234,1.7521 5.2154,13.0558 5.1943,-13.0558 z m 17.7488,-10.4352 -12.5334,30.3319 -12.5756,-30.3319 h 3.1964 l 3.0844,7.7239 h 12.5617 l 3.0702,-7.7239 z m 20.5671,25.6601 v 2.7113 h -16.992 v -28.3714 h 2.9443 v 12.8126 h 13.627 v 2.753 h -13.627 v 10.0945 z m 20.9874,-25.6601 v 2.7182 h -14.0476 v 10.0944 h 13.627 v 2.753 h -13.627 v 10.0945 h 14.0476 v 2.7113 h -16.992 v -28.3714 z m -2.4814,37.256 h -3.617 l -3.3648,-5.9646 h 2.3553 z m 38.8204,-29.3445 c 0,2.016 -0.4906,3.6984 -1.472,5.0471 -0.9813,1.3487 -2.3133,2.2456 -3.9957,2.6906 1.0023,0.438 1.8227,1.2025 2.4608,2.2941 0.2942,0.5006 0.5184,1.0219 0.6726,1.5642 0.1545,0.5422 0.2313,1.2861 0.2313,2.2317 0,0.9453 -0.2245,1.8771 -0.6729,2.7947 -1.2478,2.5582 -3.9674,3.8375 -8.1596,3.8375 h -7.7388 v -28.3714 h 8.7483 c 2.9163,0 5.2435,0.6673 6.9817,1.9882 0.8974,0.6815 1.6123,1.5503 2.1453,2.6071 0.5326,1.0567 0.799,2.1622 0.799,3.3162 z m -5.047,13.3688 c 0,-1.5296 -0.4627,-2.6697 -1.3879,-3.4203 -0.9255,-0.7509 -2.145,-1.1265 -3.6592,-1.1265 h -5.6359 v 8.8432 h 4.7945 c 3.9258,0 5.8885,-1.4323 5.8885,-4.2964 z m 2.1027,-12.8058 c 0,-1.6892 -0.5814,-3.0657 -1.7453,-4.1295 -1.1217,-1.0287 -2.5863,-1.5432 -4.3951,-1.5432 h -6.6453 v 11.012 h 7.1079 c 1.5072,0 2.8179,-0.4935 3.9325,-1.4808 0.5187,-0.4589 0.9394,-1.008 1.2617,-1.6478 0.3226,-0.6395 0.4836,-1.3765 0.4836,-2.2107 z m 11.5665,1.9607 5.2152,13.0558 5.1942,-13.0558 z m 17.7488,-10.4352 -12.5336,30.3319 -12.5754,-30.3319 h 3.1964 l 3.0841,7.7239 h 12.562 l 3.0702,-7.7239 z m 6.5192,14.0224 v 11.5543 h 6.6455 c 1.7382,0 3.1263,-0.5354 4.1638,-1.6061 1.0375,-1.0706 1.5562,-2.4332 1.5562,-4.0878 0,-1.6475 -0.5468,-3.045 -1.6404,-4.1919 -1.0655,-1.1123 -2.4253,-1.6685 -4.0796,-1.6685 z m 15.3096,5.798 c 0,2.454 -0.8901,4.5048 -2.6708,6.1526 -1.7314,1.5988 -3.8696,2.3984 -6.414,2.3984 h -9.1689 v -28.3714 h 2.9441 v 11.2275 h 3.4347 l 8.384,-11.2275 h 3.9535 l -8.8044,11.2485 c 2.2224,0.1459 4.1151,0.9385 5.671,2.3777 1.7807,1.6475 2.6708,3.7122 2.6708,6.1942"
         style="fill:#1c1f2d;fill-opacity:1;fill-rule:nonzero;stroke:none"
         transform="matrix(0.35277776,0,0,-0.35277776,-291.0816,711.63009)"
         clip-path="url(#clipPath54)" />
      <path
         id="path55"
         d="m 1098.0088,1473.2847 c -2.2184,0 -4.017,1.4131 -4.017,3.1564 0,1.7433 1.7986,3.1563 4.017,3.1563 h 56.6164 c 2.2184,0 4.0169,-1.413 4.0169,-3.1563 0,-1.7433 -1.7985,-3.1564 -4.0169,-3.1564 z"
         style="fill:#1c1f2d;fill-opacity:1;fill-rule:nonzero;stroke:none"
         transform="matrix(0.35277776,0,0,-0.35277776,-291.0816,711.63009)"
         clip-path="url(#clipPath56)" />
      <path
         id="path57"
         d="m 1417.1769,1473.2847 c -2.2184,0 -4.017,1.4131 -4.017,3.1564 0,1.7433 1.7986,3.1563 4.017,3.1563 h 56.6163 c 2.2184,0 4.017,-1.413 4.017,-3.1563 0,-1.7433 -1.7986,-3.1564 -4.017,-3.1564 z"
         style="fill:#1c1f2d;fill-opacity:1;fill-rule:nonzero;stroke:none"
         transform="matrix(0.35277776,0,0,-0.35277776,-291.0816,711.63009)"
         clip-path="url(#clipPath58)" />
      <path
         id="path59"
         d="m 978.726,1666.4049 c -2.3828,0 -4.3149,1.5196 -4.3149,3.3939 0,1.8742 1.9321,3.3939 4.3149,3.3939 205.1445,0 410.2898,0 615.4342,0 2.3828,0 4.3149,-1.5197 4.3149,-3.3939 0,-1.8743 -1.9321,-3.3939 -4.3149,-3.3939 -205.1444,0 -410.2897,0 -615.4342,0"
         style="fill:#1c1f2d;fill-opacity:1;fill-rule:nonzero;stroke:none"
         transform="matrix(0.35277776,0,0,-0.35277776,-291.0816,711.63009)"
         clip-path="url(#clipPath60)" />
      <path
         id="path61"
         d="m 1171.6877,1697.6993 h 7.4166 l -0.3274,1.2252 v 0.1621 h -0.9972 v 1.1461 c 2.0854,0 3.6295,1.3705 4.7843,3.1637 1.2005,-2.0081 2.8446,-3.1637 5.0474,-3.1637 v -1.1461 h -1.1228 v -1.3873 h 7.2147 v -2.5333 h -22.0156 z m 247.777,-7.8341 h 3.3296 v -1.0125 h -3.3296 z m 14.5664,0 h 3.3293 v -1.0125 h -3.3293 z m -113.3212,5.4632 h 0.9059 v 1.5954 h -0.9059 v 2.1713 h 0.9059 v 5.3178 h -0.9059 v 2.1714 h 43.7828 v -2.1714 h -1.0111 v -5.3178 h 1.0111 v -2.1713 h -1.0111 v -1.5954 h 1.0111 v -2.1713 h -1.0111 v -7.3131 h 1.0111 v -2.1716 h -1.0111 v -5.5403 h 2.2975 v 17.9934 h -1.4038 l 15.0628,10.6251 15.0622,-10.6251 h -1.2575 v -17.9934 h 5.4485 v 2.9284 c 0.3058,0 0.612,0 0.9181,0 0,0.4972 0,0.9944 0,1.4922 0.6517,0.6534 1.4723,1.2056 2.6626,1.5372 -0.047,0.1758 -0.094,0.3515 -0.1412,0.5275 0,0.957 0,1.914 0,2.871 0.3368,0.6049 0.8357,1.1021 1.4962,1.4924 0.2678,9.1829 0.5354,18.3657 0.8036,27.5488 0.035,1.0704 1.8757,1.0621 1.9514,0 0.191,-9.1831 0.3823,-18.3659 0.5737,-27.5488 0.5865,-0.4215 1.2396,-0.8424 1.396,-1.2628 0,-1.033 0,-2.0662 0,-3.0991 0.3445,-0.2296 0.326,-0.4592 0.6702,-0.6889 0,-0.2678 0,-0.5357 0,-0.8033 0.4592,0 0.9184,0 1.3776,0 0,1.4536 0,2.9078 0,4.3617 -0.3064,0 -0.6126,0 -0.9184,0 0.053,0.1976 -0.015,0.3951 0.038,0.5927 1.1746,1.5214 2.7136,2.7984 4.6683,3.5396 1.6682,-0.6157 3.0439,-1.4746 4.1324,-2.8695 0.2296,0 0.4589,0 0.6885,0 0,1.1092 0,2.2187 0,3.3285 0.024,0.6661 0.47,1.404 1.3414,2.2115 0.2622,0.7073 0.496,1.4945 0.5641,2.3508 0.073,-0.9198 0.3356,-1.7603 0.621,-2.5069 0.5769,-0.5562 0.9981,-1.1651 1.2615,-1.8256 0.3432,1.2805 0.6862,2.5614 1.0295,3.8421 0.4391,1.7822 1.4587,3.1935 3.2791,4.0955 0.6129,1.7306 1.2016,3.7021 1.357,5.8728 0.1573,-2.1968 0.7571,-4.1896 1.3776,-5.9351 1.7444,-0.904 2.7295,-2.2913 3.1586,-4.0332 0.3433,-1.2807 0.6863,-2.5616 1.0296,-3.8421 0.2613,0.6551 0.676,1.26 1.2461,1.8122 0.2874,0.7498 0.5545,1.5948 0.6276,2.5203 0.068,-0.8515 0.2976,-1.6344 0.5581,-2.3383 0.8796,-0.8127 1.332,-1.5545 1.3561,-2.224 0,-1.1098 0,-2.2193 0,-3.3285 0.2296,0 0.4592,0 0.6888,0 1.0883,1.3949 2.4639,2.2538 4.1324,2.8695 1.9545,-0.7412 3.4937,-2.0182 4.6684,-3.5396 0.053,-0.1976 -0.015,-0.3951 0.038,-0.5927 -0.3059,0 -0.612,0 -0.9182,0 0,-1.4539 0,-4.8172 0,-6.2711 0.459,0 0.9182,0 1.3774,0 0,0.2679 0,1.8958 0,2.1637 0.1406,0.3832 0.2035,0.5513 0.6701,0.6888 0,7.5642 0.271,15.6892 0.4311,23.3938 0.076,1.0624 0.9207,1.0703 0.9559,0 0.2302,-7.8917 0.6667,-15.8871 0.6667,-23.2835 0.824,-0.2007 0.3512,-0.6563 0.811,-0.8805 0.027,-0.5428 -0.013,-1.0845 0,-1.7047 0,-0.4975 0.8456,-0.3821 1.8329,-0.3915 0.3061,0 0.7857,-0.2752 0.7993,-0.5805 0,-1.2246 0,-2.4492 0,-3.6732 0.076,-1.4938 0.1531,-2.988 0.2297,-4.4821 l -9.9102,0.1684 v 6.5775 h -2.8585 v -6.5291 l -13.0144,0.2209 h -27.9939 -1.9564 -5.2189 -1.8309 -1.8312 -1.8309 -1.8306 -1.8309 -1.8312 -1.8306 -1.8312 -1.8309 -1.8311 -1.8307 -1.8309 -1.8308 -1.8309 -1.8309 -2.2975 -0.919 -3.8764 v 8.5997 c -1.8669,2.0486 -3.6879,2.3196 -5.4434,0 v -8.5997 h -4.9484 v 15.2039 c -3.6213,3.4058 -7.1527,3.8557 -10.5565,0 v -15.2039 h -4.9485 v 8.5997 c -1.8671,2.0486 -3.6881,2.3196 -5.4433,0 v -8.5997 h -95.4522 -0.4972 -26.0096 -0.4909 -18.9836 v 12.7944 c -2.0574,1.2473 -4.0848,1.3275 -6.0747,0 v -12.7944 h -40.5774 v 4.9898 h 3.9138 v 0.9048 h -3.9138 -1.5054 -3.2111 -1.5055 -3.7131 v -0.9048 h 3.7131 v -4.9898 h -14.3952 c 0.3019,13.9541 0.6038,27.9082 0.9057,41.8626 0.2679,0.5204 0.606,0.7789 1.0587,1.0805 -0.034,0.4697 0.031,0.9655 0,1.4352 -0.5559,0.3345 -0.4326,0.6701 0,1.006 0,0.5701 0,1.1404 0,1.711 0.3016,0.495 0.6035,0.495 0.9056,0 0,-0.5703 0,-1.1406 0,-1.7107 0.3558,-0.3019 0.5758,-0.7231 -0.017,-1.0241 0,-0.5032 0.017,-0.8878 0.017,-1.391 0.4201,-0.3189 0.8229,-0.6032 1.0571,-1.0063 0.3356,-9.5936 0.6709,-19.1871 1.0063,-28.7804 0.6038,0 1.2075,0 1.8113,0 -0.033,1.0732 -0.019,2.3261 -0.052,3.3996 -0.2013,0.1675 -0.4025,0.3353 -0.6038,0.5031 0.8385,0.6038 1.6291,1.0281 2.4676,1.6319 0.9056,-0.5031 1.8113,-1.0063 2.717,-1.5094 -0.2348,-0.2013 -0.4695,-0.4026 -0.7045,-0.6038 0,-2.4151 0,-4.8303 0,-7.2454 4.8975,0 9.7949,0 14.6923,0 0,1.5764 0,3.153 0,4.7296 0.9558,1.7442 2.3306,3.4878 4.629,5.2328 0,1.1069 0,2.2138 0,3.3208 0.6372,0 1.2747,0 1.9119,0 0,-1.1741 0,-2.348 0,-3.5221 2.0798,-1.4088 3.6227,-3.0861 4.629,-5.0315 0,-1.9457 0,-3.8911 0,-5.8368 0.4025,0 0.8051,0 1.2076,0 0.235,-0.3019 0.6979,-0.2894 0.9329,-0.5913 0.3631,-0.076 0.1672,-3.181 0.2194,-3.9572 0.2531,0 0.5065,0 0.7596,0 v 9.4505 h -0.7985 v 0.7721 h 13.1491 v 0.796 h -12.3506 v 1.9902 h -0.7985 v 0.7588 h 47.4752 l -0.054,0.8093 h -46.6223 v 2.4123 h -0.7985 v 0.8799 h 47.1518 c -0.2228,2.3797 -0.5065,4.754 -0.8532,7.1016 -0.6664,4.5122 -5.0006,28.8406 -4.5519,30.9957 l 2.2246,0.9168 c 0.1367,1.3512 -0.019,2.8187 -0.729,4.517 -0.3714,0.8889 -0.9757,0.2554 -1.3476,1.1443 -0.5828,1.3952 2.6209,3.0637 4.2361,3.7287 3.9223,1.6158 13.0223,3.5025 14.2781,0.4972 l 0.1015,-0.2418 c 0.269,-0.6449 -1.9185,-3.0362 -0.6991,-5.9547 0.4808,-1.1489 3.0765,0.2653 3.7299,-1.2974 l 0.2922,-0.7277 10.0454,-44.4356 -0.1837,25.821 c 2.045,4.8853 10.7496,8.6953 21.3189,12.2046 1.8022,-5.3042 3.6045,-10.6081 5.407,-15.912 0.5661,-0.2063 1.1328,-0.4121 1.6994,-0.6179 1.2872,-2.9353 2.5744,-5.8706 3.8619,-8.8059 0.3606,0 0.7209,0 1.0814,0 0.1545,-0.4118 0.309,-0.824 0.4635,-1.2359 5.4584,0 10.9168,0 16.3755,0 0,0.9785 0,1.9568 0,2.9353 19.6979,-0.5984 34.1059,-2.1929 39.0846,-5.5613 v -13.7055 h 1.2359 v 7.3131 h -0.9059 v 2.1713 z m -115.6584,-8.4974 -0.033,0.796 h -11.0228 v -0.796 h 11.0562 z m 26.3132,-9.199 -0.01,1.2178 -1.0902,5.2571 c -0.012,0.061 -0.3583,0.582 -0.5142,0.8839 l -0.9241,-0.3915 0.7336,-7.3726 1.8043,0.4053 z m -21.4294,56.8395 c -0.078,0.3144 -0.803,0.3739 -1.0442,0.4195 -0.9531,-1.3994 0.3429,-6.3677 1.2554,-8.5504 l 1.7303,0.7126 z m -5.5836,-2.5835 c -0.2702,0.6466 -0.6557,0.5683 -1.1452,0.6619 -0.6325,-1.3499 0.1604,-5.4581 1.1769,-7.1853 0.3376,-0.5731 0.8688,-0.094 1.5103,0.05 -0.4887,1.5279 -0.826,4.7608 -1.3399,5.9902 l -0.2021,0.4833 z m -3.8645,-0.4584 c -0.8575,-0.3534 0.3288,-6.3317 0.8521,-7.5832 0.8039,0.3104 1.2495,0.826 1.457,1.4482 0.5298,1.5888 -0.4955,3.8747 -1.0624,5.2319 l -0.2019,0.4833 c -0.233,0.557 -0.4751,0.6543 -1.0448,0.4198 z m 6.4822,1.8204 c -0.2327,0.5568 -0.475,0.654 -1.0448,0.4196 -0.9964,-0.4108 0.6965,-6.5189 1.3011,-7.9651 1.832,0.7084 2.0205,-0.129 1.2385,2.5194 -0.4629,1.5667 -0.457,2.5427 -0.9893,3.8172 z m 6.5382,0.9927 c -0.2727,0.6531 -0.3963,0.618 -0.7524,1.107 l -0.9884,-0.4074 1.6087,-7.804 1.7679,0.4246 c -0.6485,1.6512 -0.8526,4.8061 -1.4337,6.196 z m 3.1677,0.7382 c -0.094,0.3424 -0.563,0.3345 -0.9428,0.1783 -0.7861,-0.3232 0.6273,-6.3553 1.0984,-7.4818 l 1.8238,0.5023 z m 3.3256,-0.3305 c -0.2327,0.557 -0.4754,0.6542 -1.0446,0.4195 -0.9799,-0.4031 0.4405,-5.9074 0.8963,-6.9976 l 1.8241,0.5023 -1.2798,5.3728 z m -17.8226,-12.6641 c -1.0831,-1.3218 -0.5198,-4.3313 0.2138,-6.2067 l 1.836,0.4481 -1.0049,5.3385 z m 2.5869,1.2725 c -0.7786,-1.1282 -0.079,-4.5417 0.5933,-6.2575 l 1.836,0.4481 c -0.6794,1.7462 -0.4674,3.2094 -1.2841,5.1634 l -0.3019,0.6723 -0.8433,-0.026 z m 7.3245,1.8986 c -0.233,0.5567 -0.4751,0.6548 -1.0449,0.4201 -1.2895,-0.5312 0.2835,-5.5298 0.8966,-6.9984 l 1.2359,0.5096 c 1.1466,0.4723 -0.5539,4.7911 -1.0876,6.0687 z m -2.9659,-1.2214 c -0.2327,0.5573 -0.4754,0.6545 -1.0446,0.4201 -1.0332,-0.4258 0.1868,-5.2183 0.6945,-6.5149 l 1.8357,0.4479 -1.2509,5.4368 z m 11.1313,-3.0654 c -0.2117,1.2929 -0.7897,5.9085 -2.4701,5.2163 -0.9277,-0.3821 0.2699,-4.8039 0.7399,-5.9295 z m -4.795,4.5422 c -0.3362,0.8034 -0.7399,0.5247 -1.5395,0.216 0.1579,-0.9612 0.4192,-6.6288 1.9306,-6.0055 l 0.9888,0.4071 c -0.5361,1.667 -0.3983,3.0319 -1.1781,4.8985 z m 6.5936,0.1653 c -0.2324,0.5573 -0.4745,0.6548 -1.0443,0.4198 -1.1999,-0.4941 0.066,-4.2415 0.5378,-5.4456 l 1.8354,0.4481 c -0.7424,1.7878 -0.2509,1.9984 -0.8237,3.369 z m -17.2706,-17.5984 c 1.4777,0.6089 0.8484,0.03 0.496,2.4157 -0.091,0.6146 -0.2083,2.4409 -0.4385,2.992 -0.25,0.599 -1.0871,0.3847 -1.7861,0.1142 l 0.8255,-5.8535 z m 4.8441,8.5122 c -0.9666,-0.3974 0.3164,-5.5318 0.7954,-6.7558 2.3885,0.9839 2.0883,-0.3302 1.3468,2.4755 -0.2047,0.775 -0.4278,2.9506 -0.6486,3.4792 -0.2361,0.5655 -0.8269,1.0763 -1.4936,0.8011 z m -2.2697,-1.5012 c -0.081,0.3433 -0.5703,0.3322 -0.9442,0.178 -1.1727,-0.4827 0.086,-4.7659 0.4932,-6.031 l 1.8357,0.4484 z m 5.2353,2.7232 c -1.0454,-0.43 0.3838,-5.6868 0.8963,-6.9979 2.3891,0.9839 2.0892,-0.3299 1.3471,2.4761 -0.2713,1.0281 -0.3694,2.8105 -0.7492,3.7202 -0.2362,0.5658 -0.8269,1.0766 -1.4942,0.8016 z m 3.3701,0.2551 c -0.8779,-0.3614 0.438,-5.2072 0.942,-6.4128 l 0.7412,0.3056 c 1.1373,0.468 1.2036,0.2877 0.4281,2.4429 -0.485,1.3482 -0.5219,1.9409 -1.1676,3.4863 -0.1415,0.3385 -0.5392,0.3447 -0.9437,0.178 z m 3.7188,0.1148 c -1.1599,-0.4779 0.094,-4.3843 0.6384,-5.6874 l 0.7418,0.3053 c 1.5279,0.6293 0.9425,-0.2537 0.4158,2.0449 -0.2602,1.1353 -0.2452,1.7053 -0.7517,2.9171 -0.233,0.5576 -0.4751,0.6549 -1.0443,0.4201 z m 2.8757,0.051 c -0.8991,-0.371 0.3683,-4.3483 0.8856,-5.5862 l 0.7415,0.3059 c 1.5137,0.6233 0.9244,-0.1403 0.3824,2.2595 -0.265,1.1755 -0.3308,1.7764 -0.8189,2.9446 -0.2832,0.1097 -0.7903,0.2407 -1.1906,0.076 z m -14.1482,-17.4455 c 1.8697,0.7226 2.1325,-0.2103 1.5823,2.1793 -0.2897,1.2563 -0.4558,2.5154 -0.783,3.5337 -0.3741,0.2967 -0.6746,0.572 -1.2917,0.3177 -0.9706,-0.3997 0.1295,-4.9031 0.4924,-6.0307 z m -2.6158,4.873 c -2.0691,-0.9056 -1.0769,-4.3577 -0.2495,-6.3365 l 1.7306,0.712 c -0.4179,1.3003 -0.4374,3.8186 -0.83,4.7588 -0.214,0.5111 -0.222,0.2827 -0.6511,0.8657 z m 5.3367,2.4806 c -0.7945,-0.3268 0.3972,-5.7393 0.7952,-6.7558 l 0.9887,0.4077 c 1.3867,0.5711 0.9867,0.403 0.3625,2.6696 -0.3285,1.1991 -0.2497,1.9131 -0.8552,3.3613 -0.123,0.2943 -0.8141,0.5145 -1.2912,0.3172 z m 4.3586,0.6628 c -0.1568,0.6403 -0.7379,0.5834 -1.1458,0.6613 -1.0743,-1.5786 -0.06,-4.8932 0.6497,-7.0999 l 2.0795,0.5669 z m 2.2246,0.9008 c -0.8648,-1.2549 0.093,-4.6287 0.6945,-6.4998 2.0619,0.8498 2.0945,-0.2373 1.5165,2.2068 -0.3169,1.3405 -0.3838,2.0148 -0.9649,3.4047 l -0.4025,0.9147 -0.8436,-0.026 z m 4.6616,-0.048 c -0.1386,0.3323 -0.7571,0.3654 -1.0446,0.4199 l -0.6304,-1.158 1.105,-4.877 c 2.0797,0.8532 2.1129,-0.2341 1.5346,2.2107 -0.3169,1.3403 -0.3838,2.0141 -0.9646,3.4044 z m 3.2238,-0.089 c -0.084,0.3158 -0.7988,0.3731 -1.0442,0.4201 -0.9658,-1.4187 -0.2628,-3.532 0.6383,-5.6877 l 1.7306,0.7126 z m -11.4273,-10.091 c -0.2364,0.5663 -0.8144,0.7979 -1.3926,0.5595 -1.1767,-0.4844 0.1255,-5.1525 0.6945,-6.5146 l 1.836,0.4488 c -0.1656,1.0054 -0.7892,4.6723 -1.1379,5.5063 z m -4.0107,-0.8017 c -0.129,0.5431 -1.7382,0.6883 -1.1078,-2.3709 0.2041,-0.9904 0.421,-2.6762 0.758,-3.7238 l 1.8235,0.5023 z m -2.8647,-1.4632 c -0.1414,0.3384 -0.5391,0.3444 -0.9439,0.1777 -1.0435,-0.4294 0.055,-4.9691 0.2457,-6.1325 l 1.836,0.4474 c -0.3302,2.0091 -0.1233,3.0795 -1.1378,5.5074 z m 9.7404,3.7284 c -0.2327,0.5567 -0.4751,0.6545 -1.0443,0.4201 -1.3317,-0.5482 0.1848,-5.6571 0.6494,-7.1005 l 1.9772,0.8144 -1.2353,5.4156 z m 3.7185,0.1148 c -0.2367,0.5658 -0.8141,0.7985 -1.3935,0.5598 -1.0196,-0.4203 0.3716,-5.047 0.9422,-6.4125 l 1.7306,0.7124 c -0.9012,2.1548 -0.5655,3.433 -1.1784,4.8985 z m 2.2243,0.9164 c -0.9133,-0.3764 0.3272,-4.8756 0.7396,-5.9295 1.9698,0.8113 2.2411,-0.2205 1.4871,2.0172 -0.406,1.2041 -0.1619,1.745 -0.7325,3.1107 l -0.1015,0.2418 c -0.2358,0.5658 -0.8141,0.7982 -1.3927,0.5598 z m 4.5159,-0.407 c -0.233,0.557 -0.4751,0.6542 -1.0448,0.4201 -1.2186,-0.5023 0.045,-4.2653 0.6389,-5.6877 l 1.73,0.7126 -1.1404,4.3339 z m -13.9566,-16.5166 c -0.222,1.3535 -0.5423,6.294 -2.3242,5.5604 -1.4329,-0.5907 -0.3438,-4.6281 0.2458,-6.1328 z m 5.2931,8.1309 c -0.2832,0.1102 -0.7903,0.2415 -1.1906,0.077 -1.1171,-0.4604 0.4493,-5.6089 0.8964,-6.9985 l 2.0797,0.5672 -1.7855,6.3548 z m -10.976,-4.2378 c -1.1498,-0.4734 -0.068,-4.6908 0.4921,-6.0308 l 0.7415,0.3051 c 0.6676,0.2752 0.7296,0.1652 1.3368,0.267 l -1.279,5.1406 c -0.1369,0.5794 -0.5513,0.6231 -1.0445,0.4201 z m 8.0657,2.1889 c -0.1112,0.4935 -0.4252,0.6576 -0.7521,1.1075 -1.995,-0.874 -0.7608,-5.1129 0.054,-7.0623 l 0.7415,0.3053 c 0.6679,0.2753 0.7297,0.1656 1.3368,0.2673 l -1.3801,5.3822 z m 6.6285,2.1639 c -0.084,0.3425 -0.5689,0.3323 -0.9437,0.1781 l -0.7412,-0.3056 -0.094,-1.1696 1.1248,-4.9113 2.1367,0.5785 -1.4825,5.6299 z m 3.4427,0.8124 -0.2747,-0.074 c -1.7042,-0.7461 -1.0585,-3.7063 -0.4059,-5.2679 l 0.3033,-0.7251 1.8907,0.487 -1.5134,5.5802 z m 3.399,-0.5448 c -0.013,0.046 -0.3835,0.4082 -0.5508,0.6234 l -0.9887,-0.4071 0.7852,-5.6035 2.1804,0.5845 z m -13.9343,-18.2126 c -0.2075,1.7853 -0.5065,8.2352 -2.1707,7.5288 -1.3388,-0.5686 -0.3218,-5.9524 0.2293,-7.9846 z m 4.9442,9.8133 c -0.2647,0.1817 -0.7384,0.4215 -1.1123,0.263 -1.0434,-0.443 0.4198,-7.3338 0.8374,-9.1964 l 1.9425,0.449 z m -10.2526,-3.9838 c -1.0741,-0.4558 -0.064,-6.0724 0.4598,-7.8863 l 0.6925,0.2934 c 0.6236,0.265 0.6817,0.1137 1.2486,0.1621 l -1.1948,6.8406 c -0.1275,0.7699 -0.5147,0.8838 -0.9754,0.6883 l -0.2307,-0.098 z m 7.5339,1.7283 c -0.1037,0.6545 -0.3971,0.911 -0.7024,1.5389 -1.8635,-0.8586 -0.7107,-6.5242 0.05,-9.1636 l 0.6928,0.294 c 0.6236,0.265 0.6815,0.1145 1.2487,0.1624 l -1.2895,7.1683 z m 6.1914,1.8927 c -0.078,0.4555 -0.5312,0.5091 -0.8812,0.3608 l -0.6926,-0.2942 -0.088,-1.5035 1.0505,-6.522 1.9964,0.4561 -1.3853,7.5028 z m 3.2159,0.5796 -0.2562,-0.058 c -1.5919,-0.7327 -0.989,-4.6595 -0.3796,-6.7736 l 0.2835,-0.9819 1.7657,0.371 -1.4134,7.4429 z m 36.6333,-10.9244 h 4.7662 c 0,2.6121 0,4.4135 0,7.026 -1.5891,2.0417 -3.1779,2.0415 -4.7662,0 z m -7.0135,0 h 4.7659 c 0,2.4718 0,4.1763 0,6.6484 -1.5888,1.9324 -3.1776,1.9324 -4.7659,0 z m -6.3331,0 h 4.458 c 0,2.3119 0,3.9064 0,6.2189 -1.4862,1.8074 -2.9724,1.8074 -4.458,0 z m -6.2425,0 h 4.1409 c 0,2.1815 0,3.6862 0,5.8683 -1.3805,1.7056 -2.761,1.7056 -4.1409,0 z m -5.6543,0 h 3.869 c 0,1.893 0,3.1966 0,5.0882 -1.29,1.4794 -2.5798,1.4794 -3.869,0 z m -5.1117,0 h 3.4166 c 0,1.7274 0,2.9166 0,4.6429 -1.1392,1.3493 -2.2779,1.3493 -3.4166,0 z m 23.3416,12.6666 h 4.7659 c 0,3.1346 0,5.2963 0,8.4311 -1.5888,2.4506 -3.1776,2.4506 -4.7659,0 z m -6.3331,0 h 4.458 c 0,2.9322 0,4.9538 0,7.8863 -1.4862,2.2921 -2.9724,2.2921 -4.458,0 z m -6.2425,0 h 4.1409 c 0,2.7666 0,4.6746 0,7.4418 -1.3805,2.1631 -2.761,2.1631 -4.1409,0 z m -5.6543,0 h 3.869 c 0,2.4004 0,4.0536 0,6.4528 -1.29,1.876 -2.5798,1.876 -3.869,0 z m -5.1117,0 h 3.4166 c 0,2.1903 0,3.6984 0,5.8879 -1.1392,1.7107 -2.2779,1.7107 -3.4166,0 z m 0,11.7162 h 3.4166 c 0,1.7969 0,3.0333 0,4.8294 -1.1392,1.4025 -2.2779,1.4025 -3.4166,0 z m 4.2761,1.538 h 3.0311 c 0,1.7969 0,3.0334 0,4.8294 -1.0109,1.4026 -2.0211,1.4026 -3.0311,0 z m 3.981,0.9049 h 3.4038 c 0,2.1149 0,3.5699 0,5.6837 -1.135,1.6506 -2.2694,1.6506 -3.4038,0 z m 5.0244,0.9952 h 3.5818 c 0,2.2252 0,3.7568 0,5.9808 -1.1945,1.7371 -2.3884,1.7371 -3.5818,0 z m 5.9261,0.3166 h 3.9821 c 0,2.4741 0,4.1769 0,6.6498 -1.3278,1.931 -2.6552,1.931 -3.9821,0 z m 36.2749,-28.1375 h -4.7661 c 0,2.6121 0,4.4135 0,7.026 1.5888,2.0417 3.1779,2.0415 4.7661,0 z m 7.0135,0 h -4.7659 c 0,2.4718 0,4.1763 0,6.6484 1.5888,1.9324 3.1777,1.9321 4.7659,0 z m 6.3332,0 h -4.4581 c 0,2.3119 0,3.9064 0,6.2189 1.4862,1.8074 2.9724,1.8068 4.4581,0 z m 6.2424,0 h -4.1411 c 0,2.1815 0,3.6865 0,5.8683 1.3808,1.7056 2.7612,1.7053 4.1411,0 z m 5.6543,0 h -3.869 c 0,1.8918 0,3.1966 0,5.0885 1.29,1.4791 2.5795,1.4788 3.869,0 z m 5.1117,0 h -3.4166 c 0,1.726 0,2.9166 0,4.6429 1.139,1.3495 2.2779,1.3493 3.4166,0 z m -23.5213,12.6666 h -4.7659 c 0,3.1346 0,5.2965 0,8.4314 1.5888,2.4503 3.1777,2.45 4.7659,0 z m 6.3332,0 h -4.4581 c 0,2.9319 0,4.9538 0,7.8863 1.4862,2.2918 2.9724,2.2915 4.4581,0 z m 6.2424,0 h -4.1411 c 0,2.7669 0,4.6749 0,7.4421 1.3807,2.1628 2.7612,2.1623 4.1411,0 z m 5.6543,0 h -3.869 c 0,2.3993 0,4.0538 0,6.4531 1.29,1.8751 2.5795,1.8751 3.869,0 z m 5.1117,0 h -3.4166 c 0,2.1889 0,3.6987 0,5.8879 1.139,1.7112 2.2779,1.7107 3.4166,0 z m 111.3018,-12.4143 h -2.8585 v 3.706 h 2.8585 z m -10.8743,0 h -1.6251 v 3.706 h 1.6251 z m 0,5.559 h -1.6251 v 2.9194 h 1.6251 z m -3.8676,-0.7863 h -2.2977 v 3.7057 h 2.2977 z m 0,6.2886 h -2.2977 v 2.4707 h 2.2977 z m 3.8676,0 h -1.7376 v 2.4707 h 1.7376 z m 3.3075,0 h -1.7379 v 1.516 h 1.7379 z m 0.2239,-5.5023 h -1.4567 v 2.9194 h 1.4567 z m 3.6993,0 h -1.4568 v 2.9194 h 1.4568 z m -3.6993,-1.6285 h -1.4567 v 0.8986 h 1.4567 z m 3.6993,0 h -1.4568 v 0.8986 h 1.4568 z m 5.6055,1.6285 h -1.4568 v 2.9194 h 1.4568 z m 3.6995,0 h -1.457 v 2.9194 h 1.457 z m -3.6995,-1.6285 h -1.4568 v 0.8986 h 1.4568 z m 3.6995,0 h -1.457 v 0.8986 h 1.457 z m 3.6995,-3.9305 h -1.6251 v 3.706 h 1.6251 z m 0,5.559 h -1.6251 v 2.9194 h 1.6251 z m 4.204,0 h -1.6251 v 2.9194 h 1.6251 z m 0,5.6707 h -1.6251 v 2.9194 h 1.6251 z m -7.8474,-0.1684 h -1.7377 v 1.516 h 1.7377 z m 3.5875,0 h -1.7379 v 1.516 h 1.7379 z m -14.7073,7.8823 h 1.2181 v -3.0568 h -1.2181 z m 2.0019,0 h 1.218 v -3.0568 h -1.218 z m 2.0279,0 h 1.218 v -3.0568 h -1.218 z m 2.0018,0 h 1.218 v -3.0568 h -1.218 z m -63.3472,2.573 v -17.9934 h 1.8309 v 17.9934 z m 3.6617,0 v -17.9934 h 1.8309 v 17.9934 z m 3.6616,0 v -17.9934 h 1.8311 v 17.9934 z m 3.662,0 v -17.9934 h 1.8312 v 17.9934 h -0.9884 z m 3.6618,0 v -17.9934 h 1.8312 v 17.9934 z m 3.6621,0 v -17.9934 h 1.8306 v 17.9934 z m 3.6615,0 v -17.9934 h 1.8312 v 17.9934 z m -64.0491,-4.3852 h 4.1239 v -4.1238 h -4.1239 z m 6.103,0 h 4.1239 v -4.1238 h -4.1239 z m 18.8867,0 h 4.1238 v -4.1238 h -4.1238 z m 6.103,0 h 4.1238 v -4.1238 h -4.1238 z m -175.849,7.5223 h 0.9757 v -1.5638 h -0.9757 z m 3.1584,0 h 0.9757 v -1.5638 h -0.9757 z m -39.3545,-20.3411 h 1.6058 v -3.3386 h -1.6058 z m 2.3105,0 h 1.9069 v -3.3386 h -1.9069 z m 10.2365,0 h -1.6059 v -3.3386 h 1.6059 z m -2.3105,0 h -1.9069 v -3.3386 h 1.9069 z m -17.0606,-6.0162 h -3.2111 v 4.9898 h 3.2111 z m 33.1208,2.6767 h 1.061 v 13.1531 h -1.061 v 0.7959 h 23.0868 v -0.7959 h -0.707 v -13.1531 h 0.9723 v -0.7957 h -0.9723 -0.8507 -1.061 v 0.7957 h 1.061 v 13.1531 h -4.1003 v -13.1531 h 0.9726 v -0.7957 h -0.9726 -0.8507 -1.061 v 0.7957 h 1.061 v 13.1531 h -9.2732 v -13.1531 h 1.0168 v -0.7957 h -1.0168 -0.8507 -1.0168 v 0.7957 h 1.0168 v 13.1531 h -4.5425 v -13.1531 h 0.9726 v -0.7957 h -0.9726 -0.8507 -1.061 z m 20.3902,5.7609 v -3.8311 h -1.7294 v 3.8311 z m 0,5.1811 v -2.4142 h -1.7294 v 2.4142 z m -15.1189,-5.1811 v -3.8311 h -1.8675 v 3.8311 z m 0,5.1811 v -2.4142 h -1.8675 v 2.4142 z m 18.9207,-0.8203 h 1.724 v -2.7014 h -1.724 z m 0,-4.517 h 1.724 v -3.2327 h -1.724 z m 3.625,4.517 h 1.724 v -2.7014 h -1.724 z m 0,-4.517 h 1.724 v -3.2327 h -1.724 z m 3.6249,4.517 h 1.7237 v -2.7014 h -1.7237 z m 0,-4.517 h 1.7237 v -3.2327 h -1.7237 z m -41.5106,4.517 h 1.7241 v -2.7014 h -1.7241 z m 0,-4.517 h 1.7241 v -3.2327 h -1.7241 z m 3.625,4.517 h 1.724 v -2.7014 h -1.724 z m 0,-4.517 h 1.724 v -3.2327 h -1.724 z m 3.6249,4.517 h 1.7238 v -2.7014 h -1.7238 z m 0,-4.517 h 1.7238 v -3.2327 h -1.7238 z"
         style="fill:#1c1f2d;fill-opacity:1;fill-rule:evenodd;stroke:none"
         transform="matrix(0.35277776,0,0,-0.35277776,-291.0816,711.63009)"
         clip-path="url(#clipPath62)" />
      <path
         id="path63"
         d="M 2.5788094,0.00113125 V -21.444181 H 13.887403 v 2.332031 H 5.1334969 v 6.152344 h 8.7539061 v 2.367187 H 5.1334969 v 8.2265627 H 13.887403 V 0.00113125 Z M 26.01338,-11.905119 c 1.40625,0.597656 2.460937,1.371094 3.175781,2.3671877 0.691406,0.984375 1.054687,2.15625 1.054687,3.5039063 0,1.9570312 -0.632812,3.5507812 -1.898437,4.7695312 -1.253906,1.2070313 -2.90625,1.80468755 -4.980469,1.80468755 -1.675781,0 -3.117187,-0.421875 -4.253906,-1.2890625 C 17.974317,-1.6160563 17.224317,-2.846525 16.802442,-4.440275 l 2.308594,-1.1367188 c 0.328125,1.2890625 0.84375,2.2734375 1.558594,2.9414063 0.726562,0.65625 1.617187,1.0195312 2.695312,1.0195312 1.300781,0 2.320313,-0.3984375 3.09375,-1.1132812 0.808594,-0.75 1.207031,-1.7109375 1.207031,-2.8828125 0,-0.9609375 -0.269531,-1.7929688 -0.84375,-2.484375 -0.539062,-0.7265625 -1.382812,-1.3242188 -2.496093,-1.8046875 l -2.601563,-1.1132815 c -1.417969,-0.597656 -2.496094,-1.371094 -3.1875,-2.308594 -0.691406,-0.925781 -1.042969,-2.0625 -1.042969,-3.351562 0,-1.535156 0.5625,-2.789063 1.710938,-3.785156 1.101562,-0.984375 2.578125,-1.5 4.3125,-1.5 1.289062,0 2.402344,0.269531 3.363281,0.808593 0.925781,0.539063 1.675781,1.347657 2.191406,2.4375 l -2.097656,1.347657 c -0.480469,-0.84375 -1.019531,-1.441407 -1.628906,-1.863282 -0.597656,-0.386718 -1.253906,-0.597656 -2.003906,-0.597656 -0.960938,0 -1.746094,0.292969 -2.34375,0.867188 -0.632813,0.597656 -0.925782,1.324218 -0.925782,2.25 0,0.75 0.234375,1.40625 0.714844,1.980468 0.457031,0.539063 1.171875,1.054688 2.167969,1.464844 z m 20.786133,4.2539065 3.152343,3.421875 c 0.925782,-0.7148438 1.652344,-1.6523438 2.132813,-2.7304688 0.480469,-1.1132812 0.75,-2.3085937 0.75,-3.6328127 0,-0.867187 -0.128906,-1.710937 -0.339844,-2.519531 -0.175781,-0.773438 -0.480469,-1.5 -0.867187,-2.15625 -0.808594,-1.347656 -1.886719,-2.367188 -3.175782,-3.09375 -1.324218,-0.75 -2.765625,-1.101563 -4.347656,-1.101563 -1.207031,0 -2.320312,0.199219 -3.398437,0.65625 -1.042969,0.445313 -2.003907,1.078125 -2.8125,1.886719 -0.808594,0.808594 -1.441407,1.769531 -1.898438,2.824219 -0.445312,1.078125 -0.65625,2.214844 -0.65625,3.386719 0,1.4999997 0.304688,2.8828122 0.925781,4.0781247 0.609375,1.2304688 1.5,2.25 2.730469,3.1523438 0.691406,0.515625 1.476563,0.9023437 2.285156,1.1367187 0.84375,0.2695313 1.710938,0.3984375 2.613282,0.3984375 0.808593,0 1.523437,-0.09375 2.214843,-0.2460937 0.691407,-0.1523438 1.324219,-0.3867188 1.921875,-0.7148438 L 43.647169,-7.6512125 Z M 55.834669,2.07535 h -3.152344 l -2.847656,-3.05859375 c -0.878906,0.46875 -1.804688,0.8671875 -2.800781,1.1015625 C 46.014356,0.3644125 44.912794,0.4816 43.740919,0.4816 c -1.230469,0 -2.367188,-0.17578125 -3.480469,-0.5390625 -1.078125,-0.36328125 -2.097656,-0.8671875 -3.035156,-1.5585938 -1.5,-1.1132812 -2.636719,-2.4375 -3.410156,-3.9960937 -0.785157,-1.5234375 -1.171875,-3.234375 -1.171875,-5.097656 0,-1.5 0.292968,-2.941407 0.867187,-4.289063 0.574219,-1.382812 1.40625,-2.578125 2.484375,-3.65625 1.089844,-1.054687 2.34375,-1.863281 3.726563,-2.4375 1.382812,-0.5625 2.847656,-0.832031 4.382812,-0.832031 1.523438,0 2.929688,0.234375 4.289063,0.75 1.3125,0.480469 2.542968,1.230469 3.621093,2.214844 1.148438,1.054687 2.050782,2.285156 2.648438,3.691406 0.597656,1.441406 0.902344,2.964844 0.902344,4.59375 0,1.7109375 -0.304688,3.2929687 -0.960938,4.7109375 -0.667969,1.40625 -1.628906,2.6367187 -2.882812,3.6210937 z m 3.799804,-23.519531 h 2.589844 v 13.347656 c 0,2.15625 0.445313,3.75 1.371094,4.7695312 0.9375,1.0195313 2.378906,1.5234375 4.359375,1.5234375 1.980469,0 3.410156,-0.5039062 4.347656,-1.5234375 0.902344,-1.0195312 1.382813,-2.6132812 1.382813,-4.7695312 v -13.347656 h 2.578125 v 13.347656 c 0,2.90625 -0.691407,5.0625 -2.074219,6.5039062 -1.382813,1.4414063 -3.445313,2.1679688 -6.234375,2.1679688 -2.789063,0 -4.863281,-0.7265625 -6.246094,-2.1679688 C 60.32588,-3.034025 59.634473,-5.190275 59.634473,-8.096525 Z M 81.363966,0.00113125 V -21.444181 h 2.542968 V 0.00113125 Z m 7.734375,0 V -22.287931 L 104.78975,-5.1551188 V -21.444181 h 2.42578 V 0.84488125 L 91.535841,-16.11215 V 0.00113125 Z M 119.1335,-16.651213 l -3.42188,7.8867192 h 6.84375 z m 0,-5.636718 9.75,22.28906225 h -2.76563 l -2.78906,-6.57421875 h -8.36719 l -2.78906,6.57421875 h -2.76563 z m 22.62011,16.0546872 c 0,1.4296875 0.38672,2.578125 1.19532,3.4101563 0.80859,0.84375 1.88672,1.265625 3.24609,1.265625 1.3125,0 2.39063,-0.421875 3.21094,-1.2890625 0.80859,-0.8671875 1.19531,-2.015625 1.19531,-3.421875 0,-1.4648438 -0.38672,-2.6132813 -1.19531,-3.4804688 -0.82031,-0.8437502 -1.95703,-1.2656252 -3.36328,-1.2656252 -1.26563,0 -2.3086,0.421875 -3.09375,1.324219 -0.8086,0.8671875 -1.19532,2.0390625 -1.19532,3.4570312 z m 1.71094,-5.8828122 c 0.53906,-0.363282 1.07813,-0.597657 1.58203,-0.785157 0.53907,-0.152343 1.11328,-0.234375 1.71094,-0.234375 1.92188,0 3.48047,0.597657 4.6875,1.828125 1.19531,1.230469 1.79297,2.8242192 1.79297,4.7929692 0,2.1679688 -0.69141,3.8789063 -2.03906,5.1679688 -1.34766,1.2890625 -3.21094,1.921875 -5.51953,1.921875 -1.94532,0 -3.53907,-0.66796875 -4.73438,-1.9570313 -1.23047,-1.2539062 -1.83984,-2.9648437 -1.83984,-5.0625 0,-2.015625 1.35937,-4.9218747 4.03125,-8.7304687 l 0.14062,-0.210938 4.89844,-6.902343 2.21484,1.171875 z m 15.98731,5.8828122 c 0,1.4296875 0.38672,2.578125 1.19531,3.4101563 0.80859,0.84375 1.88672,1.265625 3.24609,1.265625 1.3125,0 2.39063,-0.421875 3.21094,-1.2890625 0.80859,-0.8671875 1.19531,-2.015625 1.19531,-3.421875 0,-1.4648438 -0.38672,-2.6132813 -1.19531,-3.4804688 -0.82031,-0.8437502 -1.95703,-1.2656252 -3.36328,-1.2656252 -1.26563,0 -2.30859,0.421875 -3.09375,1.324219 -0.80859,0.8671875 -1.19531,2.0390625 -1.19531,3.4570312 z m 1.71093,-5.8828122 c 0.53907,-0.363282 1.07813,-0.597657 1.58204,-0.785157 0.53906,-0.152343 1.11328,-0.234375 1.71093,-0.234375 1.92188,0 3.48047,0.597657 4.6875,1.828125 1.19532,1.230469 1.79297,2.8242192 1.79297,4.7929692 0,2.1679688 -0.6914,3.8789063 -2.03906,5.1679688 -1.34766,1.2890625 -3.21094,1.921875 -5.51953,1.921875 -1.94531,0 -3.53906,-0.66796875 -4.73438,-1.9570313 -1.23047,-1.2539062 -1.83984,-2.9648437 -1.83984,-5.0625 0,-2.015625 1.35937,-4.9218747 4.03125,-8.7304687 l 0.14062,-0.210938 4.89844,-6.902343 2.21485,1.171875 z M 188.90986,0.00113125 V -9.8074625 l -7.2539,-11.6367185 h 2.92969 l 5.61328,9.292968 5.57812,-9.292968 h 2.94141 l -7.25391,11.6367185 v 9.80859375 z m 23.10352,-6.23437505 c 0,1.4296875 0.38672,2.578125 1.19531,3.4101563 0.8086,0.84375 1.88672,1.265625 3.2461,1.265625 1.3125,0 2.39062,-0.421875 3.21093,-1.2890625 0.8086,-0.8671875 1.19532,-2.015625 1.19532,-3.421875 0,-1.4648438 -0.38672,-2.6132813 -1.19532,-3.4804688 -0.82031,-0.8437502 -1.95703,-1.2656252 -3.36328,-1.2656252 -1.26562,0 -2.30859,0.421875 -3.09375,1.324219 -0.80859,0.8671875 -1.19531,2.0390625 -1.19531,3.4570312 z m 1.71094,-5.8828122 c 0.53906,-0.363282 1.07812,-0.597657 1.58203,-0.785157 0.53906,-0.152343 1.11328,-0.234375 1.71094,-0.234375 1.92187,0 3.48046,0.597657 4.6875,1.828125 1.19531,1.230469 1.79296,2.8242192 1.79296,4.7929692 0,2.1679688 -0.6914,3.8789063 -2.03906,5.1679688 -1.34765,1.2890625 -3.21094,1.921875 -5.51953,1.921875 -1.94531,0 -3.53906,-0.66796875 -4.73437,-1.9570313 -1.23047,-1.2539062 -1.83985,-2.9648437 -1.83985,-5.0625 0,-2.015625 1.35938,-4.9218747 4.03125,-8.7304687 l 0.14063,-0.210938 4.89843,-6.902343 2.21485,1.171875 z m 13.25683,6.691406 h 2.61328 v 0.234375 c 0,1.1132812 0.35157,1.9570312 1.07813,2.6132812 0.71484,0.6328125 1.67578,0.9609375 2.90625,0.9609375 1.40625,0 2.51953,-0.3632812 3.26953,-1.078125 0.78516,-0.7265625 1.17188,-1.7460937 1.17188,-3.0703125 0,-1.3710937 -0.38672,-2.4257812 -1.17188,-3.140625 -0.80859,-0.6914062 -1.94531,-1.0546875 -3.50391,-1.0546875 -0.1875,0 -0.33984,0 -0.45703,0 -0.0937,0 -0.21093,0.035156 -0.29297,0.035156 v -2.1093747 c 0.082,0 0.19922,0 0.35157,0.03516 0.15234,0 0.26953,0 0.32812,0 1.47656,0 2.58985,-0.328125 3.33985,-0.960937 0.77343,-0.65625 1.13671,-1.617188 1.13671,-2.882813 0,-1.101562 -0.32812,-2.003906 -1.01953,-2.671875 -0.6914,-0.65625 -1.61718,-0.984375 -2.78906,-0.984375 -1.26562,0 -2.22656,0.304688 -2.91797,0.925781 -0.71484,0.609375 -1.07812,1.476563 -1.13672,2.648438 h -2.51953 c 0.0937,-1.863281 0.72656,-3.269531 1.86328,-4.265625 1.13672,-0.984375 2.73047,-1.464844 4.76953,-1.464844 1.98047,0 3.53907,0.503906 4.67579,1.523438 1.17187,1.019531 1.74609,2.402343 1.74609,4.171875 0,1.265625 -0.32813,2.34375 -1.01953,3.210937 -0.66797,0.867188 -1.59375,1.464844 -2.78906,1.804688 1.28906,0.210937 2.27343,0.773437 3,1.7109369 0.71484,0.9257813 1.07812,2.1210938 1.07812,3.5625 0,1.9570313 -0.63281,3.4804688 -1.89844,4.59375 -1.28906,1.1132813 -3.05859,1.6523438 -5.30859,1.6523438 -1.98047,0 -3.5625,-0.515625 -4.73438,-1.53515625 -1.17187,-1.01953125 -1.76953,-2.36718755 -1.76953,-4.07812505 z m 26.97364,-2.4023438 h 6.83203 V -5.5184 h -6.83203 z m 20.33203,7.82812505 V -22.287931 l 15.6914,17.1328122 V -21.444181 H 292.404 V 0.84488125 L 276.72432,-16.11215 V 0.00113125 Z m 23.25,0 V -21.444181 h 11.30859 v 2.332031 h -8.75391 v 6.152344 h 8.75391 v 2.367187 h -8.75391 v 8.2265627 h 8.75391 V 0.00113125 Z M 330.56904,-16.323088 c -1.01953,-1.101562 -2.13281,-1.945312 -3.26953,-2.460937 -1.17187,-0.539063 -2.46093,-0.808594 -3.86718,-0.808594 -1.14844,0 -2.22657,0.246094 -3.30469,0.691406 -1.07813,0.457032 -2.03906,1.113282 -2.82422,1.921875 -0.80859,0.84375 -1.42969,1.804688 -1.82813,2.847657 -0.42187,1.054687 -0.62109,2.226562 -0.62109,3.480468 0,0.9960942 0.11719,1.9218755 0.35156,2.7656255 0.2461,0.8320312 0.63282,1.5820312 1.11328,2.3085937 0.86719,1.1953125 1.92188,2.15625 3.17579,2.8125 1.23046,0.6679688 2.61328,0.9960938 4.05468,0.9960938 1.38282,0 2.63672,-0.3046875 3.8086,-0.8671875 1.17187,-0.5390625 2.25,-1.4179688 3.21093,-2.5195313 V -1.7684 c -1.05468,0.75 -2.21484,1.34765625 -3.42187,1.734375 -1.23047,0.3984375 -2.51953,0.609375 -3.80859,0.609375 -1.13672,0 -2.25,-0.1875 -3.32813,-0.515625 -1.05469,-0.328125 -2.07422,-0.84375 -3,-1.4648438 -1.55859,-1.078125 -2.76562,-2.4375 -3.57422,-3.9960937 -0.83203,-1.5820313 -1.2539,-3.328125 -1.2539,-5.2148435 0,-1.652344 0.26953,-3.152344 0.83203,-4.5 0.53906,-1.347657 1.38281,-2.578125 2.51953,-3.691407 1.11328,-1.054687 2.32031,-1.863281 3.63281,-2.367187 1.32422,-0.515625 2.78906,-0.785156 4.34766,-0.785156 1.26562,0 2.46093,0.175781 3.60937,0.574218 1.16016,0.351563 2.3086,0.960938 3.44531,1.734375 z m 14.82422,14.4960942 c 1.16016,0 2.3086,-0.2109375 3.35157,-0.65625 1.05468,-0.4570312 2.01562,-1.1132812 2.88281,-1.9570312 0.84375,-0.84375 1.47656,-1.7929688 1.92187,-2.8476563 0.42188,-1.078125 0.65625,-2.1914062 0.65625,-3.3867187 0,-1.207031 -0.23437,-2.34375 -0.6914,-3.421875 -0.41016,-1.078125 -1.07813,-2.039063 -1.88672,-2.882813 -0.84375,-0.84375 -1.80469,-1.464843 -2.84766,-1.921875 -1.07812,-0.445312 -2.1914,-0.65625 -3.38672,-0.65625 -1.17187,0 -2.32031,0.210938 -3.39843,0.65625 -1.04297,0.457032 -2.00391,1.078125 -2.8125,1.921875 -0.84375,0.84375 -1.47657,1.804688 -1.92188,2.882813 -0.45703,1.078125 -0.65625,2.214844 -0.65625,3.421875 0,1.1953125 0.19922,2.3085937 0.65625,3.3515625 0.42188,1.0546875 1.07813,2.015625 1.92188,2.8828125 0.86718,0.8671875 1.82812,1.5 2.87109,1.9570312 1.05469,0.4453125 2.16797,0.65625 3.33984,0.65625 z M 356.8542,-10.67465 c 0,1.5234375 -0.28125,2.9648437 -0.84375,4.3125 -0.57422,1.3828125 -1.38281,2.578125 -2.46094,3.6328125 -1.11328,1.0546875 -2.34375,1.86328125 -3.75,2.42578125 -1.40625,0.609375 -2.88281,0.87890625 -4.40625,0.87890625 -1.5,0 -2.97656,-0.26953125 -4.38281,-0.87890625 -1.38281,-0.5625 -2.63672,-1.37109375 -3.72656,-2.42578125 -1.07813,-1.0546875 -1.91016,-2.2851563 -2.48438,-3.6328125 -0.57422,-1.3476563 -0.86718,-2.7890625 -0.86718,-4.3125 0,-1.535156 0.29296,-2.976563 0.86718,-4.359375 0.57422,-1.347656 1.40625,-2.578125 2.48438,-3.621094 1.08984,-1.054687 2.32031,-1.863281 3.72656,-2.4375 1.40625,-0.5625 2.88281,-0.832031 4.38281,-0.832031 1.52344,0 3,0.269531 4.40625,0.832031 1.40625,0.574219 2.67188,1.382813 3.75,2.4375 1.07813,1.042969 1.88672,2.25 2.46094,3.621094 0.5625,1.359375 0.84375,2.800781 0.84375,4.359375 z m 21.56543,-5.648438 c -1.01953,-1.101562 -2.13281,-1.945312 -3.26953,-2.460937 -1.17188,-0.539063 -2.46094,-0.808594 -3.86719,-0.808594 -1.14844,0 -2.22656,0.246094 -3.30469,0.691406 -1.07812,0.457032 -2.03906,1.113282 -2.82422,1.921875 -0.80859,0.84375 -1.42968,1.804688 -1.82812,2.847657 -0.42188,1.054687 -0.62109,2.226562 -0.62109,3.480468 0,0.9960942 0.11718,1.9218755 0.35156,2.7656255 0.24609,0.8320312 0.63281,1.5820312 1.11328,2.3085937 0.86719,1.1953125 1.92187,2.15625 3.17578,2.8125 1.23047,0.6679688 2.61328,0.9960938 4.05469,0.9960938 1.38281,0 2.63672,-0.3046875 3.80859,-0.8671875 1.17188,-0.5390625 2.25,-1.4179688 3.21094,-2.5195313 V -1.7684 c -1.05469,0.75 -2.21484,1.34765625 -3.42188,1.734375 -1.23046,0.3984375 -2.51953,0.609375 -3.80859,0.609375 -1.13672,0 -2.25,-0.1875 -3.32812,-0.515625 -1.05469,-0.328125 -2.07422,-0.84375 -3,-1.4648438 -1.5586,-1.078125 -2.76563,-2.4375 -3.57422,-3.9960937 -0.83203,-1.5820313 -1.25391,-3.328125 -1.25391,-5.2148435 0,-1.652344 0.26953,-3.152344 0.83203,-4.5 0.53906,-1.347657 1.38281,-2.578125 2.51953,-3.691407 1.11328,-1.054687 2.32032,-1.863281 3.63282,-2.367187 1.32421,-0.515625 2.78906,-0.785156 4.34765,-0.785156 1.26563,0 2.46094,0.175781 3.60938,0.574218 1.16015,0.351563 2.30859,0.960938 3.44531,1.734375 z m 4.34766,16.32421925 V -21.444181 h 2.55468 v 8.25 h 11.40235 v -8.25 h 2.57812 V 0.00113125 h -2.57812 V -10.7684 H 385.32197 V 0.00113125 Z m 21.66211,0 V -21.444181 h 11.30859 v 2.332031 h -8.75391 v 6.152344 h 8.75391 v 2.367187 h -8.75391 v 8.2265627 h 8.75391 v 2.36718755 z m 22.41503,-16.65234425 -3.42187,7.8867192 h 6.84375 z m 0,-5.636718 9.75,22.28906225 h -2.76562 l -2.78906,-6.57421875 h -8.36719 l -2.78906,6.57421875 h -2.76563 z m 0,0"
         style="fill:#1c1f2d;fill-opacity:1;fill-rule:nonzero;stroke:none"
         aria-label="ESQUINA 66 Y 63 - NECOCHEA"
         transform="matrix(0.35277776,0,0,0.35277776,86.00108,255.75968)"
         clip-path="url(#clipPath64)" />
    </g>
  </g>
</svg>
