<?xml version="1.0" encoding="UTF-8" standalone="no"?>
<!-- Created with Inkscape (http://www.inkscape.org/) -->

<svg
   width="210mm"
   height="297mm"
   viewBox="0 0 210 297"
   version="1.1"
   id="svg1"
   inkscape:version="1.4 (86a8ad7, 2024-10-11)"
   sodipodi:docname="Logo3.svg"
   xmlns:inkscape="http://www.inkscape.org/namespaces/inkscape"
   xmlns:sodipodi="http://sodipodi.sourceforge.net/DTD/sodipodi-0.dtd"
   xmlns="http://www.w3.org/2000/svg"
   xmlns:svg="http://www.w3.org/2000/svg">
  <sodipodi:namedview
     id="namedview1"
     pagecolor="#ffffff"
     bordercolor="#000000"
     borderopacity="0.25"
     inkscape:showpageshadow="2"
     inkscape:pageopacity="0.0"
     inkscape:pagecheckerboard="0"
     inkscape:deskcolor="#d1d1d1"
     inkscape:document-units="mm"
     inkscape:zoom="0.71891835"
     inkscape:cx="396.42889"
     inkscape:cy="561.25984"
     inkscape:window-width="1920"
     inkscape:window-height="1009"
     inkscape:window-x="-8"
     inkscape:window-y="-8"
     inkscape:window-maximized="1"
     inkscape:current-layer="layer1" />
  <defs
     id="defs1">
    <clipPath
       clipPathUnits="userSpaceOnUse"
       id="clipPath2">
      <path
         d="M -9,-9 H 1693 V 2393 H -9 Z"
         transform="translate(0,2.5e-5)"
         clip-rule="evenodd"
         id="path2" />
    </clipPath>
    <clipPath
       clipPathUnits="userSpaceOnUse"
       id="clipPath4">
      <path
         d="M -9,-9 H 1693 V 2393 H -9 Z"
         transform="translate(0,2.5e-5)"
         clip-rule="evenodd"
         id="path4" />
    </clipPath>
    <clipPath
       clipPathUnits="userSpaceOnUse"
       id="clipPath6">
      <path
         d="M -9,-9 H 1693 V 2393 H -9 Z"
         transform="translate(0,2.5e-5)"
         clip-rule="evenodd"
         id="path6" />
    </clipPath>
    <clipPath
       clipPathUnits="userSpaceOnUse"
       id="clipPath8">
      <path
         d="M -9,-9 H 1693 V 2393 H -9 Z"
         transform="translate(0,2.5e-5)"
         clip-rule="evenodd"
         id="path8" />
    </clipPath>
    <clipPath
       clipPathUnits="userSpaceOnUse"
       id="clipPath10">
      <path
         d="M -9,-9 H 1693 V 2393 H -9 Z"
         transform="translate(0,2.5e-5)"
         clip-rule="evenodd"
         id="path10" />
    </clipPath>
    <clipPath
       clipPathUnits="userSpaceOnUse"
       id="clipPath12">
      <path
         d="M -9,-9 H 1693 V 2393 H -9 Z"
         transform="translate(0,2.5e-5)"
         clip-rule="evenodd"
         id="path12" />
    </clipPath>
    <clipPath
       clipPathUnits="userSpaceOnUse"
       id="clipPath14">
      <path
         d="M -9,-9 H 1693 V 2393 H -9 Z"
         transform="translate(0,2.5e-5)"
         clip-rule="evenodd"
         id="path14" />
    </clipPath>
    <clipPath
       clipPathUnits="userSpaceOnUse"
       id="clipPath46">
      <path
         d="M -9,-9 H 1693 V 2393 H -9 Z"
         transform="matrix(1,0,0,-1,-350.53771,1438.323)"
         clip-rule="evenodd"
         id="path46" />
    </clipPath>
  </defs>
  <g
     inkscape:label="Capa 1"
     inkscape:groupmode="layer"
     id="layer1">
    <g
       id="g1"
       transform="matrix(0.68348032,0,0,0.68348032,32.564978,34.507547)">
      <path
         id="path1"
         d="M 100.2274,2006.9603 H 861.5571 V 1245.9226 H 100.2274 Z"
         style="fill:#1c1f2d;fill-opacity:1;fill-rule:evenodd;stroke:none"
         transform="matrix(0.35277776,0,0,-0.35277776,-63.668416,740.55472)"
         clip-path="url(#clipPath2)" />
      <path
         id="path3"
         d="m 213.7884,1592.5751 -11.6467,28.2991 -12.1575,-28.2991 z m -26.1538,-27.8907 h -18.7983 v 1.3281 l 6.9472,3.2692 24.2127,56.5985 -1.7368,4.1887 h 9.6035 l 25.1322,-60.9916 7.3556,-2.9628 v -1.4301 h -25.0299 v 1.4301 l 8.0708,2.9628 -8.2752,19.7175 h -26.6646 l -8.0708,-19.6152 7.2536,-2.9627 z m 99.4132,45.8714 c 0,2.1113 -0.068,3.8991 -0.2043,5.3634 -0.1361,1.4644 -0.3575,2.6904 -0.6639,3.678 -0.3067,0.9876 -0.6982,1.8048 -1.175,2.452 -0.4768,0.6468 -1.0216,1.243 -1.6347,1.7878 -2.4517,2.0432 -6.4021,3.0648 -11.8508,3.0648 h -13.8943 v -30.3423 h 14.2007 c 5.5848,0 9.5182,1.1066 11.7998,3.3202 2.2819,2.2136 3.4225,5.7722 3.4225,10.6761 z m -14.8135,-17.3679 h -14.6095 v -23.2934 l 7.8667,-3.2692 v -1.9409 h -24.1106 v 1.8389 l 7.3556,3.3712 v 55.5772 l -7.3556,2.8605 v 1.6347 h 32.1814 c 4.3591,0 7.9688,-0.4088 10.8295,-1.226 2.8604,-0.8175 5.159,-1.9752 6.8958,-3.4736 1.7368,-1.4984 2.9628,-3.3205 3.678,-5.4657 0.7152,-2.1456 1.1409,-4.5805 1.277,-7.3049 0.1363,-3.746 -0.4768,-6.9812 -1.8389,-9.7053 -1.3623,-2.7243 -3.8823,-4.9719 -7.5602,-6.743 -1.5665,-0.7492 -3.3032,-1.3621 -5.2104,-1.8389 l 14.5074,-24.315 7.3557,-3.4733 v -1.7368 h -14.2008 z m 77.4479,17.3679 c 0,2.1113 -0.0681,3.8991 -0.2044,5.3634 -0.1361,1.4644 -0.3575,2.6904 -0.6639,3.678 -0.3067,0.9876 -0.6982,1.8048 -1.1749,2.452 -0.4768,0.6468 -1.0216,1.243 -1.6348,1.7878 -2.4517,2.0432 -6.402,3.0648 -11.8508,3.0648 h -13.8943 v -30.3423 h 14.2007 c 5.5849,0 9.5182,1.1066 11.7998,3.3202 2.2819,2.2136 3.4226,5.7722 3.4226,10.6761 z m -14.8136,-17.3679 h -14.6095 v -23.2934 l 7.8667,-3.2692 v -1.9409 h -24.1106 v 1.8389 l 7.3556,3.3712 v 55.5772 l -7.3556,2.8605 v 1.6347 h 32.1814 c 4.3591,0 7.9688,-0.4088 10.8295,-1.226 2.8605,-0.8175 5.1591,-1.9752 6.8959,-3.4736 1.7367,-1.4984 2.9627,-3.3205 3.6779,-5.4657 0.7152,-2.1456 1.141,-4.5805 1.277,-7.3049 0.1364,-3.746 -0.4768,-6.9812 -1.8388,-9.7053 -1.3624,-2.7243 -3.8824,-4.9719 -7.5603,-6.743 -1.5664,-0.7492 -3.3032,-1.3621 -5.2104,-1.8389 l 14.5075,-24.315 7.3556,-3.4733 v -1.7368 h -14.2007 z m 49.966,-23.8042 6.6407,-3.3712 v -1.3281 l -21.5566,0.1021 v 1.1239 l 6.7428,3.5756 v 55.9857 l -6.8448,3.1669 v 1.4303 h 21.6586 v -1.4303 l -6.6407,-3.1669 z m 60.6932,59.2549 v 1.4303 h 16.8571 v -1.4303 l -6.232,-2.8605 -23.8042,-60.9916 h -4.3929 l -25.9495,60.9916 -6.4363,2.8605 v 1.4303 h 22.8846 v -1.4303 l -7.2538,-2.8605 21.0458,-50.2645 19.6155,50.3666 z m 21.5648,-63.9542 v 1.6345 l 6.1297,3.1671 v 55.577 l -6.1297,3.6779 v 1.328 h 49.6514 l 2.1455,-13.0767 h -1.9411 l -6.232,9.6032 c -18.7982,0 -28.1971,-0.034 -28.1971,-0.1021 v -26.2562 h 23.7019 l -2.9627,-3.78 h -20.7392 v -28.197 h 28.1971 l 6.1296,9.2968 h 2.0435 l -2.1455,-12.7704 z m 109.0168,33.5095 c 0,5.1083 -0.6301,9.4161 -1.8901,12.9237 -1.26,3.5076 -3.0478,6.3854 -5.3635,8.633 -1.1579,1.1576 -2.3499,2.1792 -3.5759,3.0648 -1.2259,0.8852 -2.605,1.6344 -4.1374,2.2476 -1.5327,0.6128 -3.2525,1.0896 -5.1594,1.4303 -1.9071,0.3405 -4.0867,0.5108 -6.5383,0.5108 h -8.4796 v -58.642 h 13.2812 c 7.7643,0 13.3492,2.435 16.7547,7.3049 3.4055,4.8696 5.1083,12.3786 5.1083,22.5269 z m -23.8042,31.875 c 5.1083,0 9.7225,-0.5788 13.8433,-1.7367 4.1204,-1.158 7.628,-3.0138 10.5227,-5.5679 2.8945,-2.5543 5.1421,-5.8575 6.7428,-9.9099 1.6005,-4.0524 2.401,-9.0073 2.401,-14.8649 0,-10.7611 -2.6054,-18.9853 -7.8157,-24.6724 -5.2104,-5.6872 -13.1278,-8.5306 -23.7529,-8.5306 -2.8608,0 -5.8746,0.034 -9.0414,0.102 -3.1672,0.068 -6.0449,0.1024 -8.6329,0.1024 h -12.464 v 1.5324 l 7.9688,3.2692 v 55.5769 l -7.9688,2.9628 v 1.7367 z m 38.4219,-65.3845 v 1.6345 l 6.1297,3.1671 v 55.577 l -6.1297,3.6779 v 1.328 h 49.6514 l 2.1455,-13.0767 h -1.9411 l -6.232,9.6032 c -18.7982,0 -28.1971,-0.034 -28.1971,-0.1021 v -26.2562 h 23.7019 l -2.9628,-3.78 h -20.7391 v -28.197 h 28.1971 l 6.1296,9.2968 h 2.0435 l -2.1455,-12.7704 z m 100.4349,45.8714 c 0,2.1113 -0.068,3.8991 -0.2044,5.3634 -0.136,1.4644 -0.3574,2.6904 -0.6638,3.678 -0.3067,0.9876 -0.6982,1.8048 -1.175,2.452 -0.4768,0.6468 -1.0216,1.243 -1.6347,1.7878 -2.4517,2.0432 -6.4021,3.0648 -11.8508,3.0648 H 661.739 v -30.3423 h 14.2007 c 5.5848,0 9.5182,1.1066 11.7998,3.3202 2.2819,2.2136 3.4225,5.7722 3.4225,10.6761 z m -14.8136,-17.3679 H 661.739 v -23.2934 l 7.8667,-3.2692 v -1.9409 H 645.495 v 1.8389 l 7.3556,3.3712 v 55.5772 l -7.3556,2.8605 v 1.6347 h 32.1815 c 4.3591,0 7.9687,-0.4088 10.8295,-1.226 2.8604,-0.8175 5.159,-1.9752 6.8958,-3.4736 1.7368,-1.4984 2.9628,-3.3205 3.6779,-5.4657 0.7152,-2.1456 1.141,-4.5805 1.2771,-7.3049 0.1363,-3.746 -0.4768,-6.9812 -1.8389,-9.7053 -1.3623,-2.7243 -3.8823,-4.9719 -7.5603,-6.743 -1.5664,-0.7492 -3.3032,-1.3621 -5.2103,-1.8389 l 14.5074,-24.315 7.3556,-3.4733 v -1.7368 h -14.2007 z m 43.5297,3.2692 c 0,-4.6995 0.5278,-9.0414 1.5834,-13.0257 1.0559,-3.9844 2.6054,-7.2026 4.6486,-9.6545 1.9752,-2.3837 4.4101,-4.1205 7.3046,-5.2104 2.8947,-1.0896 6.2149,-1.6345 9.9609,-1.6345 4.972,0 9.2631,0.4425 12.8727,1.3281 l 6.232,10.2163 h 1.9411 l -2.1455,-13.0771 c -0.2044,-0.068 -1.1066,-0.2554 -2.7074,-0.5618 -1.6004,-0.3064 -3.2862,-0.5618 -5.057,-0.7662 -1.7027,-0.2044 -3.4906,-0.3744 -5.3634,-0.5108 -1.8731,-0.1361 -3.9334,-0.2044 -6.181,-0.2044 -5.3126,0 -9.9949,0.6642 -14.0476,1.9922 -4.0524,1.3283 -7.475,3.4566 -10.2674,6.3853 -2.7924,2.8605 -4.9039,6.4874 -6.334,10.8805 -1.4304,4.3929 -2.1455,9.0414 -2.1455,13.9454 0,11.9188 2.8264,20.7051 8.4795,26.3579 5.6532,5.6532 13.758,8.4796 24.315,8.4796 2.2476,0 4.1888,-0.068 5.8233,-0.2044 1.6347,-0.1361 3.1331,-0.3064 4.4951,-0.5108 0.6812,-0.1361 1.4134,-0.2724 2.1966,-0.4085 0.7832,-0.1363 1.5324,-0.2724 2.2476,-0.4087 0.7152,-0.1361 1.311,-0.2554 1.7878,-0.3575 0.4768,-0.1023 0.7832,-0.1533 0.9196,-0.1533 l 2.1452,-13.0768 h -1.9409 l -6.2319,10.2163 c -3.6099,0.8853 -7.2879,1.3281 -11.0339,1.3281 -3.6776,0 -6.9641,-0.5279 -9.8586,-1.5835 -2.8947,-1.0559 -5.3637,-2.7927 -7.4069,-5.2103 -2.0432,-2.418 -3.5927,-5.6192 -4.6486,-9.6035 -1.0556,-3.9844 -1.5834,-8.9054 -1.5834,-14.7626 z m 65.393,-27.0734 6.6407,-3.3712 v -1.3281 l -21.5566,0.1021 v 1.1239 l 6.7428,3.5756 v 55.9857 l -6.8448,3.1669 v 1.4303 h 21.6586 v -1.4303 l -6.6407,-3.1669 z"
         style="fill:#cfa64b;fill-opacity:1;fill-rule:nonzero;stroke:none"
         transform="matrix(0.35277776,0,0,-0.35277776,-63.668416,740.55472)"
         clip-path="url(#clipPath4)" />
      <path
         id="path5"
         d="m 419.9873,1502.6457 h -3.2383 c -0.9816,-1.8355 -2.3624,-3.3092 -4.1431,-4.4215 -1.7804,-1.1123 -3.736,-1.6685 -5.8671,-1.6685 -3.1334,0 -5.8184,1.154 -8.0544,3.4623 -2.173,2.2453 -3.2595,4.9427 -3.2595,8.092 0,3.1771 1.0865,5.8884 3.2595,8.134 1.0233,1.0568 2.2221,1.8978 3.596,2.5234 1.374,0.6259 2.7199,0.9386 4.0377,0.9386 1.3181,0 2.4744,-0.146 3.4699,-0.438 3.0631,-0.8969 5.3694,-2.753 6.9185,-5.5686 h 3.2389 c -1.0797,2.6974 -2.8179,4.8736 -5.2155,6.5282 -2.3972,1.6545 -5.061,2.4817 -7.9911,2.4817 -3.9606,0 -7.3395,-1.446 -10.1362,-4.3382 -1.29,-1.3345 -2.2994,-2.8851 -3.0282,-4.6508 -0.7291,-1.7657 -1.0936,-3.636 -1.0936,-5.6103 0,-3.9696 1.3739,-7.376 4.1218,-10.2194 2.7967,-2.8922 6.1756,-4.3453 10.1362,-4.3453 2.916,0 5.5939,0.8484 8.0331,2.5308 2.4185,1.6685 4.157,3.8582 5.2154,6.5696 z m 7.2341,1.7521 5.2154,13.0558 5.1942,-13.0558 z m 17.7488,-10.4352 -12.5334,30.3318 -12.5756,-30.3318 h 3.1963 l 3.0844,7.7238 h 12.5618 l 3.0702,-7.7238 z m 20.5671,25.66 v 2.7114 h -16.992 v -28.3714 h 2.9443 v 12.8126 h 13.627 v 2.753 h -13.627 v 10.0944 z m 20.9874,-25.66 v 2.7181 H 472.477 v 10.0945 h 13.627 v 2.753 h -13.627 v 10.0944 h 14.0477 v 2.7114 h -16.992 v -28.3714 z m -2.4815,37.256 h -3.617 l -3.3647,-5.9646 h 2.3553 z m 38.8205,-29.3445 c 0,2.016 -0.4907,3.6983 -1.472,5.0471 -0.9814,1.3487 -2.3134,2.2456 -3.9957,2.6906 1.0023,0.438 1.8226,1.2025 2.4607,2.2941 0.2943,0.5006 0.5185,1.0219 0.6727,1.5641 0.1545,0.5423 0.2313,1.2861 0.2313,2.2318 0,0.9453 -0.2245,1.8771 -0.673,2.7946 -1.2478,2.5583 -3.9673,3.8376 -8.1595,3.8376 h -7.7388 v -28.3714 h 8.7482 c 2.9163,0 5.2436,0.6673 6.9818,1.9882 0.8974,0.6815 1.6123,1.5503 2.1452,2.607 0.5327,1.0568 0.7991,2.1623 0.7991,3.3163 z m -5.0471,13.3687 c 0,-1.5295 -0.4626,-2.6696 -1.3878,-3.4202 -0.9255,-0.7509 -2.145,-1.1265 -3.6593,-1.1265 h -5.6358 v 8.8432 h 4.7945 c 3.9257,0 5.8884,-1.4323 5.8884,-4.2965 z m 2.1028,-12.8058 c 0,-1.6891 -0.5814,-3.0656 -1.7453,-4.1295 -1.1217,-1.0287 -2.5864,-1.5432 -4.3951,-1.5432 h -6.6453 v 11.0121 h 7.1079 c 1.5072,0 2.8179,-0.4935 3.9325,-1.4808 0.5187,-0.459 0.9394,-1.008 1.2617,-1.6478 0.3226,-0.6395 0.4836,-1.3765 0.4836,-2.2108 z m 11.5665,1.9608 5.2151,13.0558 5.1942,-13.0558 z m 17.7488,-10.4352 -12.5337,30.3318 -12.5753,-30.3318 h 3.1963 l 3.0841,7.7238 h 12.5621 l 3.0702,-7.7238 z m 6.5191,14.0224 v 11.5543 h 6.6456 c 1.7382,0 3.1263,-0.5355 4.1638,-1.6061 1.0375,-1.0706 1.5562,-2.4333 1.5562,-4.0878 0,-1.6475 -0.5468,-3.045 -1.6404,-4.1919 -1.0656,-1.1123 -2.4253,-1.6685 -4.0796,-1.6685 z m 15.3097,5.798 c 0,2.4539 -0.8901,4.5048 -2.6708,6.1526 -1.7314,1.5987 -3.8696,2.3984 -6.414,2.3984 h -9.1689 v -28.3714 h 2.944 v 11.2274 h 3.4348 l 8.384,-11.2274 h 3.9535 l -8.8044,11.2484 c 2.2223,0.146 4.115,0.9386 5.671,2.3777 1.7807,1.6475 2.6708,3.7123 2.6708,6.1943"
         style="fill:#cfa64b;fill-opacity:1;fill-rule:nonzero;stroke:none"
         transform="matrix(0.35277776,0,0,-0.35277776,-63.668416,740.55472)"
         clip-path="url(#clipPath6)" />
      <path
         id="path7"
         d="m 292.4819,1496.9767 c -2.2184,0 -4.017,1.413 -4.017,3.1563 0,1.7433 1.7986,3.1564 4.017,3.1564 h 56.6163 c 2.2184,0 4.017,-1.4131 4.017,-3.1564 0,-1.7433 -1.7986,-3.1563 -4.017,-3.1563 z"
         style="fill:#cfa64b;fill-opacity:1;fill-rule:nonzero;stroke:none"
         transform="matrix(0.35277776,0,0,-0.35277776,-63.668416,740.55472)"
         clip-path="url(#clipPath8)" />
      <path
         id="path9"
         d="m 611.6499,1496.9767 c -2.2184,0 -4.017,1.413 -4.017,3.1563 0,1.7433 1.7986,3.1564 4.017,3.1564 h 56.6164 c 2.2184,0 4.017,-1.4131 4.017,-3.1564 0,-1.7433 -1.7986,-3.1563 -4.017,-3.1563 z"
         style="fill:#cfa64b;fill-opacity:1;fill-rule:nonzero;stroke:none"
         transform="matrix(0.35277776,0,0,-0.35277776,-63.668416,740.55472)"
         clip-path="url(#clipPath10)" />
      <path
         id="path11"
         d="m 173.1991,1690.0968 c -2.3828,0 -4.3149,1.5197 -4.3149,3.3939 0,1.8743 1.9321,3.394 4.3149,3.394 205.1445,0 410.2898,0 615.4342,0 2.3828,0 4.3149,-1.5197 4.3149,-3.394 0,-1.8742 -1.9321,-3.3939 -4.3149,-3.3939 -205.1444,0 -410.2897,0 -615.4342,0"
         style="fill:#cfa64b;fill-opacity:1;fill-rule:nonzero;stroke:none"
         transform="matrix(0.35277776,0,0,-0.35277776,-63.668416,740.55472)"
         clip-path="url(#clipPath12)" />
      <path
         id="path13"
         d="m 366.1608,1721.3913 h 7.4166 l -0.3274,1.2251 v 0.1622 h -0.9972 v 1.146 c 2.0854,0 3.6294,1.3706 4.7843,3.1638 1.2004,-2.0081 2.8445,-3.1638 5.0473,-3.1638 v -1.146 h -1.1228 v -1.3873 h 7.2148 v -2.5333 h -22.0156 z m 247.777,-7.8341 h 3.3295 v -1.0125 h -3.3295 z m 14.5664,0 h 3.3292 v -1.0125 h -3.3292 z m -113.3212,5.4632 h 0.9059 v 1.5953 h -0.9059 v 2.1714 h 0.9059 v 5.3178 h -0.9059 v 2.1713 h 43.7828 v -2.1713 h -1.0112 v -5.3178 h 1.0112 v -2.1714 h -1.0112 v -1.5953 h 1.0112 v -2.1713 h -1.0112 v -7.3131 h 1.0112 v -2.1717 h -1.0112 v -5.5403 h 2.2975 v 17.9935 h -1.4037 l 15.0627,10.6251 15.0622,-10.6251 h -1.2574 v -17.9935 h 5.4484 v 2.9285 c 0.3059,0 0.612,0 0.9182,0 0,0.4972 0,0.9944 0,1.4922 0.6517,0.6533 1.4723,1.2055 2.6626,1.5372 -0.0471,0.1757 -0.0941,0.3515 -0.1412,0.5275 0,0.957 0,1.914 0,2.8709 0.3368,0.605 0.8357,1.1022 1.4961,1.4925 0.2679,9.1828 0.5355,18.3657 0.8037,27.5488 0.0354,1.0703 1.8756,1.0621 1.9513,0 0.1911,-9.1831 0.3824,-18.366 0.5738,-27.5488 0.5864,-0.4215 1.2395,-0.8425 1.396,-1.2628 0,-1.033 0,-2.0662 0,-3.0992 0.3444,-0.2296 0.326,-0.4592 0.6701,-0.6888 0,-0.2679 0,-0.5357 0,-0.8033 0.4592,0 0.9185,0 1.3777,0 0,1.4536 0,2.9078 0,4.3616 -0.3065,0 -0.6126,0 -0.9185,0 0.053,0.1976 -0.015,0.3952 0.038,0.5928 1.1747,1.5213 2.7136,2.7983 4.6684,3.5396 1.6682,-0.6157 3.0438,-1.4746 4.1324,-2.8695 0.2296,0 0.4589,0 0.6885,0 0,1.1092 0,2.2187 0,3.3284 0.0238,0.6662 0.47,1.404 1.3413,2.2116 0.2622,0.7073 0.4961,1.4944 0.5641,2.3508 0.0729,-0.9199 0.3357,-1.7603 0.6211,-2.507 0.5769,-0.5561 0.9981,-1.165 1.2614,-1.8255 0.3433,1.2804 0.6863,2.5614 1.0296,3.8421 0.4391,1.7821 1.4587,3.1935 3.2791,4.0955 0.6128,1.7305 1.2016,3.702 1.3569,5.8728 0.1574,-2.1968 0.7572,-4.1896 1.3777,-5.9352 1.7444,-0.9039 2.7294,-2.2912 3.1586,-4.0331 0.3433,-1.2807 0.6863,-2.5617 1.0296,-3.8421 0.2613,0.6551 0.676,1.26 1.2461,1.8122 0.2874,0.7498 0.5544,1.5948 0.6276,2.5203 0.0674,-0.8515 0.2976,-1.6345 0.5581,-2.3383 0.8796,-0.8127 1.332,-1.5545 1.3561,-2.2241 0,-1.1097 0,-2.2192 0,-3.3284 0.2296,0 0.4592,0 0.6888,0 1.0882,1.3949 2.4639,2.2538 4.1324,2.8695 1.9544,-0.7413 3.4937,-2.0183 4.6683,-3.5396 0.0528,-0.1976 -0.0153,-0.3952 0.0377,-0.5928 -0.3058,0 -0.612,0 -0.9181,0 0,-1.4538 0,-4.8172 0,-6.271 0.4589,0 0.9181,0 1.3773,0 0,0.2678 0,1.8958 0,2.1636 0.1406,0.3833 0.2036,0.5514 0.6702,0.6889 0,7.5642 0.271,15.6892 0.4311,23.3937 0.0757,1.0625 0.9207,1.0704 0.9559,0 0.2301,-7.8916 0.6667,-15.887 0.6667,-23.2835 0.824,-0.2007 0.3512,-0.6562 0.811,-0.8804 0.0272,-0.5428 -0.0134,-1.0845 -0.004,-1.7048 0,-0.4974 0.8455,-0.3821 1.8328,-0.3914 0.3062,0 0.7858,-0.2753 0.7994,-0.5806 0,-1.2245 0,-2.4491 0,-3.6731 0.0763,-1.4939 0.1531,-2.988 0.2296,-4.4821 l -9.9102,0.1683 v 6.5775 h -2.8584 v -6.529 l -13.0145,0.2208 h -27.9938 -1.9565 -5.2188 -1.8309 -1.8312 -1.8309 -1.8306 -1.8309 -1.8312 -1.8306 -1.8312 -1.8309 -1.8312 -1.8306 -1.8309 -1.8309 -1.8309 -1.8309 -2.2975 -0.9189 -3.8764 v 8.5998 c -1.8669,2.0486 -3.6879,2.3196 -5.4434,0 v -8.5998 h -4.9484 v 15.2039 c -3.6213,3.4059 -7.1527,3.8557 -10.5565,0 v -15.2039 h -4.9485 v 8.5998 c -1.8672,2.0486 -3.6881,2.3196 -5.4434,0 v -8.5998 h -95.4521 -0.4972 -26.0096 -0.4909 -18.9837 v 12.7945 c -2.0573,1.2472 -4.0847,1.3274 -6.0746,0 v -12.7945 h -40.5774 v 4.9899 h 3.9138 v 0.9048 h -3.9138 -1.5055 -3.2111 -1.5054 -3.7131 v -0.9048 h 3.7131 v -4.9899 h -14.3952 c 0.3019,13.9541 0.6038,27.9082 0.9056,41.8626 0.2679,0.5205 0.6061,0.779 1.0588,1.0806 -0.0337,0.4697 0.0309,0.9655 -0.003,1.4352 -0.5558,0.3345 -0.4325,0.6701 0,1.006 0,0.5701 0,1.1404 0,1.711 0.3016,0.4949 0.6035,0.4949 0.9057,0 0,-0.5703 0,-1.1407 0,-1.7107 0.3558,-0.3019 0.5757,-0.7231 -0.0167,-1.0242 0,-0.5031 0.0167,-0.8878 0.0167,-1.3909 0.4201,-0.3189 0.8229,-0.6032 1.057,-1.0063 0.3357,-9.5936 0.671,-19.1872 1.0063,-28.7805 0.6038,0 1.2076,0 1.8114,0 -0.0335,1.0732 -0.019,2.3261 -0.0525,3.3996 -0.2012,0.1675 -0.4025,0.3354 -0.6037,0.5032 0.8385,0.6038 1.629,1.0281 2.4675,1.6319 0.9057,-0.5032 1.8114,-1.0063 2.717,-1.5095 -0.2347,-0.2012 -0.4694,-0.4025 -0.7044,-0.6038 0,-2.4151 0,-4.8302 0,-7.2453 4.8974,0 9.7949,0 14.6923,0 0,1.5763 0,3.153 0,4.7296 0.9558,1.7442 2.3306,3.4877 4.6289,5.2328 0,1.1069 0,2.2138 0,3.3207 0.6373,0 1.2748,0 1.912,0 0,-1.1741 0,-2.3479 0,-3.522 2.0798,-1.4088 3.6227,-3.0861 4.629,-5.0315 0,-1.9457 0,-3.8911 0,-5.8368 0.4025,0 0.805,0 1.2076,0 0.2349,-0.3019 0.6978,-0.2894 0.9328,-0.5913 0.3632,-0.076 0.1673,-3.1811 0.2194,-3.9572 0.2532,0 0.5066,0 0.7597,0 v 9.4504 h -0.7985 v 0.7722 h 13.1491 v 0.796 h -12.3506 v 1.9902 h -0.7985 v 0.7588 h 47.4752 l -0.0544,0.8093 h -46.6223 v 2.4123 h -0.7985 v 0.8798 h 47.1518 c -0.2228,2.3797 -0.5066,4.754 -0.8532,7.1017 -0.6665,4.5122 -5.0006,28.8405 -4.5519,30.9957 l 2.2246,0.9167 c 0.1366,1.3513 -0.0193,2.8188 -0.7291,4.517 -0.3713,0.889 -0.9756,0.2554 -1.3476,1.1444 -0.5828,1.3952 2.621,3.0637 4.2361,3.7287 3.9223,1.6157 13.0224,3.5025 14.2782,0.4972 l 0.1014,-0.2418 c 0.269,-0.6449 -1.9185,-3.0362 -0.699,-5.9548 0.4808,-1.1488 3.0764,0.2654 3.7298,-1.2974 l 0.2923,-0.7276 10.0454,-44.4357 -0.1837,25.8211 c 2.0449,4.8852 10.7496,8.6953 21.3188,12.2046 1.8023,-5.3042 3.6046,-10.6081 5.4071,-15.912 0.5661,-0.2064 1.1327,-0.4122 1.6994,-0.618 1.2872,-2.9352 2.5744,-5.8705 3.8619,-8.8058 0.3606,0 0.7209,0 1.0814,0 0.1545,-0.4119 0.309,-0.824 0.4635,-1.2359 5.4584,0 10.9168,0 16.3754,0 0,0.9785 0,1.9568 0,2.9353 19.698,-0.5984 34.1059,-2.1929 39.0847,-5.5613 v -13.7055 h 1.2359 v 7.3131 h -0.9059 v 2.1713 z m -115.6584,-8.4974 -0.0335,0.796 h -11.0228 v -0.796 z m 26.3132,-9.199 -0.009,1.2178 -1.0902,5.2571 c -0.0125,0.061 -0.3583,0.582 -0.5142,0.8838 l -0.9241,-0.3914 0.7336,-7.3727 1.8043,0.4054 z m -21.4294,56.8395 c -0.0782,0.3143 -0.803,0.3739 -1.0443,0.4195 -0.953,-1.3995 0.343,-6.3678 1.2555,-8.5504 l 1.7303,0.7126 z m -5.5837,-2.5835 c -0.2701,0.6466 -0.6556,0.5683 -1.1452,0.6619 -0.6324,-1.3499 0.1605,-5.4582 1.177,-7.1853 0.3376,-0.5732 0.8688,-0.094 1.5103,0.05 -0.4887,1.5279 -0.826,4.7608 -1.34,5.9902 l -0.2021,0.4833 z m -3.8644,-0.4584 c -0.8575,-0.3535 0.3288,-6.3317 0.852,-7.5832 0.804,0.3104 1.2496,0.826 1.4571,1.4482 0.5297,1.5888 -0.4955,3.8747 -1.0625,5.2319 l -0.2018,0.4833 c -0.233,0.557 -0.4751,0.6542 -1.0448,0.4198 z m 6.4822,1.8204 c -0.2327,0.5567 -0.4751,0.654 -1.0448,0.4195 -0.9964,-0.4107 0.6964,-6.5188 1.3011,-7.965 1.832,0.7084 2.0205,-0.129 1.2384,2.5194 -0.4629,1.5667 -0.4569,2.5427 -0.9893,3.8171 z m 6.5381,0.9927 c -0.2727,0.6531 -0.3963,0.618 -0.7523,1.1069 l -0.9884,-0.4073 1.6086,-7.8041 1.768,0.4247 c -0.6486,1.6511 -0.8527,4.8061 -1.4338,6.1959 z m 3.1677,0.7382 c -0.0935,0.3424 -0.5629,0.3344 -0.9428,0.1782 -0.786,-0.3231 0.6274,-6.3552 1.0985,-7.4817 l 1.8238,0.5023 z m 3.3257,-0.3306 c -0.2328,0.557 -0.4754,0.6543 -1.0446,0.4196 -0.98,-0.4031 0.4405,-5.9074 0.8963,-6.9976 l 1.8241,0.5023 -1.2798,5.3727 z m -17.8226,-12.664 c -1.0831,-1.3218 -0.5199,-4.3314 0.2137,-6.2068 l 1.836,0.4482 -1.0048,5.3385 z m 2.5869,1.2724 c -0.7787,-1.1281 -0.0785,-4.5416 0.5933,-6.2574 l 1.836,0.4481 c -0.6795,1.7462 -0.4674,3.2094 -1.2841,5.1633 l -0.3019,0.6724 -0.8433,-0.026 z m 7.3244,1.8987 c -0.233,0.5567 -0.475,0.6548 -1.0448,0.4201 -1.2895,-0.5312 0.2835,-5.5298 0.8966,-6.9985 l 1.2359,0.5097 c 1.1466,0.4722 -0.5539,4.7911 -1.0877,6.0687 z m -2.9658,-1.2215 c -0.2328,0.5573 -0.4754,0.6546 -1.0446,0.4201 -1.0332,-0.4257 0.1868,-5.2183 0.6945,-6.5148 l 1.8357,0.4478 -1.2509,5.4369 z m 11.1313,-3.0653 c -0.2117,1.2928 -0.7897,5.9085 -2.4701,5.2163 -0.9278,-0.3821 0.2699,-4.8039 0.7399,-5.9295 z m -4.7951,4.5422 c -0.3362,0.8033 -0.7398,0.5247 -1.5395,0.216 0.1579,-0.9612 0.4193,-6.6288 1.9307,-6.0055 l 0.9887,0.4071 c -0.536,1.667 -0.3982,3.0319 -1.178,4.8985 z m 6.5937,0.1652 c -0.2324,0.5573 -0.4745,0.6549 -1.0443,0.4199 -1.1999,-0.4941 0.0655,-4.2415 0.5378,-5.4457 l 1.8354,0.4482 c -0.7424,1.7878 -0.2509,1.9984 -0.8238,3.369 z m -17.2706,-17.5983 c 1.4777,0.6089 0.8484,0.03 0.496,2.4157 -0.091,0.6146 -0.2083,2.4409 -0.4385,2.992 -0.25,0.5989 -1.0871,0.3846 -1.7861,0.1142 l 0.8254,-5.8535 z m 4.8441,8.5122 c -0.9666,-0.3974 0.3163,-5.5318 0.7954,-6.7558 2.3885,0.9839 2.0883,-0.3303 1.3467,2.4755 -0.2046,0.775 -0.4277,2.9505 -0.6485,3.4792 -0.2362,0.5655 -0.8269,1.0763 -1.4936,0.8011 z m -2.2697,-1.5013 c -0.0814,0.3433 -0.5703,0.3323 -0.9442,0.1781 -1.1727,-0.4828 0.0861,-4.7659 0.4932,-6.031 l 1.8357,0.4484 z m 5.2353,2.7233 c -1.0454,-0.43 0.3838,-5.6869 0.8963,-6.9979 2.389,0.9839 2.0891,-0.33 1.347,2.4761 -0.2712,1.0281 -0.3693,2.8105 -0.7492,3.7202 -0.2361,0.5657 -0.8268,1.0766 -1.4941,0.8016 z m 3.3701,0.2551 c -0.8779,-0.3614 0.438,-5.2072 0.942,-6.4128 l 0.7412,0.3056 c 1.1373,0.468 1.2036,0.2877 0.428,2.4429 -0.485,1.3481 -0.5218,1.9408 -1.1675,3.4863 -0.1415,0.3384 -0.5392,0.3447 -0.9437,0.178 z m 3.7188,0.1148 c -1.16,-0.4779 0.0941,-4.3843 0.6383,-5.6874 l 0.7419,0.3053 c 1.5278,0.6293 0.9425,-0.2537 0.4158,2.0449 -0.2602,1.1353 -0.2452,1.7053 -0.7517,2.9171 -0.2331,0.5576 -0.4751,0.6548 -1.0443,0.4201 z m 2.8757,0.051 c -0.8991,-0.371 0.3682,-4.3483 0.8856,-5.5862 l 0.7415,0.3058 c 1.5137,0.6234 0.9244,-0.1403 0.3824,2.2595 -0.265,1.1756 -0.3308,1.7765 -0.8189,2.9447 -0.2832,0.1097 -0.7903,0.2406 -1.1906,0.076 z m -14.1483,-17.4455 c 1.8698,0.7225 2.1325,-0.2104 1.5823,2.1793 -0.2897,1.2563 -0.4558,2.5154 -0.7829,3.5336 -0.3742,0.2968 -0.6746,0.5721 -1.2917,0.3178 -0.9706,-0.3997 0.1295,-4.9031 0.4923,-6.0307 z m -2.6158,4.873 c -2.069,-0.9057 -1.0769,-4.3577 -0.2494,-6.3366 l 1.7305,0.7121 c -0.4178,1.3003 -0.4374,3.8186 -0.83,4.7588 -0.214,0.5111 -0.2219,0.2826 -0.6511,0.8657 z m 5.3368,2.4806 c -0.7945,-0.3268 0.3971,-5.7393 0.7951,-6.7558 l 0.9888,0.4076 c 1.3867,0.5712 0.9867,0.4031 0.3625,2.6697 -0.3285,1.199 -0.2497,1.9131 -0.8552,3.3613 -0.123,0.2943 -0.8141,0.5145 -1.2912,0.3172 z m 4.3586,0.6628 c -0.1568,0.6403 -0.7379,0.5833 -1.1458,0.6613 -1.0743,-1.5786 -0.0601,-4.8932 0.6497,-7.1 l 2.0795,0.567 z m 2.2246,0.9008 c -0.8649,-1.2549 0.0927,-4.6287 0.6945,-6.4998 2.0619,0.8498 2.0945,-0.2373 1.5165,2.2067 -0.3169,1.3405 -0.3838,2.0149 -0.9649,3.4047 l -0.4025,0.9148 -0.8436,-0.026 z m 4.6616,-0.048 c -0.1386,0.3322 -0.7572,0.3654 -1.0446,0.4198 l -0.6304,-1.1579 1.1049,-4.877 c 2.0798,0.8532 2.113,-0.2342 1.5347,2.2107 -0.3169,1.3402 -0.3838,2.014 -0.9646,3.4044 z m 3.2238,-0.089 c -0.0842,0.3158 -0.7988,0.373 -1.0443,0.4201 -0.9657,-1.4188 -0.2627,-3.532 0.6384,-5.6877 l 1.7305,0.7126 z m -11.4273,-10.0911 c -0.2364,0.5664 -0.8144,0.798 -1.3927,0.5596 -1.1766,-0.4844 0.1256,-5.1525 0.6945,-6.5146 l 1.836,0.4487 c -0.1655,1.0055 -0.7891,4.6724 -1.1378,5.5063 z m -4.0107,-0.8016 c -0.129,0.5431 -1.7382,0.6882 -1.1078,-2.3709 0.2041,-0.9904 0.4209,-2.6762 0.758,-3.7239 l 1.8235,0.5023 z m -2.8647,-1.4632 c -0.1415,0.3384 -0.5392,0.3444 -0.944,0.1777 -1.0434,-0.4295 0.0553,-4.9691 0.2458,-6.1325 l 1.836,0.4473 c -0.3302,2.0092 -0.1233,3.0796 -1.1378,5.5075 z m 9.7404,3.7284 c -0.2327,0.5567 -0.4751,0.6545 -1.0443,0.4201 -1.3317,-0.5483 0.1848,-5.6571 0.6494,-7.1005 l 1.9772,0.8143 -1.2354,5.4156 z m 3.7185,0.1148 c -0.2367,0.5658 -0.8141,0.7985 -1.3935,0.5598 -1.0197,-0.4204 0.3716,-5.0471 0.9422,-6.4125 l 1.7305,0.7123 c -0.9011,2.1549 -0.5655,3.4331 -1.1783,4.8986 z m 2.2243,0.9164 c -0.9133,-0.3764 0.3271,-4.8756 0.7396,-5.9295 1.9698,0.8113 2.241,-0.2205 1.487,2.0171 -0.4059,1.2042 -0.1618,1.745 -0.7324,3.1108 l -0.1015,0.2418 c -0.2359,0.5658 -0.8141,0.7982 -1.3927,0.5598 z m 4.5159,-0.407 c -0.233,0.557 -0.4751,0.6542 -1.0449,0.42 -1.2186,-0.5023 0.0448,-4.2652 0.639,-5.6877 l 1.73,0.7127 -1.1404,4.3338 z m -13.9567,-16.5167 c -0.2219,1.3536 -0.5422,6.2941 -2.3241,5.5605 -1.4329,-0.5908 -0.3438,-4.6282 0.2458,-6.1328 z m 5.2932,8.1309 c -0.2832,0.1103 -0.7903,0.2415 -1.1906,0.077 -1.1171,-0.4604 0.4493,-5.609 0.8963,-6.9985 l 2.0798,0.5672 -1.7855,6.3547 z m -10.9761,-4.2378 c -1.1497,-0.4734 -0.0683,-4.6907 0.4921,-6.0307 l 0.7416,0.305 c 0.6675,0.2753 0.7296,0.1653 1.3368,0.267 l -1.279,5.1407 c -0.1369,0.5794 -0.5513,0.623 -1.0446,0.4201 z m 8.0657,2.1889 c -0.1111,0.4935 -0.4252,0.6577 -0.752,1.1075 -1.995,-0.8739 -0.7608,-5.1128 0.0539,-7.0622 l 0.7415,0.3053 c 0.6678,0.2752 0.7296,0.1655 1.3368,0.2673 z m 6.6286,2.164 c -0.0837,0.3424 -0.5689,0.3322 -0.9437,0.178 l -0.7412,-0.3056 -0.0942,-1.1695 1.1248,-4.9113 2.1368,0.5785 z m 3.4426,0.8124 -0.2746,-0.074 c -1.7042,-0.746 -1.0585,-3.7063 -0.406,-5.2679 l 0.3034,-0.7251 1.8907,0.487 -1.5135,5.5803 z m 3.3991,-0.5448 c -0.0131,0.046 -0.3836,0.4082 -0.5508,0.6233 l -0.9887,-0.407 0.7852,-5.6035 2.1804,0.5845 z m -13.9343,-18.2126 c -0.2075,1.7853 -0.5066,8.2352 -2.1708,7.5288 -1.3388,-0.5686 -0.3217,-5.9525 0.2294,-7.9846 z m 4.9442,9.8133 c -0.2648,0.1817 -0.7384,0.4215 -1.1123,0.263 -1.0435,-0.443 0.4198,-7.3338 0.8373,-9.1964 l 1.9426,0.449 z m -10.2526,-3.9839 c -1.0741,-0.4558 -0.0638,-6.0723 0.4597,-7.8862 l 0.6925,0.2934 c 0.6237,0.265 0.6818,0.1136 1.2487,0.1621 l -1.1948,6.8406 c -0.1276,0.7699 -0.5148,0.8838 -0.9754,0.6882 l -0.2307,-0.098 z m 7.5339,1.7283 c -0.1038,0.6545 -0.3972,0.9111 -0.7024,1.539 -1.8635,-0.8587 -0.7107,-6.5243 0.0504,-9.1636 l 0.6928,0.294 c 0.6236,0.265 0.6814,0.1145 1.2487,0.1624 z m 6.1914,1.8927 c -0.0777,0.4556 -0.5312,0.5091 -0.8813,0.3609 l -0.6925,-0.2943 -0.0879,-1.5035 1.0506,-6.5219 1.9964,0.4561 z m 3.2159,0.5797 -0.2562,-0.058 c -1.592,-0.7327 -0.989,-4.6596 -0.3796,-6.7737 l 0.2835,-0.9819 1.7657,0.3711 -1.4134,7.4429 z m 36.6333,-10.9244 h 4.7662 c 0,2.6121 0,4.4135 0,7.0259 -1.5892,2.0418 -3.178,2.0415 -4.7662,0 z m -7.0135,0 h 4.7659 c 0,2.4718 0,4.1763 0,6.6483 -1.5888,1.9324 -3.1777,1.9324 -4.7659,0 z m -6.3332,0 h 4.4581 c 0,2.3119 0,3.9064 0,6.2189 -1.4862,1.8074 -2.9724,1.8074 -4.4581,0 z m -6.2424,0 h 4.1408 c 0,2.1815 0,3.6861 0,5.8683 -1.3804,1.7056 -2.7609,1.7056 -4.1408,0 z m -5.6543,0 h 3.869 c 0,1.8929 0,3.1966 0,5.0882 -1.29,1.4794 -2.5798,1.4794 -3.869,0 z m -5.1117,0 h 3.4166 c 0,1.7274 0,2.9165 0,4.6428 -1.1393,1.3493 -2.2779,1.3493 -3.4166,0 z m 23.3416,12.6666 h 4.7659 c 0,3.1345 0,5.2962 0,8.4311 -1.5888,2.4505 -3.1777,2.4505 -4.7659,0 z m -6.3332,0 h 4.4581 c 0,2.9321 0,4.9538 0,7.8862 -1.4862,2.2921 -2.9724,2.2921 -4.4581,0 z m -6.2424,0 h 4.1408 c 0,2.7666 0,4.6746 0,7.4418 -1.3804,2.1631 -2.7609,2.1631 -4.1408,0 z m -5.6543,0 h 3.869 c 0,2.4004 0,4.0535 0,6.4528 -1.29,1.8759 -2.5798,1.8759 -3.869,0 z m -5.1117,0 h 3.4166 c 0,2.1903 0,3.6983 0,5.8878 -1.1393,1.7107 -2.2779,1.7107 -3.4166,0 z m 0,11.7161 h 3.4166 c 0,1.7969 0,3.0334 0,4.8294 -1.1393,1.4026 -2.2779,1.4026 -3.4166,0 z m 4.2761,1.5381 h 3.031 c 0,1.7969 0,3.0334 0,4.8294 -1.0108,1.4026 -2.0211,1.4026 -3.031,0 z m 3.9809,0.9048 h 3.4039 c 0,2.115 0,3.57 0,5.6838 -1.135,1.6506 -2.2694,1.6506 -3.4039,0 z m 5.0244,0.9953 h 3.5819 c 0,2.2252 0,3.7567 0,5.9808 -1.1945,1.7371 -2.3885,1.7371 -3.5819,0 z m 5.9262,0.3166 h 3.9821 c 0,2.4741 0,4.1769 0,6.6498 -1.3278,1.931 -2.6553,1.931 -3.9821,0 z m 36.2749,-28.1375 h -4.7662 c 0,2.6121 0,4.4135 0,7.0259 1.5889,2.0418 3.178,2.0415 4.7662,0 z m 7.0135,0 h -4.7659 c 0,2.4718 0,4.1763 0,6.6483 1.5888,1.9324 3.1776,1.9321 4.7659,0 z m 6.3332,0 h -4.4581 c 0,2.3119 0,3.9064 0,6.2189 1.4862,1.8074 2.9724,1.8068 4.4581,0 z m 6.2424,0 h -4.1411 c 0,2.1815 0,3.6864 0,5.8683 1.3807,1.7056 2.7612,1.7053 4.1411,0 z m 5.6543,0 h -3.869 c 0,1.8918 0,3.1966 0,5.0884 1.29,1.4792 2.5795,1.4789 3.869,0 z m 5.1117,0 h -3.4166 c 0,1.726 0,2.9165 0,4.6428 1.139,1.3496 2.2779,1.3493 3.4166,0 z m -23.5213,12.6666 h -4.7659 c 0,3.1345 0,5.2965 0,8.4314 1.5888,2.4502 3.1776,2.4499 4.7659,0 z m 6.3331,0 h -4.458 c 0,2.9319 0,4.9538 0,7.8862 1.4862,2.2919 2.9724,2.2916 4.458,0 z m 6.2425,0 h -4.1411 c 0,2.7669 0,4.6749 0,7.4421 1.3807,2.1628 2.7612,2.1622 4.1411,0 z m 5.6543,0 h -3.869 c 0,2.3992 0,4.0538 0,6.4531 1.29,1.8751 2.5795,1.8751 3.869,0 z m 5.1117,0 h -3.4166 c 0,2.1889 0,3.6986 0,5.8878 1.1389,1.7113 2.2779,1.7107 3.4166,0 z m 111.3018,-12.4143 h -2.8585 v 3.706 h 2.8585 z m -10.8743,0 h -1.6251 v 3.706 h 1.6251 z m 0,5.559 h -1.6251 v 2.9194 h 1.6251 z m -3.8676,-0.7864 h -2.2977 v 3.7058 h 2.2977 z m 0,6.2887 h -2.2977 v 2.4707 h 2.2977 z m 3.8676,0 h -1.7376 v 2.4707 h 1.7376 z m 3.3075,0 h -1.7379 v 1.516 h 1.7379 z m 0.2239,-5.5023 h -1.4567 v 2.9194 h 1.4567 z m 3.6992,0 h -1.4567 v 2.9194 h 1.4567 z m -3.6992,-1.6285 h -1.4567 v 0.8986 h 1.4567 z m 3.6992,0 h -1.4567 v 0.8986 h 1.4567 z m 5.6055,1.6285 h -1.4567 v 2.9194 h 1.4567 z m 3.6995,0 h -1.457 v 2.9194 h 1.457 z m -3.6995,-1.6285 h -1.4567 v 0.8986 h 1.4567 z m 3.6995,0 h -1.457 v 0.8986 h 1.457 z m 3.6995,-3.9305 h -1.6251 v 3.706 h 1.6251 z m 0,5.559 h -1.6251 v 2.9194 h 1.6251 z m 4.2041,0 h -1.6251 v 2.9194 h 1.6251 z m 0,5.6707 h -1.6251 v 2.9194 h 1.6251 z m -7.8474,-0.1684 h -1.7377 v 1.516 h 1.7377 z m 3.5875,0 h -1.7379 v 1.516 h 1.7379 z m -14.7073,7.8823 h 1.2181 v -3.0569 h -1.2181 z m 2.0018,0 h 1.2181 v -3.0569 h -1.2181 z m 2.0279,0 h 1.2181 v -3.0569 h -1.2181 z m 2.0019,0 h 1.218 v -3.0569 h -1.218 z m -63.3473,2.573 v -17.9935 h 1.8309 v 17.9935 z m 3.6618,0 v -17.9935 h 1.8309 v 17.9935 z m 3.6615,0 v -17.9935 h 1.8312 v 17.9935 z m 3.6621,0 v -17.9935 h 1.8312 v 17.9935 h -0.9885 z m 3.6618,0 v -17.9935 h 1.8312 v 17.9935 z m 3.6621,0 v -17.9935 h 1.8306 v 17.9935 z m 3.6615,0 v -17.9935 h 1.8312 v 17.9935 z m -64.0491,-4.3852 h 4.1238 v -4.1238 h -4.1238 z m 6.103,0 h 4.1238 v -4.1238 h -4.1238 z m 18.8867,0 h 4.1238 v -4.1238 h -4.1238 z m 6.103,0 h 4.1238 v -4.1238 h -4.1238 z m -175.849,7.5223 h 0.9757 v -1.5639 h -0.9757 z m 3.1584,0 h 0.9757 v -1.5639 h -0.9757 z m -39.3545,-20.3411 h 1.6058 v -3.3387 h -1.6058 z m 2.3105,0 h 1.9068 v -3.3387 h -1.9068 z m 10.2364,0 h -1.6058 v -3.3387 h 1.6058 z m -2.3105,0 h -1.9068 v -3.3387 h 1.9068 z m -17.0606,-6.0163 h -3.2111 v 4.9899 h 3.2111 z m 33.1209,2.6768 h 1.061 v 13.153 h -1.061 v 0.796 h 23.0867 v -0.796 h -0.7069 v -13.153 h 0.9723 v -0.7957 h -0.9723 -0.8507 -1.061 v 0.7957 h 1.061 v 13.153 h -4.1003 v -13.153 h 0.9726 v -0.7957 h -0.9726 -0.8507 -1.061 v 0.7957 h 1.061 v 13.153 h -9.2732 v -13.153 h 1.0167 v -0.7957 h -1.0167 -0.8507 -1.0168 v 0.7957 h 1.0168 v 13.153 h -4.5425 v -13.153 h 0.9725 v -0.7957 h -0.9725 -0.8507 -1.061 z m 20.3901,5.7608 v -3.831 h -1.7294 v 3.831 z m 0,5.1812 v -2.4143 h -1.7294 v 2.4143 z m -15.1188,-5.1812 v -3.831 h -1.8675 v 3.831 z m 0,5.1812 v -2.4143 h -1.8675 v 2.4143 z m 18.9207,-0.8203 h 1.724 v -2.7015 h -1.724 z m 0,-4.5171 h 1.724 v -3.2326 h -1.724 z m 3.6249,4.5171 h 1.7241 v -2.7015 h -1.7241 z m 0,-4.5171 h 1.7241 v -3.2326 h -1.7241 z m 3.625,4.5171 h 1.7237 v -2.7015 h -1.7237 z m 0,-4.5171 h 1.7237 v -3.2326 h -1.7237 z m -41.5106,4.5171 h 1.724 v -2.7015 h -1.724 z m 0,-4.5171 h 1.724 v -3.2326 h -1.724 z m 3.625,4.5171 h 1.724 v -2.7015 h -1.724 z m 0,-4.5171 h 1.724 v -3.2326 h -1.724 z m 3.6249,4.5171 h 1.7238 v -2.7015 h -1.7238 z m 0,-4.5171 h 1.7238 v -3.2326 h -1.7238 z"
         style="fill:#cfa64b;fill-opacity:1;fill-rule:evenodd;stroke:none"
         transform="matrix(0.35277776,0,0,-0.35277776,-63.668416,740.55472)"
         clip-path="url(#clipPath14)" />
      <path
         id="path45"
         d="m 8.5658156,-4.6628281 c 0,0.6445312 0,1.2304687 0.1171875,1.640625 0.058594,0.3984375 0.234375,0.6914062 0.4570313,0.984375 0.234375,0.234375 0.6445312,0.3515625 1.1132816,0.46875 0.46875,0.1171875 1.042968,0.1757812 1.863281,0.1757812 h 2.097656 c 1.101563,0 1.980469,-0.1171875 2.683594,-0.2929687 0.691406,-0.1757813 1.277344,-0.46875 1.746094,-0.9375 0.457031,-0.3984375 0.867187,-0.984375 1.277343,-1.6875 0.351563,-0.703125 0.761719,-1.5703125 1.160157,-2.5664063 l 1.113281,0.234375 c -0.117188,0.5859375 -0.292969,1.171875 -0.410156,1.7460938 -0.117188,0.6445312 -0.234375,1.2890625 -0.351563,1.875 -0.117187,0.6328125 -0.234375,1.1601562 -0.292969,1.6875 -0.05859,0.57421872 -0.105468,0.98437497 -0.164062,1.33593747 -3.738281,0 -6.820313,0 -9.152344,-0.05859375 -2.3320311,0 -4.0781249,0 -5.2382811,0 -0.3515625,0 -0.7617188,0 -1.2304688,0 -0.4570312,0 -0.9257812,0 -1.453125,0 -0.46875,0 -0.9257812,0.05859375 -1.3945312,0.05859375 -0.46875,0 -0.8789063,0 -1.171875,0 L 1.2181594,-0.99485938 c 0.8789062,-0.046875 1.5820312,-0.10546872 2.0976562,-0.22265622 0.5273438,-0.1171875 0.9375,-0.3515625 1.2304688,-0.5859375 0.2929687,-0.234375 0.46875,-0.6445313 0.5742187,-1.0546875 0.1171875,-0.4570313 0.1171875,-1.0429688 0.1171875,-1.7460938 V -23.764391 c 0,-0.46875 0,-0.820312 -0.1171875,-1.113281 -0.058594,-0.339844 -0.2226562,-0.574219 -0.515625,-0.75 -0.234375,-0.234375 -0.5859375,-0.351562 -1.1132812,-0.46875 -0.46875,-0.05859 -1.1015625,-0.175781 -1.921875,-0.175781 l 0.058594,-1.042969 c 0.4101563,0 0.8203125,0 1.2890625,0 0.4570313,0.05859 0.9257813,0.05859 1.3945313,0.05859 0.46875,0 0.9257812,0 1.3945312,0 0.46875,0 0.9375,0 1.3359375,0 0.703125,0 2.2734375,0 4.6640626,0 2.332031,-0.05859 5.367187,-0.05859 9.035156,-0.05859 -0.117188,0.984375 -0.175781,1.980469 -0.234375,3.023438 -0.05859,1.113281 -0.117188,2.214843 -0.117188,3.433593 h -1.171875 c -0.164062,-0.984375 -0.339843,-1.804687 -0.574218,-2.4375 -0.175782,-0.644531 -0.46875,-1.171875 -0.878907,-1.582031 -0.351562,-0.339844 -0.867187,-0.632812 -1.453125,-0.808594 -0.644531,-0.175781 -1.394531,-0.234375 -2.390625,-0.234375 H 9.9017531 c -0.5859375,0 -0.984375,0.05859 -1.1015625,0.175782 -0.1757812,0.117187 -0.234375,0.410156 -0.234375,0.867187 v 9.84375 l 9.6093754,-0.28125 0.175781,0.234375 -0.05859,2.320313 c -1.746094,-0.117188 -3.433594,-0.234375 -5.132812,-0.292969 -1.628907,-0.04687 -3.1992191,-0.105469 -4.5937504,-0.164063 z M 35.126363,-11.354234 c -0.05859,-0.585938 -0.234375,-1.171875 -0.46875,-1.640625 -0.234375,-0.515625 -0.515625,-0.984375 -0.925782,-1.335938 -0.410156,-0.351562 -0.820312,-0.644531 -1.347656,-0.808594 -0.515625,-0.234375 -1.042969,-0.292968 -1.628906,-0.292968 -0.410156,0 -0.75,0.05859 -1.042969,0.175781 -0.351562,0.117187 -0.644531,0.222656 -0.878906,0.457031 -0.292969,0.234375 -0.46875,0.46875 -0.632813,0.761719 -0.175781,0.351562 -0.234375,0.703125 -0.234375,1.101562 0,0.46875 0.117188,0.878907 0.339844,1.230469 0.234375,0.351563 0.585938,0.644531 0.9375,0.925781 0.410156,0.292969 0.878906,0.527344 1.335938,0.761719 0.527343,0.1757814 1.054687,0.4101564 1.582031,0.5859376 0.574219,0.2929688 1.160156,0.515625 1.746094,0.8085938 0.574218,0.234375 1.101562,0.5859375 1.570312,0.9375 0.410156,0.4101562 0.820313,0.8085937 1.042969,1.3359375 0.292969,0.5273437 0.410156,1.1132812 0.410156,1.8046875 0,0.9375 -0.175781,1.6875 -0.527344,2.3320312 -0.398437,0.5859375 -0.867187,1.171875 -1.511718,1.57031252 -0.585938,0.41015625 -1.277344,0.703125 -2.039063,0.9375 -0.75,0.17578125 -1.570312,0.29296875 -2.332031,0.29296875 -0.457031,0 -0.984375,-0.0585938 -1.511719,-0.1171875 -0.46875,-0.0585938 -0.925781,-0.17578125 -1.394531,-0.234375 -0.410156,-0.1171875 -0.761719,-0.234375 -1.113281,-0.29296875 -0.398438,-0.1171875 -0.808594,-0.17578125 -1.21875,-0.17578125 -0.05859,-0.3515625 -0.05859,-0.76171875 -0.117188,-1.21874997 -0.05859,-0.5273438 -0.117187,-1.0546875 -0.175781,-1.5234375 -0.05859,-0.515625 -0.117188,-1.0429688 -0.175781,-1.5117188 -0.05859,-0.4101562 -0.117188,-0.8085937 -0.175782,-1.0429687 l 0.9375,-0.2929688 c 0.292969,0.6445313 0.585938,1.2773438 0.867188,1.921875 0.351562,0.5859375 0.703125,1.1015625 1.171875,1.5703125 0.46875,0.46875 0.925781,0.8789063 1.511719,1.1132813 0.585937,0.28124997 1.21875,0.45703122 2.039062,0.45703122 0.761719,0 1.394531,-0.234375 1.980469,-0.63281252 0.527344,-0.4101562 0.820312,-0.9960937 0.820312,-1.8632812 0,-0.46875 -0.117187,-0.8789063 -0.292968,-1.2304688 -0.234375,-0.4101562 -0.527344,-0.6914062 -0.9375,-0.984375 -0.351563,-0.2929687 -0.75,-0.5859375 -1.21875,-0.7617187 -0.46875,-0.234375 -0.9375,-0.46875 -1.453125,-0.6445313 -0.585938,-0.2226562 -1.171875,-0.515625 -1.757813,-0.8085937 -0.574219,-0.234375 -1.101562,-0.5859375 -1.570312,-0.9375 -0.46875,-0.4101563 -0.808594,-0.8085938 -1.101563,-1.3359375 -0.292969,-0.5273439 -0.410156,-1.1015629 -0.410156,-1.8632809 0,-0.878907 0.175781,-1.628907 0.527344,-2.214844 0.410156,-0.644531 0.867187,-1.160156 1.453125,-1.570313 0.585937,-0.410156 1.21875,-0.703125 1.980468,-0.878906 0.703125,-0.234375 1.453125,-0.292969 2.214844,-0.292969 0.761719,0 1.511719,0.05859 2.273438,0.234375 0.691406,0.117188 1.570312,0.234375 2.507812,0.292969 -0.05859,0.585938 -0.05859,1.171875 -0.117187,1.6875 0,0.527344 0,1.113281 0,1.746094 v 1.40625 z m 20.797851,-4.957032 c -0.05859,0.46875 -0.117187,1.054688 -0.175781,1.628907 -0.05859,0.585937 -0.05859,1.230468 -0.117188,1.804687 0,0.585938 -0.05859,1.171875 -0.05859,1.699219 0,0.515625 -0.05859,0.984375 -0.05859,1.2773436 V 9.3762344 c 0,0.46875 0.05859,0.8203126 0.117187,1.1132816 0.05859,0.292968 0.175782,0.46875 0.351563,0.632812 0.234375,0.175781 0.527344,0.234375 0.9375,0.292969 0.398437,0.05859 0.925781,0.117187 1.628906,0.175781 l -0.117187,1.054688 c -0.585938,0 -1.277344,0 -2.15625,-0.05859 -0.820313,0 -1.6875,0 -2.566407,0 -0.410156,0 -0.75,0 -1.21875,0 -0.410156,0 -0.878906,0 -1.289062,0 -0.457031,0 -0.867188,0 -1.277344,0.05859 -0.351562,0 -0.703125,0 -0.925781,0 l -0.117188,-0.9375 c 0.867188,-0.05859 1.511719,-0.117188 1.980469,-0.234375 0.457031,-0.117188 0.867188,-0.292969 1.101563,-0.515625 0.234375,-0.234375 0.410156,-0.585938 0.46875,-0.9960941 0.05859,-0.46875 0.05859,-0.984375 0.05859,-1.7460938 v -9.609375 c -0.9375,0.69140627 -1.921875,1.16015627 -2.859375,1.51171877 -0.925781,0.29296875 -1.863281,0.41015625 -2.789062,0.41015625 -1.054688,0 -2.097656,-0.17578125 -2.976563,-0.64453125 -0.925781,-0.41015625 -1.6875,-0.92578127 -2.332031,-1.68749997 -0.574219,-0.703125 -1.101562,-1.5117188 -1.453125,-2.5078125 -0.351562,-0.9257813 -0.527344,-1.9804688 -0.527344,-3.0820313 0,-1.40625 0.292969,-2.6835941 0.820313,-3.7851561 0.527344,-1.171875 1.21875,-2.15625 2.15625,-2.976563 0.867187,-0.820312 1.980469,-1.453125 3.140625,-1.921875 1.230469,-0.46875 2.507812,-0.703125 3.902344,-0.703125 0.46875,0 1.171875,0.05859 1.980468,0.175782 0.820313,0.117187 1.628907,0.292968 2.390625,0.585937 0.292969,-0.05859 0.585938,-0.175781 0.878907,-0.292969 0.351562,-0.05859 0.574218,-0.175781 0.808593,-0.234375 z m -3.433594,2.742188 c -0.527343,-0.585938 -1.171875,-0.996094 -1.921875,-1.289063 -0.703125,-0.28125 -1.453125,-0.457031 -2.273437,-0.457031 -0.585938,0 -1.21875,0.117188 -1.804688,0.398438 -0.644531,0.234375 -1.171875,0.644531 -1.6875,1.171875 -0.527343,0.527343 -0.9375,1.21875 -1.289062,2.097656 -0.292969,0.867187 -0.457031,1.9218749 -0.457031,3.1406249 0,1.171875 0.164062,2.0976562 0.515625,2.9765625 0.292968,0.8085937 0.761718,1.5703125 1.289062,2.15625 0.515625,0.5742187 1.160156,0.984375 1.804688,1.3359375 0.632812,0.2929687 1.335937,0.4101562 2.039062,0.4101562 0.632813,0 1.335938,-0.058594 1.980469,-0.2929687 0.632812,-0.1757813 1.277344,-0.46875 1.804687,-0.8789063 z m 20.625,13.74609362 c 0,-0.3515625 0.05859,-0.76171875 0.05859,-1.21875002 0,-0.46875 0.05859,-0.8789062 0.05859,-1.2304687 -0.996094,0.9375 -2.097656,1.62890622 -3.210938,2.09765622 -1.101562,0.52734375 -2.214843,0.76171875 -3.257812,0.76171875 -0.703125,0 -1.335938,-0.1171875 -1.921875,-0.3515625 -0.585938,-0.234375 -1.113281,-0.5859375 -1.511719,-1.0546875 -0.46875,-0.51562497 -0.820312,-1.10156247 -1.054687,-1.86328127 -0.234375,-0.75 -0.351563,-1.6875 -0.351563,-2.7304687 v -6.8203129 c 0,-0.527343 -0.05859,-0.925781 -0.117187,-1.277343 -0.05859,-0.292969 -0.175782,-0.527344 -0.339844,-0.703125 -0.175781,-0.175782 -0.410156,-0.292969 -0.761719,-0.410157 -0.351562,-0.05859 -0.761719,-0.175781 -1.335937,-0.234375 l -0.05859,-0.867187 c 0.632812,-0.05859 1.21875,-0.117188 1.804687,-0.234375 0.632813,-0.117188 1.160157,-0.175781 1.6875,-0.292969 0.527344,-0.117187 0.984375,-0.175781 1.394532,-0.292969 0.351562,-0.05859 0.644531,-0.175781 0.878906,-0.234375 l 0.292969,0.234375 c -0.05859,0.46875 -0.117188,0.996094 -0.117188,1.511719 -0.05859,0.527344 -0.05859,1.054688 -0.117187,1.582031 0,0.515625 -0.05859,0.984375 -0.05859,1.453125 0,0.46875 0,0.878907 0,1.21875 v 4.2539066 c 0,0.8789063 0.05859,1.6289063 0.292969,2.2734375 0.175781,0.5859375 0.398437,1.1132813 0.691406,1.5117188 0.292969,0.3515625 0.644531,0.6445312 1.113281,0.7617187 0.410156,0.1757813 0.808594,0.2929688 1.335938,0.2929688 0.761718,0 1.570312,-0.1757813 2.390625,-0.5273438 0.808593,-0.3515625 1.570312,-0.7617187 2.332031,-1.3359375 v -8.6835941 c 0,-0.527343 -0.05859,-0.925781 -0.117188,-1.277343 -0.05859,-0.292969 -0.175781,-0.527344 -0.351562,-0.703125 -0.175781,-0.175782 -0.46875,-0.292969 -0.878906,-0.410157 -0.339844,-0.05859 -0.867188,-0.175781 -1.453125,-0.234375 l -0.05859,-0.867187 c 0.644531,-0.05859 1.289062,-0.117188 1.921875,-0.234375 0.644531,-0.117188 1.230469,-0.175781 1.746094,-0.292969 0.527343,-0.117187 0.996093,-0.234375 1.40625,-0.292969 0.339843,-0.05859 0.632812,-0.175781 0.808593,-0.234375 l 0.351563,0.234375 c -0.05859,0.46875 -0.117188,0.996094 -0.175781,1.511719 0,0.527344 -0.05859,1.054688 -0.05859,1.582031 -0.05859,0.515625 -0.05859,0.984375 -0.05859,1.453125 -0.05859,0.46875 -0.05859,0.878907 -0.05859,1.21875 v 6.6445316 c 0,0.5273438 0.05859,0.9375 0.117188,1.2773438 0.05859,0.2929687 0.175781,0.5273437 0.351562,0.703125 0.234375,0.1757812 0.527344,0.2929687 0.878907,0.3515625 0.398437,0.1171875 0.925781,0.1757812 1.570312,0.2929687 l 0.117188,0.80859377 c -0.585938,0.0585938 -1.171875,0.1171875 -1.746094,0.234375 -0.585938,0.0585938 -1.171875,0.17578125 -1.699219,0.234375 -0.574219,0.1171875 -1.042969,0.234375 -1.453125,0.3515625 -0.46875,0.1171875 -0.808594,0.234375 -0.984375,0.29296875 z M 90.18105,0.00123437 c -0.585937,0 -1.335937,0 -2.15625,-0.05859375 -0.878906,0 -1.746094,0 -2.683594,0 -0.691406,0 -1.453125,0 -2.15625,0 -0.691406,0.05859375 -1.277343,0.05859375 -1.804687,0.05859375 l -0.05859,-0.9375 c 0.585938,-0.0585938 1.113281,-0.10546877 1.464844,-0.22265627 0.398437,-0.1171875 0.691406,-0.2929687 0.867187,-0.5273437 0.234375,-0.234375 0.351563,-0.5859375 0.410157,-0.9960938 0.05859,-0.4570312 0.117187,-0.984375 0.117187,-1.7460937 v -7.4531249 c 0,-0.527344 -0.05859,-0.9375 -0.117187,-1.277344 -0.05859,-0.292969 -0.175782,-0.527344 -0.351563,-0.703125 -0.175781,-0.175781 -0.410156,-0.292969 -0.75,-0.410156 -0.351562,-0.05859 -0.820312,-0.175781 -1.40625,-0.292969 l -0.05859,-0.808594 c 0.585938,-0.117187 1.171875,-0.234375 1.746094,-0.351562 0.585938,-0.117188 1.171875,-0.234375 1.699219,-0.351563 0.515625,-0.175781 0.984375,-0.292968 1.394531,-0.410156 0.410156,-0.117187 0.703125,-0.234375 0.925781,-0.292969 l 0.292969,0.234375 c -0.05859,0.46875 -0.117187,0.9375 -0.175781,1.511719 -0.05859,0.527344 -0.05859,1.054688 -0.05859,1.582031 -0.05859,0.515625 -0.05859,0.984375 -0.05859,1.453125 0,0.46875 0,0.878907 0,1.21875 v 7.5234379 c 0,0.4570312 0,0.8085937 0.05859,1.1015625 0.05859,0.2929687 0.175781,0.46875 0.410156,0.6445312 0.175782,0.1757813 0.46875,0.234375 0.878907,0.2929688 0.410156,0.058594 0.925781,0.1171875 1.628906,0.1757812 z M 83.595113,-23.588609 c 0,-0.644532 0.175781,-1.171875 0.527343,-1.511719 0.410157,-0.410156 0.9375,-0.585938 1.511719,-0.585938 0.703125,0 1.230469,0.175782 1.570313,0.585938 0.410156,0.339844 0.585937,0.867187 0.585937,1.511719 0,0.574218 -0.175781,1.101562 -0.585937,1.511718 -0.339844,0.351563 -0.867188,0.585938 -1.570313,0.585938 -0.574219,0 -1.101562,-0.234375 -1.511719,-0.585938 -0.351562,-0.410156 -0.527343,-0.9375 -0.527343,-1.511718 z M 100.60781,0.00123437 c -0.58594,0 -1.277346,0 -2.039065,-0.05859375 -0.761718,0 -1.570312,0 -2.507812,0 -0.75,0 -1.453125,0 -2.214844,0 -0.691406,0.05859375 -1.335937,0.05859375 -1.863281,0.05859375 l -0.117188,-0.9375 c 0.644532,-0.0585938 1.171875,-0.10546877 1.582032,-0.22265627 0.339843,-0.1171875 0.691406,-0.2929687 0.867187,-0.5273437 0.234375,-0.234375 0.410156,-0.5859375 0.46875,-0.9960938 0.05859,-0.4570312 0.05859,-0.984375 0.05859,-1.7460937 v -7.3359379 c 0,-0.527343 0,-0.996093 -0.05859,-1.289062 -0.05859,-0.28125 -0.175781,-0.515625 -0.351562,-0.691406 -0.175782,-0.175782 -0.46875,-0.351563 -0.808594,-0.410157 -0.351563,-0.117187 -0.820313,-0.234375 -1.40625,-0.292968 l -0.05859,-0.808594 c 0.46875,-0.05859 0.996094,-0.175781 1.523438,-0.351563 0.515625,-0.117187 1.042968,-0.234375 1.570312,-0.410156 0.527344,-0.117187 0.984375,-0.292969 1.453125,-0.410156 0.46875,-0.117188 0.820313,-0.234375 1.101563,-0.351563 l 0.351562,0.234375 c -0.05859,0.410157 -0.117187,0.761719 -0.175781,1.171875 -0.05859,0.398438 -0.05859,0.75 -0.05859,1.160157 1.054688,-0.820313 2.097658,-1.453125 3.269538,-1.863282 1.16015,-0.46875 2.27343,-0.703125 3.25781,-0.703125 0.70312,0 1.34765,0.117188 1.92187,0.292969 0.64453,0.234375 1.17188,0.585938 1.57032,1.054688 0.41015,0.457031 0.76171,1.101562 1.05468,1.804687 0.23438,0.75 0.35157,1.628906 0.35157,2.671875 v 7.6992189 c 0,0.4570312 0.0586,0.8085937 0.11718,1.1015625 0.0586,0.2929687 0.17578,0.46875 0.35157,0.6445312 0.16406,0.1757813 0.45703,0.234375 0.80859,0.2929688 0.35156,0.058594 0.82031,0.1171875 1.45312,0.1757812 l -0.0586,1.04296877 c -0.63281,0 -1.27734,0 -2.03906,-0.05859375 -0.69141,0 -1.51172,0 -2.4375,0 -0.76172,0 -1.46485,0 -2.09766,0 -0.70312,0.05859375 -1.28906,0.05859375 -1.80469,0.05859375 l -0.11718,-0.9375 c 0.57422,-0.0585938 1.10156,-0.10546877 1.45312,-0.22265627 0.35156,-0.058594 0.64453,-0.234375 0.82031,-0.46875 0.16407,-0.1757812 0.28125,-0.5273437 0.33985,-0.9375 0.0586,-0.4101562 0.11719,-0.9257812 0.11719,-1.6875 v -6.0000001 c 0,-1.511719 -0.35157,-2.625 -1.04297,-3.257812 -0.64453,-0.703125 -1.51172,-1.054688 -2.50782,-1.054688 -0.76171,0 -1.51171,0.175781 -2.33203,0.46875 -0.808593,0.292969 -1.628905,0.703125 -2.449218,1.21875 v 9.6210939 c 0,0.4570312 0.05859,0.8085937 0.05859,1.1015625 0.05859,0.2929687 0.175781,0.46875 0.351562,0.6445312 0.234375,0.1757813 0.527344,0.234375 0.878907,0.2929688 0.351562,0.058594 0.867179,0.1171875 1.453119,0.1757812 z m 23.41406,-9.19921877 c 0.0586,-0.1171875 0.0586,-0.2929687 0.0586,-0.46875 v -2.0976566 c 0,-0.9375 -0.22265,-1.746093 -0.6914,-2.390625 -0.46875,-0.644531 -1.23047,-0.925781 -2.21485,-0.925781 -0.58593,0 -1.05468,0.04687 -1.39453,0.28125 -0.41015,0.175781 -0.76172,0.46875 -0.99609,0.761719 -0.23438,0.351562 -0.46875,0.703125 -0.58594,1.101562 -0.11719,0.410157 -0.17578,0.878907 -0.17578,1.347657 -0.28125,0.234375 -0.69141,0.351562 -1.27734,0.351562 -0.41016,0 -0.82032,-0.117187 -1.21875,-0.292969 -0.35157,-0.175781 -0.58594,-0.527343 -0.58594,-0.878906 0,-0.351562 0.11719,-0.644531 0.35156,-0.984375 0.23438,-0.292969 0.58594,-0.644531 0.92578,-0.9375 0.41016,-0.292969 0.87891,-0.585937 1.34766,-0.867187 0.45703,-0.292969 0.92578,-0.527344 1.45312,-0.761719 1.21875,-0.527344 2.50782,-0.820313 3.72657,-0.820313 0.58593,0 1.17187,0.05859 1.6875,0.234375 0.52734,0.175782 0.99609,0.410157 1.40625,0.761719 0.39843,0.351563 0.6914,0.808594 0.92578,1.335938 0.23437,0.585937 0.35156,1.230468 0.35156,1.980468 0,1.171875 0,2.449219 -0.0586,3.9609379 0,1.4648437 -0.0586,3.1523437 -0.0586,4.9570312 0,0.75 0.17578,1.3359375 0.46875,1.7460938 0.23438,0.4101562 0.63282,0.5859375 1.16016,0.5859375 0.46875,0 0.9375,-0.1171875 1.45312,-0.46875 l 0.52735,0.74999997 c -0.41016,0.41015625 -0.92578,0.76171875 -1.57031,1.0546875 -0.64454,0.29296875 -1.27735,0.41015625 -1.92188,0.41015625 -0.70312,0 -1.27734,-0.17578125 -1.86328,-0.5859375 -0.52734,-0.3515625 -0.9375,-0.9375 -1.11328,-1.80468752 -0.17578,0.1171875 -0.45703,0.2929688 -0.86719,0.5859375 -0.41016,0.234375 -0.87891,0.51562502 -1.39453,0.80859377 -0.46875,0.29296875 -1.05469,0.52734375 -1.64063,0.703125 -0.57421,0.234375 -1.16015,0.3515625 -1.6875,0.3515625 -0.58593,0 -1.16015,-0.1171875 -1.6875,-0.3515625 -0.52734,-0.234375 -0.9375,-0.52734375 -1.33593,-0.9375 -0.35157,-0.39843747 -0.64453,-0.80859377 -0.82032,-1.33593747 -0.23437,-0.5273438 -0.35156,-1.0429688 -0.35156,-1.6289063 0,-0.9375 0.29297,-1.7460937 0.87891,-2.4492187 0.52734,-0.703125 1.27734,-1.21875 2.21484,-1.6289063 0.63281,-0.234375 1.51172,-0.5273437 2.61328,-0.8203125 1.11328,-0.2929687 2.44922,-0.46875 3.96094,-0.6328125 z m 0,5.9414063 c 0,-0.7617188 0,-1.5820313 0,-2.3320313 0,-0.7617187 0,-1.5117187 0,-2.3320312 -0.45703,0.058594 -0.98437,0.1171875 -1.51172,0.234375 -0.52734,0.058594 -1.04297,0.1757812 -1.51172,0.2929687 -0.52734,0.1757813 -0.99609,0.3515625 -1.39453,0.515625 -0.46875,0.234375 -0.82031,0.46875 -1.11328,0.7617188 -0.46875,0.4101562 -0.69141,0.9375 -0.69141,1.6289062 0,0.7617188 0.16407,1.4648438 0.57422,1.9804688 0.41016,0.5859375 1.05469,0.8789062 1.92188,0.8789062 0.58594,0 1.23047,-0.1757812 1.86328,-0.46875 0.70312,-0.2929687 1.28906,-0.6445312 1.86328,-1.1601562 z m 35.13867,-23.1914059 c -1.86328,0.410156 -3.44531,1.054687 -4.83984,1.863281 -1.33594,0.761719 -2.50781,1.6875 -3.49219,2.800781 -0.99609,1.042969 -1.74609,2.273438 -2.33203,3.609375 -0.58594,1.335938 -0.99609,2.742188 -1.27734,4.253906 0.98437,-0.703125 1.98046,-1.160156 2.96484,-1.511718 1.05469,-0.351563 2.03906,-0.527344 3.03516,-0.527344 0.98437,0 1.92187,0.175781 2.78906,0.527344 0.8789,0.351562 1.6875,0.808593 2.33203,1.453125 0.70312,0.585937 1.21875,1.394531 1.62891,2.273437 0.35156,0.925781 0.58593,1.9804689 0.58593,3.1406251 0,1.2890625 -0.23437,2.5078125 -0.64453,3.609375 -0.46875,1.1132813 -1.04297,2.0390625 -1.80469,2.9179688 -0.75,0.8203125 -1.6875,1.45312497 -2.78906,1.92187497 -1.05469,0.46875 -2.21484,0.703125 -3.5039,0.703125 -1.45313,0 -2.67188,-0.29296875 -3.72657,-0.87890625 -1.04297,-0.52734375 -1.92187,-1.27734372 -2.625,-2.27343752 -0.6914,-0.9257812 -1.21875,-2.0390625 -1.51172,-3.2578125 -0.35156,-1.21875 -0.52734,-2.5078125 -0.52734,-3.9023437 0,-2.3320309 0.35156,-4.5468749 1.05469,-6.5859379 0.70312,-1.980468 1.74609,-3.785156 3.02344,-5.355468 1.34765,-1.570313 2.97656,-2.859375 4.83984,-3.902344 1.92187,-1.054688 4.01953,-1.804688 6.41016,-2.273438 z m -12,13.980468 c -0.0586,0.292969 -0.11719,0.585938 -0.11719,0.878907 0,0.351562 0,0.632812 0,0.984375 0,0.8789059 0.0586,1.8632809 0.23438,3.0351559 0.16406,1.1015625 0.45703,2.15625 0.86719,3.140625 0.41015,0.9960937 0.99609,1.8046875 1.74609,2.4492187 0.70313,0.703125 1.62891,0.98437502 2.80078,0.98437502 0.75,0 1.39453,-0.10546872 1.92188,-0.45703122 0.52734,-0.3515625 0.98437,-0.7617188 1.33593,-1.3476563 0.35157,-0.515625 0.58594,-1.21875 0.76172,-1.921875 0.17578,-0.75 0.29297,-1.5703125 0.29297,-2.4375 0,-0.9375 -0.11719,-1.7578125 -0.35156,-2.5664062 -0.17578,-0.7617189 -0.52734,-1.3945309 -0.99609,-1.9804689 -0.39844,-0.527344 -0.98438,-0.9375 -1.6875,-1.230469 -0.69141,-0.28125 -1.51172,-0.457031 -2.44922,-0.457031 -0.69141,0 -1.45313,0.05859 -2.26172,0.234375 -0.82031,0.164063 -1.52344,0.398438 -2.09766,0.691406 z m 16.77539,-6.117187 c 0,-0.691406 -0.0586,-1.277344 -0.0586,-1.804688 -0.0586,-0.527343 -0.0586,-1.101562 -0.11719,-1.6875 1.10156,-0.644531 2.21485,-1.160156 3.31641,-1.570312 1.05469,-0.351563 2.27344,-0.527344 3.5625,-0.527344 0.92578,0 1.80469,0.117188 2.67187,0.351563 0.87891,0.234375 1.6875,0.585937 2.39063,1.042968 0.64453,0.46875 1.21875,1.054688 1.6875,1.746094 0.41015,0.703125 0.64453,1.523438 0.64453,2.507813 0,0.234375 -0.0586,0.527343 -0.11719,0.9375 -0.0586,0.410156 -0.29297,0.867187 -0.52734,1.394531 -0.29297,0.527344 -0.69141,1.113281 -1.27735,1.746094 -0.52734,0.644531 -1.28906,1.289062 -2.21484,2.039062 0.76172,0.234375 1.51172,0.527344 2.15625,0.878906 0.69141,0.410157 1.33594,0.808594 1.80469,1.394532 0.52734,0.5273434 0.92578,1.1015621 1.21875,1.8046871 0.29297,0.6445313 0.46875,1.3945313 0.46875,2.2148438 0,1.6875 -0.41016,3.1992187 -1.10156,4.4882812 -0.76172,1.27734377 -1.69922,2.39062502 -2.85938,3.2578125 -1.16016,0.8789063 -2.44922,1.5117188 -3.96094,1.9804688 -1.45312,0.46875 -2.91797,0.6445312 -4.37109,0.6445312 -0.52734,0 -1.04297,0 -1.62891,-0.058594 -0.52734,-0.1171875 -1.04297,-0.234375 -1.45312,-0.4101563 -0.46875,-0.1757812 -0.87891,-0.46875 -1.17188,-0.7617187 -0.29297,-0.3398438 -0.39843,-0.75 -0.39843,-1.2773438 0,-0.5273437 0.16406,-0.92578123 0.51562,-1.33593748 0.41016,-0.3515625 0.87891,-0.64453125 1.40625,-0.703125 0.69141,0.76171875 1.51172,1.33593748 2.49609,1.74609378 0.9961,0.46875 2.03907,0.6445312 3.03516,0.6445312 0.92578,0 1.74609,-0.1757812 2.50781,-0.46875 0.69141,-0.3515625 1.33594,-0.74999998 1.86328,-1.33593748 0.45704,-0.5859375 0.86719,-1.2890625 1.10157,-2.03906252 0.29297,-0.8203125 0.41015,-1.6875 0.41015,-2.625 0,-0.984375 -0.11718,-1.8632812 -0.46875,-2.5664062 -0.29297,-0.75 -0.75,-1.3359375 -1.27734,-1.8046875 -0.58594,-0.515625 -1.23047,-0.8671875 -1.98047,-1.1015625 -0.82031,-0.2343751 -1.6875,-0.3515621 -2.625,-0.3515621 -0.41016,0 -0.87891,0 -1.33594,0.05859 -0.46875,0.05859 -0.9375,0.117187 -1.28906,0.2929681 L 166.725,-11.119859 c 0.8789,-0.234375 1.8164,-0.46875 2.80078,-0.761719 0.9375,-0.292969 1.74609,-0.703125 2.5664,-1.171875 0.75,-0.515625 1.33594,-1.101563 1.86328,-1.863281 0.46875,-0.75 0.70313,-1.6875 0.70313,-2.789063 0,-0.644531 -0.11719,-1.230469 -0.35156,-1.746094 -0.23438,-0.527343 -0.58594,-0.996093 -0.9961,-1.347656 -0.41015,-0.339844 -0.92578,-0.632812 -1.45312,-0.808594 -0.58594,-0.234375 -1.11328,-0.351562 -1.7461,-0.351562 -0.70312,0 -1.34765,0.117187 -1.98046,0.351562 -0.58594,0.234375 -1.05469,0.574219 -1.51172,0.984375 -0.41016,0.410157 -0.76172,0.9375 -1.05469,1.523438 -0.23438,0.574219 -0.41016,1.277344 -0.46875,1.980469 l -1.16016,-0.05859 z m 48.28711,3.269531 c -0.57422,0.05859 -1.04297,0.117188 -1.39453,0.234375 -0.35156,0.105469 -0.64453,0.222656 -0.87891,0.457031 -0.28125,0.175782 -0.51562,0.46875 -0.6914,0.820313 -0.23438,0.292969 -0.46875,0.75 -0.76172,1.335937 -0.41016,0.878907 -0.92578,1.863282 -1.39453,3.0351566 -0.52735,1.1601563 -1.05469,2.390625 -1.57031,3.6679688 -0.58594,1.2773437 -1.11329,2.625 -1.69922,3.9609375 -0.51563,1.39453122 -1.04297,2.74218747 -1.57032,4.078125 -0.35156,0.9257812 -0.75,1.8632812 -1.16015,2.8476562 -0.41016,0.9960938 -0.82031,1.921875 -1.28906,2.8007813 -0.39844,0.8789062 -0.86719,1.6289062 -1.33594,2.3320316 -0.46875,0.703125 -0.86719,1.21875 -1.33594,1.570312 -0.99609,0.820313 -1.92187,1.230469 -2.91797,1.230469 -0.46875,0 -0.86719,-0.175781 -1.27734,-0.46875 -0.35156,-0.292969 -0.52735,-0.703125 -0.52735,-1.289063 0,-0.398437 0.11719,-0.75 0.35157,-1.042968 0.23437,-0.3515629 0.52734,-0.5859379 0.92578,-0.8203129 0.17578,0.058594 0.35156,0.058594 0.52734,0.1171875 0.17578,0 0.35156,0.058594 0.52735,0.058594 0.41015,0 0.82031,-0.058594 1.21875,-0.234375 0.41015,-0.1171875 0.76171,-0.2929688 1.05468,-0.6328125 0.69141,-0.703125 1.33594,-1.6992188 1.98047,-3.0351563 0.64453,-1.2773437 1.33594,-2.7890625 1.98047,-4.546875 l 0.0586,-0.22265623 -0.0586,-0.41015625 c -0.41016,-0.99609375 -0.82031,-2.09765622 -1.23047,-3.21093752 -0.45703,-1.1601562 -0.86719,-2.3320312 -1.33594,-3.4335937 -0.46875,-1.1601563 -0.86718,-2.2734375 -1.33593,-3.3164063 -0.46875,-1.1132818 -0.87891,-2.0976568 -1.28907,-3.0351568 -0.22265,-0.585937 -0.45703,-1.042968 -0.63281,-1.335937 -0.23437,-0.351563 -0.46875,-0.644531 -0.70312,-0.820313 -0.23438,-0.175781 -0.58594,-0.351562 -0.92578,-0.410156 -0.35157,-0.04687 -0.76172,-0.105469 -1.34766,-0.164062 l 0.0586,-1.054688 c 0.64453,0 1.34766,0 2.09766,0.05859 0.82031,0 1.62891,0 2.44922,0 0.76172,0 1.45312,0 2.03906,0 0.64453,-0.05859 1.21875,-0.05859 1.74609,-0.05859 l 0.0586,0.9375 c -0.76172,0.117188 -1.27735,0.234375 -1.57031,0.339844 -0.29297,0.117187 -0.46875,0.351562 -0.46875,0.703125 0,0.117187 0.0586,0.351562 0.11718,0.527344 0.0586,0.234375 0.11719,0.46875 0.23438,0.75 l 3.78515,9.8554686 4.13672,-9.9140626 c 0.23438,-0.691406 0.35157,-1.042969 0.35157,-1.160156 0,-0.351563 -0.17579,-0.585938 -0.52735,-0.761719 -0.29297,-0.164063 -0.8789,-0.28125 -1.74609,-0.28125 l 0.0586,-0.996094 c 0.58594,0 1.16016,0 1.7461,0.05859 0.58593,0 1.27734,0 2.15625,0 0.64453,0 1.21875,0 1.74609,0 0.52734,-0.05859 0.99609,-0.05859 1.51172,-0.05859 z m 27.85547,-11.132812 c -1.86328,0.410156 -3.44531,1.054687 -4.83984,1.863281 -1.33594,0.761719 -2.50782,1.6875 -3.49219,2.800781 -0.99609,1.042969 -1.74609,2.273438 -2.33203,3.609375 -0.58594,1.335938 -0.9961,2.742188 -1.27735,4.253906 0.98438,-0.703125 1.98047,-1.160156 2.96485,-1.511718 1.05469,-0.351563 2.03906,-0.527344 3.03515,-0.527344 0.98438,0 1.92188,0.175781 2.78907,0.527344 0.8789,0.351562 1.6875,0.808593 2.33203,1.453125 0.70312,0.585937 1.21875,1.394531 1.6289,2.273437 0.35157,0.925781 0.58594,1.9804689 0.58594,3.1406251 0,1.2890625 -0.23437,2.5078125 -0.64453,3.609375 -0.46875,1.1132813 -1.04297,2.0390625 -1.80469,2.9179688 -0.75,0.8203125 -1.6875,1.45312497 -2.78906,1.92187497 -1.05469,0.46875 -2.21484,0.703125 -3.50391,0.703125 -1.45312,0 -2.67187,-0.29296875 -3.72656,-0.87890625 -1.04297,-0.52734375 -1.92187,-1.27734372 -2.625,-2.27343752 -0.6914,-0.9257812 -1.21875,-2.0390625 -1.51172,-3.2578125 -0.35156,-1.21875 -0.52734,-2.5078125 -0.52734,-3.9023437 0,-2.3320309 0.35156,-4.5468749 1.05469,-6.5859379 0.70312,-1.980468 1.74609,-3.785156 3.02343,-5.355468 1.34766,-1.570313 2.97657,-2.859375 4.83985,-3.902344 1.92187,-1.054688 4.01953,-1.804688 6.41015,-2.273438 z m -12,13.980468 c -0.0586,0.292969 -0.11719,0.585938 -0.11719,0.878907 0,0.351562 0,0.632812 0,0.984375 0,0.8789059 0.0586,1.8632809 0.23438,3.0351559 0.16406,1.1015625 0.45703,2.15625 0.86719,3.140625 0.41015,0.9960937 0.99609,1.8046875 1.74609,2.4492187 0.70312,0.703125 1.62891,0.98437502 2.80078,0.98437502 0.75,0 1.39453,-0.10546872 1.92188,-0.45703122 0.52734,-0.3515625 0.98437,-0.7617188 1.33593,-1.3476563 0.35157,-0.515625 0.58594,-1.21875 0.76172,-1.921875 0.17578,-0.75 0.29297,-1.5703125 0.29297,-2.4375 0,-0.9375 -0.11719,-1.7578125 -0.35156,-2.5664062 -0.17578,-0.7617189 -0.52735,-1.3945309 -0.9961,-1.9804689 -0.39843,-0.527344 -0.98437,-0.9375 -1.6875,-1.230469 -0.6914,-0.28125 -1.51171,-0.457031 -2.44921,-0.457031 -0.69141,0 -1.45313,0.05859 -2.26172,0.234375 -0.82032,0.164063 -1.52344,0.398438 -2.09766,0.691406 z m 31.3418,-13.980468 c -1.86328,0.410156 -3.44531,1.054687 -4.83985,1.863281 -1.33593,0.761719 -2.50781,1.6875 -3.49218,2.800781 -0.9961,1.042969 -1.7461,2.273438 -2.33203,3.609375 -0.58594,1.335938 -0.9961,2.742188 -1.27735,4.253906 0.98438,-0.703125 1.98047,-1.160156 2.96485,-1.511718 1.05468,-0.351563 2.03906,-0.527344 3.03515,-0.527344 0.98438,0 1.92188,0.175781 2.78906,0.527344 0.87891,0.351562 1.6875,0.808593 2.33204,1.453125 0.70312,0.585937 1.21875,1.394531 1.6289,2.273437 0.35156,0.925781 0.58594,1.9804689 0.58594,3.1406251 0,1.2890625 -0.23438,2.5078125 -0.64453,3.609375 -0.46875,1.1132813 -1.04297,2.0390625 -1.80469,2.9179688 -0.75,0.8203125 -1.6875,1.45312497 -2.78906,1.92187497 -1.05469,0.46875 -2.21485,0.703125 -3.50391,0.703125 -1.45312,0 -2.67187,-0.29296875 -3.72656,-0.87890625 -1.04297,-0.52734375 -1.92188,-1.27734372 -2.625,-2.27343752 -0.69141,-0.9257812 -1.21875,-2.0390625 -1.51172,-3.2578125 -0.35156,-1.21875 -0.52734,-2.5078125 -0.52734,-3.9023437 0,-2.3320309 0.35156,-4.5468749 1.05468,-6.5859379 0.70313,-1.980468 1.7461,-3.785156 3.02344,-5.355468 1.34766,-1.570313 2.97656,-2.859375 4.83985,-3.902344 1.92187,-1.054688 4.01953,-1.804688 6.41015,-2.273438 z m -12,13.980468 c -0.0586,0.292969 -0.11719,0.585938 -0.11719,0.878907 0,0.351562 0,0.632812 0,0.984375 0,0.8789059 0.0586,1.8632809 0.23438,3.0351559 0.16406,1.1015625 0.45703,2.15625 0.86718,3.140625 0.41016,0.9960937 0.9961,1.8046875 1.7461,2.4492187 0.70312,0.703125 1.6289,0.98437502 2.80078,0.98437502 0.75,0 1.39453,-0.10546872 1.92187,-0.45703122 0.52735,-0.3515625 0.98438,-0.7617188 1.33594,-1.3476563 0.35156,-0.515625 0.58594,-1.21875 0.76172,-1.921875 0.17578,-0.75 0.29297,-1.5703125 0.29297,-2.4375 0,-0.9375 -0.11719,-1.7578125 -0.35156,-2.5664062 -0.17579,-0.7617189 -0.52735,-1.3945309 -0.9961,-1.9804689 -0.39844,-0.527344 -0.98437,-0.9375 -1.6875,-1.230469 -0.6914,-0.28125 -1.51172,-0.457031 -2.44922,-0.457031 -0.6914,0 -1.45312,0.05859 -2.26172,0.234375 -0.82031,0.164063 -1.52343,0.398438 -2.09765,0.691406 z m 0,0"
         style="fill:#cfa64b;fill-opacity:1;fill-rule:nonzero;stroke:none"
         aria-label="Esquina 63 y 66"
         transform="matrix(0.35277776,0,0,0.35277776,59.993493,233.14633)"
         clip-path="url(#clipPath46)" />
    </g>
  </g>
</svg>
