<?xml version="1.0" encoding="UTF-8" standalone="no"?>
<!-- Created with Inkscape (http://www.inkscape.org/) -->

<svg
   width="210mm"
   height="297mm"
   viewBox="0 0 210 297"
   version="1.1"
   id="svg1"
   inkscape:version="1.4 (86a8ad7, 2024-10-11)"
   sodipodi:docname="Logo1.svg"
   xmlns:inkscape="http://www.inkscape.org/namespaces/inkscape"
   xmlns:sodipodi="http://sodipodi.sourceforge.net/DTD/sodipodi-0.dtd"
   xmlns="http://www.w3.org/2000/svg"
   xmlns:svg="http://www.w3.org/2000/svg">
  <sodipodi:namedview
     id="namedview1"
     pagecolor="#ffffff"
     bordercolor="#000000"
     borderopacity="0.25"
     inkscape:showpageshadow="2"
     inkscape:pageopacity="0.0"
     inkscape:pagecheckerboard="0"
     inkscape:deskcolor="#d1d1d1"
     inkscape:document-units="mm"
     inkscape:zoom="0.71891835"
     inkscape:cx="282.36864"
     inkscape:cy="443.02667"
     inkscape:window-width="1920"
     inkscape:window-height="1009"
     inkscape:window-x="-8"
     inkscape:window-y="-8"
     inkscape:window-maximized="1"
     inkscape:current-layer="layer1" />
  <defs
     id="defs1">
    <clipPath
       clipPathUnits="userSpaceOnUse"
       id="clipPath26">
      <path
         d="M -9,-9 H 1693 V 2393 H -9 Z"
         transform="translate(0,2.5e-5)"
         clip-rule="evenodd"
         id="path26" />
    </clipPath>
    <clipPath
       clipPathUnits="userSpaceOnUse"
       id="clipPath28">
      <path
         d="M -9,-9 H 1693 V 2393 H -9 Z"
         transform="translate(0,2.5e-5)"
         clip-rule="evenodd"
         id="path28" />
    </clipPath>
    <clipPath
       clipPathUnits="userSpaceOnUse"
       id="clipPath30">
      <path
         d="M -9,-9 H 1693 V 2393 H -9 Z"
         transform="translate(0,2.5e-5)"
         clip-rule="evenodd"
         id="path30" />
    </clipPath>
    <clipPath
       clipPathUnits="userSpaceOnUse"
       id="clipPath32">
      <path
         d="M -9,-9 H 1693 V 2393 H -9 Z"
         transform="translate(0,2.5e-5)"
         clip-rule="evenodd"
         id="path32" />
    </clipPath>
    <clipPath
       clipPathUnits="userSpaceOnUse"
       id="clipPath34">
      <path
         d="M -9,-9 H 1693 V 2393 H -9 Z"
         transform="translate(0,2.5e-5)"
         clip-rule="evenodd"
         id="path34" />
    </clipPath>
    <clipPath
       clipPathUnits="userSpaceOnUse"
       id="clipPath36">
      <path
         d="M -9,-9 H 1693 V 2393 H -9 Z"
         transform="translate(0,2.5e-5)"
         clip-rule="evenodd"
         id="path36" />
    </clipPath>
    <clipPath
       clipPathUnits="userSpaceOnUse"
       id="clipPath38">
      <path
         d="M -9,-9 H 1693 V 2393 H -9 Z"
         transform="translate(0,2.5e-5)"
         clip-rule="evenodd"
         id="path38" />
    </clipPath>
    <clipPath
       clipPathUnits="userSpaceOnUse"
       id="clipPath40">
      <path
         d="M -9,-9 H 1693 V 2393 H -9 Z"
         transform="translate(0,2.5e-5)"
         clip-rule="evenodd"
         id="path40" />
    </clipPath>
    <clipPath
       clipPathUnits="userSpaceOnUse"
       id="clipPath50">
      <path
         d="M -9,-9 H 1693 V 2393 H -9 Z"
         transform="matrix(1,0,0,-1,-322.99461,613.76684)"
         clip-rule="evenodd"
         id="path50" />
    </clipPath>
  </defs>
  <g
     inkscape:label="Capa 1"
     inkscape:groupmode="layer"
     id="layer1">
    <g
       id="g1"
       transform="translate(-4.7944975,-14.990987)">
      <path
         id="path25"
         d="m 453.3503,1167.9038 v -0.017 h -0.002 -0.004 v 0.017 C 351.112,1167.9029 258.531,1126.4383 191.5019,1059.4091 124.4716,992.3794 83.0061,899.797 83.0058,797.5633 h 0.0167 v -0.002 -0.004 h -0.0167 c 8e-4,-102.2329 41.4658,-194.8138 108.4946,-261.843 67.0298,-67.0303 159.6121,-108.4958 261.8459,-108.4961 v 0.0168 h 0.002 0.004 v -0.0168 c 102.2324,9e-4 194.8136,41.4658 261.8428,108.4947 67.0303,67.0297 108.4958,159.6124 108.496,261.8464 h -0.0167 v 0.002 0.004 h 0.0167 c -8e-4,102.2324 -41.466,194.8133 -108.4946,261.8425 -67.03,67.03 -159.6124,108.4955 -261.8464,108.4958"
         style="fill:#202333;fill-opacity:1;fill-rule:nonzero;stroke:none"
         transform="matrix(0.22162655,0,0,-0.22162655,9.3204113,340.25168)"
         clip-path="url(#clipPath26)" />
      <path
         id="path27"
         d="M 186.2447,763.6946 174.598,791.9938 162.4405,763.6946 Z M 160.0909,735.804 h -18.7983 v 1.328 l 6.9472,3.2692 24.2127,56.5985 -1.7368,4.1888 h 9.6035 l 25.1322,-60.9916 7.3557,-2.9628 v -1.4301 h -25.03 v 1.4301 l 8.0708,2.9628 -8.2751,19.7175 h -26.6647 l -8.0708,-19.6152 7.2536,-2.9628 z m 99.4133,45.8714 c 0,2.1112 -0.0681,3.899 -0.2044,5.3634 -0.1361,1.4644 -0.3575,2.6904 -0.6639,3.678 -0.3067,0.9875 -0.6982,1.8048 -1.175,2.4519 -0.4767,0.6469 -1.0216,1.243 -1.6347,1.7878 -2.4517,2.0432 -6.402,3.0649 -11.8508,3.0649 H 230.0811 V 767.679 h 14.2007 c 5.5848,0 9.5182,1.1067 11.7998,3.3202 2.2819,2.2136 3.4226,5.7722 3.4226,10.6762 z m -14.8136,-17.3679 h -14.6095 v -23.2934 l 7.8667,-3.2692 v -1.9409 h -24.1106 v 1.8388 l 7.3556,3.3713 v 55.5772 l -7.3556,2.8604 v 1.6348 h 32.1814 c 4.3591,0 7.9688,-0.4088 10.8295,-1.226 2.8604,-0.8175 5.159,-1.9752 6.8958,-3.4736 1.7368,-1.4984 2.9628,-3.3205 3.678,-5.4658 0.7152,-2.1455 1.1409,-4.5805 1.277,-7.3048 0.1363,-3.746 -0.4768,-6.9812 -1.8388,-9.7053 -1.3624,-2.7244 -3.8824,-4.972 -7.5603,-6.7431 -1.5664,-0.7492 -3.3032,-1.362 -5.2104,-1.8388 l 14.5075,-24.315 7.3556,-3.4733 v -1.7368 h -14.2008 z m 77.4479,17.3679 c 0,2.1112 -0.068,3.899 -0.2044,5.3634 -0.1361,1.4644 -0.3574,2.6904 -0.6639,3.678 -0.3067,0.9875 -0.6981,1.8048 -1.1749,2.4519 -0.4768,0.6469 -1.0216,1.243 -1.6348,1.7878 -2.4516,2.0432 -6.402,3.0649 -11.8508,3.0649 H 292.7154 V 767.679 h 14.2008 c 5.5848,0 9.5181,1.1067 11.7997,3.3202 2.2819,2.2136 3.4226,5.7722 3.4226,10.6762 z m -14.8136,-17.3679 h -14.6095 v -23.2934 l 7.8667,-3.2692 v -1.9409 h -24.1106 v 1.8388 l 7.3556,3.3713 v 55.5772 l -7.3556,2.8604 v 1.6348 h 32.1814 c 4.3592,0 7.9688,-0.4088 10.8295,-1.226 2.8605,-0.8175 5.1591,-1.9752 6.8959,-3.4736 1.7368,-1.4984 2.9627,-3.3205 3.6779,-5.4658 0.7152,-2.1455 1.141,-4.5805 1.277,-7.3048 0.1364,-3.746 -0.4768,-6.9812 -1.8388,-9.7053 -1.3623,-2.7244 -3.8823,-4.972 -7.5603,-6.7431 -1.5664,-0.7492 -3.3032,-1.362 -5.2104,-1.8388 l 14.5075,-24.315 7.3556,-3.4733 v -1.7368 h -14.2007 z m 49.966,-23.8042 6.6408,-3.3713 v -1.328 l -21.5567,0.102 v 1.124 l 6.7428,3.5756 v 55.9857 l -6.8448,3.1668 v 1.4304 h 21.6587 v -1.4304 l -6.6408,-3.1668 z m 60.6932,59.2548 v 1.4304 h 16.8571 v -1.4304 l -6.232,-2.8604 -23.8042,-60.9917 h -4.3929 l -25.9495,60.9917 -6.4363,2.8604 v 1.4304 h 22.8847 v -1.4304 l -7.2539,-2.8604 21.0458,-50.2645 19.6155,50.3665 z m 21.5648,-63.9541 v 1.6345 l 6.1297,3.1671 v 55.5769 l -6.1297,3.678 v 1.328 h 49.6514 l 2.1456,-13.0768 h -1.9412 l -6.232,9.6032 c -18.7982,0 -28.197,-0.034 -28.197,-0.102 v -26.2562 h 23.7018 l -2.9627,-3.78 h -20.7391 v -28.1971 h 28.197 l 6.1297,9.2968 h 2.0435 l -2.1456,-12.7704 z m 109.0168,33.5095 c 0,5.1083 -0.6301,9.4161 -1.8901,12.9237 -1.26,3.5076 -3.0478,6.3853 -5.3634,8.6329 -1.158,1.1577 -2.35,2.1793 -3.5759,3.0648 -1.226,0.8853 -2.6051,1.6345 -4.1375,2.2476 -1.5327,0.6129 -3.2525,1.0897 -5.1593,1.4304 -1.9072,0.3404 -4.0867,0.5108 -6.5384,0.5108 h -8.4796 v -58.642 h 13.2812 c 7.7644,0 13.3492,2.4349 16.7547,7.3049 3.4056,4.8696 5.1083,12.3786 5.1083,22.5269 z m -23.8042,31.875 c 5.1083,0 9.7226,-0.5788 13.8433,-1.7368 4.1204,-1.1579 7.628,-3.0138 10.5228,-5.5678 2.8944,-2.5543 5.142,-5.8575 6.7427,-9.9099 1.6005,-4.0524 2.401,-9.0074 2.401,-14.8649 0,-10.7612 -2.6053,-18.9853 -7.8157,-24.6725 -5.2104,-5.6871 -13.1278,-8.5306 -23.7529,-8.5306 -2.8607,0 -5.8745,0.0341 -9.0414,0.1021 -3.1672,0.0683 -6.0449,0.1023 -8.6329,0.1023 h -12.464 v 1.5324 l 7.9688,3.2692 v 55.5769 l -7.9688,2.9628 v 1.7368 z m 38.4219,-65.3845 v 1.6345 l 6.1297,3.1671 v 55.5769 l -6.1297,3.678 v 1.328 h 49.6514 l 2.1455,-13.0768 h -1.9411 l -6.232,9.6032 c -18.7982,0 -28.1971,-0.034 -28.1971,-0.102 v -26.2562 h 23.7019 l -2.9627,-3.78 h -20.7392 v -28.1971 h 28.1971 l 6.1297,9.2968 h 2.0434 l -2.1455,-12.7704 z m 100.4349,45.8714 c 0,2.1112 -0.068,3.899 -0.2043,5.3634 -0.1361,1.4644 -0.3575,2.6904 -0.6639,3.678 -0.3067,0.9875 -0.6982,1.8048 -1.175,2.4519 -0.4768,0.6469 -1.0216,1.243 -1.6347,1.7878 -2.4517,2.0432 -6.4021,3.0649 -11.8508,3.0649 H 634.1953 V 767.679 h 14.2007 c 5.5848,0 9.5182,1.1067 11.7998,3.3202 2.2819,2.2136 3.4225,5.7722 3.4225,10.6762 z m -14.8135,-17.3679 h -14.6095 v -23.2934 l 7.8667,-3.2692 v -1.9409 h -24.1107 v 1.8388 l 7.3557,3.3713 v 55.5772 l -7.3557,2.8604 v 1.6348 h 32.1815 c 4.3591,0 7.9687,-0.4088 10.8295,-1.226 2.8604,-0.8175 5.159,-1.9752 6.8958,-3.4736 1.7368,-1.4984 2.9628,-3.3205 3.678,-5.4658 0.7151,-2.1455 1.1409,-4.5805 1.277,-7.3048 0.1363,-3.746 -0.4768,-6.9812 -1.8389,-9.7053 -1.3623,-2.7244 -3.8823,-4.972 -7.5602,-6.7431 -1.5665,-0.7492 -3.3033,-1.362 -5.2104,-1.8388 l 14.5074,-24.315 7.3556,-3.4733 v -1.7368 h -14.2007 z m 43.5296,3.2692 c 0,-4.6996 0.5278,-9.0414 1.5835,-13.0258 1.0559,-3.9843 2.6053,-7.2025 4.6485,-9.6545 1.9752,-2.3836 4.4101,-4.1204 7.3046,-5.2104 2.8947,-1.0896 6.215,-1.6344 9.9609,-1.6344 4.972,0 9.2631,0.4425 12.8727,1.328 l 6.232,10.2164 h 1.9412 l -2.1456,-13.0771 c -0.2044,-0.068 -1.1066,-0.2554 -2.7073,-0.5618 -1.6005,-0.3065 -3.2863,-0.5619 -5.0571,-0.7662 -1.7027,-0.2044 -3.4905,-0.3745 -5.3634,-0.5108 -1.8731,-0.1361 -3.9333,-0.2044 -6.1809,-0.2044 -5.3127,0 -9.995,0.6641 -14.0477,1.9922 -4.0524,1.3283 -7.4749,3.4565 -10.2674,6.3853 -2.7924,2.8604 -4.9039,6.4874 -6.334,10.8805 -1.4303,4.3929 -2.1455,9.0414 -2.1455,13.9453 0,11.9189 2.8264,20.7051 8.4795,26.358 5.6532,5.6531 13.758,8.4795 24.3151,8.4795 2.2476,0 4.1887,-0.068 5.8232,-0.2043 1.6347,-0.1361 3.1331,-0.3065 4.4952,-0.5108 0.6811,-0.1361 1.4133,-0.2725 2.1965,-0.4085 0.7832,-0.1364 1.5324,-0.2724 2.2476,-0.4088 0.7152,-0.136 1.311,-0.2554 1.7878,-0.3574 0.4768,-0.1024 0.7832,-0.1534 0.9196,-0.1534 l 2.1452,-13.0768 h -1.9408 l -6.232,10.2164 c -3.6099,0.8852 -7.2879,1.328 -11.0339,1.328 -3.6776,0 -6.9641,-0.5278 -9.8586,-1.5834 -2.8947,-1.0559 -5.3637,-2.7927 -7.4069,-5.2104 -2.0432,-2.4179 -3.5926,-5.6191 -4.6485,-9.6035 -1.0557,-3.9844 -1.5835,-8.9053 -1.5835,-14.7625 z m 65.393,-27.0734 6.6408,-3.3713 v -1.328 l -21.5567,0.102 v 1.124 l 6.7428,3.5756 v 55.9857 l -6.8448,3.1668 v 1.4304 h 21.6587 v -1.4304 l -6.6408,-3.1668 z"
         style="fill:#cfa64b;fill-opacity:1;fill-rule:nonzero;stroke:none"
         transform="matrix(0.22162655,0,0,-0.22162655,9.3204113,340.25168)"
         clip-path="url(#clipPath28)" />
      <path
         id="path29"
         d="m 392.4437,673.7652 h -3.2383 c -0.9817,-1.8354 -2.3624,-3.3091 -4.1432,-4.4215 -1.7804,-1.1123 -3.736,-1.6684 -5.8671,-1.6684 -3.1334,0 -5.8184,1.154 -8.0544,3.4622 -2.173,2.2453 -3.2595,4.9428 -3.2595,8.0921 0,3.177 1.0865,5.8884 3.2595,8.134 1.0233,1.0567 2.2221,1.8978 3.5961,2.5234 1.3739,0.6259 2.7198,0.9385 4.0376,0.9385 1.3181,0 2.4744,-0.1459 3.4699,-0.4379 3.0631,-0.8969 5.3694,-2.753 6.9185,-5.5687 h 3.2389 c -1.0797,2.6975 -2.8179,4.8736 -5.2155,6.5282 -2.3972,1.6546 -5.0609,2.4818 -7.9911,2.4818 -3.9606,0 -7.3395,-1.446 -10.1361,-4.3382 -1.2901,-1.3345 -2.2995,-2.8851 -3.0283,-4.6508 -0.7291,-1.7657 -1.0936,-3.636 -1.0936,-5.6103 0,-3.9697 1.374,-7.3761 4.1219,-10.2195 2.7966,-2.8922 6.1755,-4.3452 10.1361,-4.3452 2.916,0 5.5939,0.8484 8.0331,2.5308 2.4185,1.6684 4.157,3.8582 5.2155,6.5695 z m 7.234,1.7521 5.2154,13.0558 5.1942,-13.0558 z m 17.7488,-10.4352 -12.5334,30.3319 -12.5756,-30.3319 h 3.1964 l 3.0843,7.7239 H 411.16 l 3.0702,-7.7239 z m 20.5671,25.6601 v 2.7113 h -16.992 v -28.3714 h 2.9443 v 12.8126 h 13.627 v 2.753 h -13.627 v 10.0945 z m 20.9874,-25.6601 v 2.7182 h -14.0476 v 10.0944 h 13.6269 v 2.753 h -13.6269 v 10.0945 h 14.0476 v 2.7113 h -16.992 v -28.3714 z m -2.4814,37.2561 h -3.617 l -3.3648,-5.9647 h 2.3553 z M 495.32,672.9936 c 0,2.016 -0.4906,3.6984 -1.472,5.0471 -0.9814,1.3487 -2.3134,2.2456 -3.9957,2.6907 1.0023,0.4379 1.8227,1.2024 2.4607,2.294 0.2943,0.5006 0.5185,1.0219 0.6727,1.5642 0.1545,0.5423 0.2313,1.2861 0.2313,2.2317 0,0.9454 -0.2245,1.8771 -0.6729,2.7947 -1.2478,2.5583 -3.9674,3.8375 -8.1596,3.8375 h -7.7388 v -28.3714 h 8.7483 c 2.9162,0 5.2435,0.6673 6.9817,1.9883 0.8974,0.6814 1.6123,1.5502 2.1452,2.607 0.5327,1.0567 0.7991,2.1623 0.7991,3.3162 z m -5.0471,13.3688 c 0,-1.5296 -0.4626,-2.6697 -1.3878,-3.4203 -0.9255,-0.7509 -2.145,-1.1265 -3.6592,-1.1265 H 479.59 v 8.8433 h 4.7945 c 3.9257,0 5.8884,-1.4324 5.8884,-4.2965 z m 2.1028,-12.8058 c 0,-1.6892 -0.5814,-3.0657 -1.7453,-4.1295 -1.1217,-1.0287 -2.5863,-1.5432 -4.3951,-1.5432 H 479.59 v 11.012 h 7.1079 c 1.5072,0 2.8179,-0.4935 3.9325,-1.4808 0.5187,-0.4589 0.9394,-1.008 1.2617,-1.6478 0.3226,-0.6395 0.4836,-1.3765 0.4836,-2.2107 z m 11.5665,1.9607 5.2152,13.0558 5.1942,-13.0558 z M 521.691,665.0821 509.1574,695.414 496.582,665.0821 h 3.1964 l 3.0841,7.7239 h 12.562 l 3.0702,-7.7239 z m 6.5191,14.0225 v 11.5543 h 6.6456 c 1.7382,0 3.1263,-0.5355 4.1638,-1.6061 1.0375,-1.0707 1.5562,-2.4333 1.5562,-4.0879 0,-1.6475 -0.5468,-3.045 -1.6404,-4.1919 -1.0655,-1.1123 -2.4253,-1.6684 -4.0796,-1.6684 z m 15.3097,5.798 c 0,2.4539 -0.8901,4.5048 -2.6708,6.1525 -1.7314,1.5988 -3.8696,2.3984 -6.414,2.3984 h -9.1689 v -28.3714 h 2.944 v 11.2275 h 3.4348 l 8.384,-11.2275 h 3.9535 l -8.8044,11.2485 c 2.2223,0.146 4.115,0.9385 5.671,2.3777 1.7807,1.6475 2.6708,3.7122 2.6708,6.1943"
         style="fill:#cfa64b;fill-opacity:1;fill-rule:nonzero;stroke:none"
         transform="matrix(0.22162655,0,0,-0.22162655,9.3204113,340.25168)"
         clip-path="url(#clipPath30)" />
      <path
         id="path31"
         d="m 264.9382,668.0962 c -2.2184,0 -4.017,1.4131 -4.017,3.1564 0,1.7433 1.7986,3.1564 4.017,3.1564 h 56.6164 c 2.2183,0 4.0169,-1.4131 4.0169,-3.1564 0,-1.7433 -1.7986,-3.1564 -4.0169,-3.1564 z"
         style="fill:#cfa64b;fill-opacity:1;fill-rule:nonzero;stroke:none"
         transform="matrix(0.22162655,0,0,-0.22162655,9.3204113,340.25168)"
         clip-path="url(#clipPath32)" />
      <path
         id="path33"
         d="m 584.1062,668.0962 c -2.2184,0 -4.0169,1.4131 -4.0169,3.1564 0,1.7433 1.7985,3.1564 4.0169,3.1564 h 56.6164 c 2.2184,0 4.017,-1.4131 4.017,-3.1564 0,-1.7433 -1.7986,-3.1564 -4.017,-3.1564 z"
         style="fill:#cfa64b;fill-opacity:1;fill-rule:nonzero;stroke:none"
         transform="matrix(0.22162655,0,0,-0.22162655,9.3204113,340.25168)"
         clip-path="url(#clipPath34)" />
      <path
         id="path35"
         d="m 453.3483,1176.391 h 0.002 v -0.017 c 104.6038,-6e-4 199.3101,-42.4055 267.8587,-110.954 68.5474,-68.548 110.9517,-163.2529 110.9528,-267.8548 h 0.0168 v -0.004 -0.002 h -0.0168 C 832.1613,692.9558 789.7564,598.2489 721.2076,529.7006 652.6596,461.1529 557.9544,418.7489 453.3525,418.7477 v -0.0167 h -0.004 -0.002 v 0.0167 C 348.7431,418.7483 254.0364,461.1532 185.4882,529.702 116.9408,598.2497 74.5364,692.9549 74.5353,797.557 h -0.0167 v 0.004 0.002 h 0.0167 c 6e-4,104.6032 42.4055,199.3099 110.9543,267.8581 68.5477,68.5477 163.2529,110.9517 267.8544,110.9529 v 0.017 h 0.004 z m 0.002,-8.4872 v -0.017 h -0.002 -0.004 v 0.017 C 351.112,1167.9029 258.531,1126.4383 191.5019,1059.4091 124.4716,992.3794 83.0061,899.797 83.0058,797.5633 h 0.0167 v -0.002 -0.004 h -0.0167 c 8e-4,-102.2329 41.4658,-194.8138 108.4946,-261.843 67.0298,-67.0303 159.6121,-108.4958 261.8459,-108.4961 v 0.0168 h 0.002 0.004 v -0.0168 c 102.2324,9e-4 194.8136,41.4658 261.8428,108.4947 67.0303,67.0297 108.4958,159.6124 108.496,261.8464 h -0.0167 v 0.002 0.004 h 0.0167 c -8e-4,102.2324 -41.466,194.8133 -108.4946,261.8425 -67.03,67.03 -159.6124,108.4955 -261.8464,108.4958"
         style="fill:#cfa64b;fill-opacity:1;fill-rule:nonzero;stroke:none"
         transform="matrix(0.22162655,0,0,-0.22162655,9.3204113,340.25168)"
         clip-path="url(#clipPath36)" />
      <path
         id="path37"
         d="m 145.6554,860.7266 c -2.3828,0 -4.3149,1.5196 -4.3149,3.3939 0,1.8742 1.9321,3.3939 4.3149,3.3939 205.1445,0 410.2898,0 615.4342,0 2.3828,0 4.3149,-1.5197 4.3149,-3.3939 0,-1.8743 -1.9321,-3.3939 -4.3149,-3.3939 -205.1444,0 -410.2897,0 -615.4342,0"
         style="fill:#cfa64b;fill-opacity:1;fill-rule:nonzero;stroke:none"
         transform="matrix(0.22162655,0,0,-0.22162655,9.3204113,340.25168)"
         clip-path="url(#clipPath38)" />
      <path
         id="path39"
         d="m 338.6171,892.021 h 7.4166 l -0.3274,1.2252 v 0.1621 h -0.9972 v 1.1461 c 2.0854,0 3.6295,1.3705 4.7843,3.1637 1.2005,-2.0081 2.8446,-3.1637 5.0474,-3.1637 v -1.1461 h -1.1228 v -1.3873 h 7.2147 v -2.5333 h -22.0156 z m 247.777,-7.8341 h 3.3296 v -1.0125 h -3.3296 z m 14.5664,0 h 3.3293 v -1.0125 h -3.3293 z m -113.3212,5.4632 h 0.9059 v 1.5954 h -0.9059 v 2.1713 h 0.9059 v 5.3178 h -0.9059 v 2.1714 h 43.7828 v -2.1714 h -1.0111 v -5.3178 h 1.0111 v -2.1713 h -1.0111 v -1.5954 h 1.0111 v -2.1713 h -1.0111 v -7.3131 h 1.0111 v -2.1716 h -1.0111 v -5.5403 h 2.2974 v 17.9934 h -1.4037 l 15.0628,10.6251 15.0621,-10.6251 h -1.2574 v -17.9934 h 5.4485 v 2.9284 c 0.3058,0 0.612,0 0.9181,0 0,0.4972 0,0.9944 0,1.4922 0.6517,0.6534 1.4723,1.2056 2.6626,1.5372 -0.0471,0.1758 -0.0941,0.3515 -0.1412,0.5275 0,0.957 0,1.914 0,2.871 0.3368,0.6049 0.8357,1.1021 1.4961,1.4924 0.2679,9.1829 0.5355,18.3657 0.8037,27.5488 0.0354,1.0704 1.8757,1.0621 1.9513,0 0.1911,-9.1831 0.3824,-18.3659 0.5738,-27.5488 0.5865,-0.4215 1.2396,-0.8424 1.396,-1.2628 0,-1.033 0,-2.0662 0,-3.0991 0.3444,-0.2296 0.326,-0.4592 0.6701,-0.6889 0,-0.2678 0,-0.5357 0,-0.8033 0.4593,0 0.9185,0 1.3777,0 0,1.4536 0,2.9078 0,4.3617 -0.3064,0 -0.6126,0 -0.9184,0 0.053,0.1976 -0.0151,0.3951 0.0379,0.5927 1.1747,1.5214 2.7136,2.7984 4.6684,3.5396 1.6682,-0.6157 3.0439,-1.4746 4.1324,-2.8695 0.2296,0 0.4589,0 0.6885,0 0,1.1092 0,2.2187 0,3.3285 0.0238,0.6661 0.47,1.404 1.3414,2.2115 0.2622,0.7073 0.496,1.4945 0.564,2.3508 0.0729,-0.9198 0.3357,-1.7603 0.6211,-2.5069 0.5769,-0.5562 0.9981,-1.1651 1.2614,-1.8256 0.3433,1.2805 0.6863,2.5614 1.0296,3.8421 0.4391,1.7822 1.4587,3.1935 3.2791,4.0955 0.6128,1.7306 1.2016,3.7021 1.3569,5.8728 0.1574,-2.1968 0.7572,-4.1896 1.3777,-5.9351 1.7444,-0.904 2.7295,-2.2913 3.1586,-4.0332 0.3433,-1.2807 0.6863,-2.5616 1.0296,-3.8421 0.2613,0.6551 0.676,1.26 1.2461,1.8122 0.2874,0.7498 0.5544,1.5948 0.6276,2.5203 0.0674,-0.8515 0.2976,-1.6344 0.5581,-2.3383 0.8796,-0.8127 1.332,-1.5545 1.3561,-2.224 0,-1.1098 0,-2.2193 0,-3.3285 0.2296,0 0.4592,0 0.6888,0 1.0882,1.3949 2.4639,2.2538 4.1324,2.8695 1.9545,-0.7412 3.4937,-2.0182 4.6684,-3.5396 0.0527,-0.1976 -0.0154,-0.3951 0.0377,-0.5927 -0.3059,0 -0.612,0 -0.9182,0 0,-1.4539 0,-4.8172 0,-6.2711 0.4589,0 0.9182,0 1.3774,0 0,0.2679 0,1.8958 0,2.1637 0.1406,0.3832 0.2035,0.5513 0.6701,0.6888 0,7.5642 0.271,15.6892 0.4311,23.3938 0.0757,1.0624 0.9207,1.0703 0.9559,0 0.2301,-7.8917 0.6667,-15.8871 0.6667,-23.2835 0.824,-0.2007 0.3512,-0.6563 0.811,-0.8805 0.0272,-0.5428 -0.0134,-1.0845 -0.004,-1.7047 0,-0.4975 0.8456,-0.3821 1.8329,-0.3915 0.3061,0 0.7857,-0.2752 0.7993,-0.5805 0,-1.2246 0,-2.4492 0,-3.6732 0.0763,-1.4938 0.1531,-2.988 0.2296,-4.4821 l -9.9102,0.1684 v 6.5775 h -2.8584 v -6.5291 l -13.0144,0.2209 h -27.9939 -1.9564 -5.2189 -1.8309 -1.8312 -1.8309 -1.8306 -1.8309 -1.8312 -1.8306 -1.8312 -1.8309 -1.8312 -1.8306 -1.8309 -1.8309 -1.8309 -1.8309 -2.2974 -0.919 -3.8764 v 8.5997 c -1.8669,2.0486 -3.6879,2.3196 -5.4434,0 v -8.5997 h -4.9484 v 15.2039 c -3.6213,3.4058 -7.1527,3.8557 -10.5565,0 V 867.227 h -4.9485 v 8.5997 c -1.8671,2.0486 -3.6881,2.3196 -5.4433,0 v -8.5997 h -95.4522 -0.4972 -26.0096 -0.4909 -18.9836 v 12.7944 c -2.0574,1.2473 -4.0848,1.3275 -6.0747,0 V 867.227 h -40.5774 v 4.9898 h 3.9138 v 0.9048 h -3.9138 -1.5055 -3.211 -1.5055 -3.7131 v -0.9048 h 3.7131 v -4.9898 h -14.3952 c 0.3019,13.9541 0.6038,27.9082 0.9057,41.8626 0.2678,0.5204 0.606,0.7789 1.0587,1.0805 -0.0337,0.4697 0.0309,0.9655 -0.002,1.4352 -0.5559,0.3345 -0.4326,0.6701 0,1.006 0,0.5701 0,1.1404 0,1.711 0.3016,0.495 0.6034,0.495 0.9056,0 0,-0.5703 0,-1.1406 0,-1.7107 0.3558,-0.3019 0.5757,-0.7231 -0.0167,-1.0241 0,-0.5032 0.0167,-0.8878 0.0167,-1.391 0.4201,-0.3189 0.8229,-0.6032 1.0571,-1.0063 0.3356,-9.5936 0.6709,-19.1871 1.0063,-28.7804 0.6037,0 1.2075,0 1.8113,0 -0.0335,1.0732 -0.019,2.3261 -0.0524,3.3996 -0.2013,0.1675 -0.4026,0.3353 -0.6038,0.5031 0.8385,0.6038 1.629,1.0281 2.4675,1.6319 0.9057,-0.5031 1.8114,-1.0063 2.717,-1.5094 -0.2347,-0.2013 -0.4694,-0.4026 -0.7044,-0.6038 0,-2.4151 0,-4.8303 0,-7.2454 4.8975,0 9.7949,0 14.6923,0 0,1.5764 0,3.153 0,4.7296 0.9558,1.7442 2.3306,3.4878 4.629,5.2328 0,1.1069 0,2.2138 0,3.3208 0.6372,0 1.2747,0 1.9119,0 0,-1.1741 0,-2.348 0,-3.5221 2.0798,-1.4088 3.6227,-3.086 4.629,-5.0315 0,-1.9457 0,-3.8911 0,-5.8368 0.4025,0 0.805,0 1.2076,0 0.235,-0.3019 0.6979,-0.2894 0.9328,-0.5913 0.3632,-0.0757 0.1673,-3.181 0.2195,-3.9572 0.2531,0 0.5065,0 0.7596,0 v 9.4505 h -0.7985 v 0.7721 h 13.1491 v 0.796 h -12.3506 v 1.9902 h -0.7985 v 0.7588 h 47.4752 l -0.0544,0.8093 h -46.6223 v 2.4123 h -0.7985 v 0.8799 h 47.1518 c -0.2228,2.3797 -0.5066,4.754 -0.8532,7.1016 -0.6665,4.5122 -5.0006,28.8406 -4.5519,30.9957 l 2.2246,0.9168 c 0.1367,1.3512 -0.0193,2.8187 -0.729,4.517 -0.3714,0.8889 -0.9757,0.2554 -1.3476,1.1443 -0.5828,1.3952 2.6209,3.0637 4.2361,3.7287 3.9223,1.6158 13.0223,3.5025 14.2781,0.4972 l 0.1014,-0.2418 c 0.2691,-0.6449 -1.9184,-3.0362 -0.699,-5.9547 0.4808,-1.1489 3.0765,0.2653 3.7298,-1.2974 l 0.2923,-0.7277 10.0454,-44.4356 -0.1837,25.821 c 2.0449,4.8853 10.7496,8.6953 21.3188,12.2046 1.8023,-5.3042 3.6046,-10.6081 5.4071,-15.912 0.5661,-0.2063 1.1327,-0.4121 1.6994,-0.6179 1.2872,-2.9353 2.5744,-5.8706 3.8619,-8.8059 0.3606,0 0.7209,0 1.0814,0 0.1545,-0.4118 0.309,-0.824 0.4635,-1.2359 5.4584,0 10.9168,0 16.3755,0 0,0.9785 0,1.9568 0,2.9353 19.6979,-0.5984 34.1059,-2.1929 39.0846,-5.5613 v -13.7055 h 1.2359 v 7.3131 h -0.9059 v 2.1713 z m -115.6584,-8.4974 -0.0334,0.796 h -11.0228 v -0.796 z m 26.3132,-9.199 -0.009,1.2178 -1.0902,5.2571 c -0.0125,0.061 -0.3583,0.582 -0.5142,0.8839 l -0.9241,-0.3915 0.7336,-7.3726 1.8043,0.4053 z m -21.4294,56.8395 c -0.0782,0.3144 -0.803,0.3739 -1.0443,0.4195 -0.953,-1.3994 0.343,-6.3677 1.2555,-8.5504 l 1.7303,0.7126 z m -5.5837,-2.5835 c -0.2701,0.6466 -0.6556,0.5683 -1.1452,0.6619 -0.6324,-1.3499 0.1605,-5.4581 1.177,-7.1853 0.3376,-0.5731 0.8688,-0.0938 1.5103,0.0499 -0.4887,1.5279 -0.826,4.7608 -1.34,5.9902 z m -3.8644,-0.4584 c -0.8575,-0.3534 0.3288,-6.3317 0.8521,-7.5832 0.8039,0.3104 1.2495,0.826 1.457,1.4482 0.5298,1.5888 -0.4955,3.8747 -1.0625,5.2319 l -0.2018,0.4833 c -0.233,0.557 -0.4751,0.6543 -1.0448,0.4198 z m 6.4822,1.8204 c -0.2327,0.5568 -0.4751,0.654 -1.0448,0.4196 -0.9964,-0.4108 0.6965,-6.5189 1.3011,-7.9651 1.832,0.7084 2.0205,-0.129 1.2384,2.5194 -0.4629,1.5667 -0.4569,2.5427 -0.9892,3.8172 z m 6.5381,0.9927 c -0.2726,0.6531 -0.3962,0.618 -0.7523,1.107 l -0.9884,-0.4074 1.6087,-7.804 1.7679,0.4246 c -0.6485,1.6512 -0.8526,4.8061 -1.4337,6.196 z m 3.1678,0.7382 c -0.0936,0.3424 -0.563,0.3345 -0.9428,0.1783 -0.7861,-0.3232 0.6273,-6.3553 1.0984,-7.4818 l 1.8238,0.5023 z m 3.3256,-0.3305 c -0.2328,0.557 -0.4754,0.6542 -1.0446,0.4195 -0.9799,-0.4031 0.4405,-5.9074 0.8963,-6.9976 l 1.8241,0.5023 -1.2798,5.3728 z M 369.1077,916.308 c -1.0831,-1.3218 -0.5199,-4.3313 0.2137,-6.2067 l 1.836,0.4481 -1.0048,5.3385 z m 2.5869,1.2725 c -0.7787,-1.1282 -0.0785,-4.5417 0.5933,-6.2575 l 1.836,0.4481 c -0.6795,1.7462 -0.4674,3.2094 -1.2841,5.1634 l -0.3019,0.6723 z m 7.3245,1.8986 c -0.2331,0.5567 -0.4751,0.6548 -1.0449,0.4201 -1.2895,-0.5312 0.2835,-5.5298 0.8966,-6.9984 l 1.2359,0.5096 c 1.1466,0.4723 -0.5539,4.7911 -1.0876,6.0687 z m -2.9659,-1.2214 c -0.2328,0.5573 -0.4754,0.6545 -1.0446,0.4201 -1.0332,-0.4258 0.1868,-5.2183 0.6945,-6.5149 l 1.8357,0.4479 -1.2509,5.4368 z m 11.1313,-3.0654 c -0.2117,1.2929 -0.7897,5.9085 -2.4701,5.2163 -0.9278,-0.3821 0.2699,-4.8039 0.7399,-5.9295 z m -4.7951,4.5422 c -0.3361,0.8034 -0.7398,0.5247 -1.5394,0.216 0.1578,-0.9612 0.4192,-6.6288 1.9306,-6.0055 l 0.9888,0.4071 c -0.5361,1.667 -0.3983,3.0319 -1.1781,4.8985 z m 6.5937,0.1653 c -0.2324,0.5573 -0.4745,0.6548 -1.0443,0.4198 -1.1999,-0.4941 0.0655,-4.2415 0.5378,-5.4456 l 1.8354,0.4481 c -0.7424,1.7878 -0.2509,1.9984 -0.8237,3.369 z m -17.2706,-17.5984 c 1.4777,0.6089 0.8484,0.0304 0.496,2.4157 -0.091,0.6146 -0.2083,2.4409 -0.4385,2.992 -0.25,0.599 -1.0871,0.3847 -1.7861,0.1142 l 0.8255,-5.8535 z m 4.8441,8.5122 c -0.9666,-0.3974 0.3163,-5.5318 0.7954,-6.7558 2.3885,0.9839 2.0883,-0.3302 1.3467,2.4755 -0.2046,0.775 -0.4277,2.9506 -0.6485,3.4792 -0.2362,0.5655 -0.8269,1.0764 -1.4936,0.8011 z m -2.2697,-1.5012 c -0.0814,0.3433 -0.5703,0.3322 -0.9442,0.178 -1.1727,-0.4827 0.0862,-4.7659 0.4932,-6.031 l 1.8357,0.4484 z m 5.2353,2.7232 c -1.0454,-0.43 0.3838,-5.6868 0.8963,-6.9979 2.3891,0.9839 2.0892,-0.3299 1.347,2.4761 -0.2712,1.0281 -0.3693,2.8105 -0.7492,3.7202 -0.2361,0.5658 -0.8268,1.0766 -1.4941,0.8016 z m 3.3701,0.2551 c -0.8779,-0.3614 0.438,-5.2072 0.942,-6.4128 l 0.7412,0.3056 c 1.1373,0.468 1.2036,0.2877 0.4281,2.4429 -0.485,1.3482 -0.5219,1.9409 -1.1676,3.4863 -0.1415,0.3385 -0.5392,0.3447 -0.9437,0.178 z m 3.7188,0.1148 c -1.16,-0.4779 0.0941,-4.3843 0.6383,-5.6874 l 0.7419,0.3053 c 1.5278,0.6293 0.9425,-0.2537 0.4158,2.0449 -0.2602,1.1353 -0.2452,1.7053 -0.7517,2.9171 -0.233,0.5576 -0.4751,0.6549 -1.0443,0.4201 z m 2.8757,0.0514 c -0.8991,-0.3711 0.3683,-4.3484 0.8856,-5.5863 l 0.7415,0.3059 c 1.5137,0.6233 0.9244,-0.1403 0.3824,2.2595 -0.265,1.1755 -0.3308,1.7764 -0.8189,2.9446 -0.2832,0.1097 -0.7903,0.2407 -1.1906,0.0763 z m -14.1482,-17.4456 c 1.8697,0.7226 2.1325,-0.2103 1.5823,2.1793 -0.2898,1.2563 -0.4559,2.5154 -0.783,3.5337 -0.3742,0.2967 -0.6746,0.572 -1.2917,0.3177 -0.9706,-0.3997 0.1295,-4.9031 0.4924,-6.0307 z m -2.6159,4.873 c -2.069,-0.9056 -1.0768,-4.3577 -0.2494,-6.3365 l 1.7305,0.712 c -0.4178,1.3003 -0.4373,3.8186 -0.8299,4.7588 -0.2141,0.5111 -0.222,0.2827 -0.6512,0.8657 z m 5.3368,2.4806 c -0.7945,-0.3268 0.3972,-5.7393 0.7951,-6.7558 l 0.9888,0.4077 c 1.3867,0.5711 0.9867,0.403 0.3625,2.6696 -0.3285,1.1991 -0.2497,1.9131 -0.8552,3.3613 -0.123,0.2943 -0.8141,0.5145 -1.2912,0.3172 z m 4.3586,0.6628 c -0.1568,0.6403 -0.7379,0.5834 -1.1458,0.6613 -1.0743,-1.5786 -0.0601,-4.8932 0.6497,-7.0999 l 2.0795,0.5669 z m 2.2246,0.9008 c -0.8648,-1.2549 0.0927,-4.6287 0.6945,-6.4998 2.0619,0.8498 2.0945,-0.2373 1.5165,2.2068 -0.3169,1.3405 -0.3838,2.0148 -0.9649,3.4047 l -0.4025,0.9147 z m 4.6616,-0.0482 c -0.1386,0.3323 -0.7572,0.3654 -1.0446,0.4199 l -0.6304,-1.158 1.1049,-4.877 c 2.0798,0.8532 2.113,-0.2341 1.5347,2.2107 -0.3169,1.3403 -0.3838,2.0141 -0.9646,3.4044 z m 3.2238,-0.0887 c -0.0842,0.3158 -0.7988,0.3731 -1.0443,0.4201 -0.9657,-1.4187 -0.2627,-3.532 0.6384,-5.6877 l 1.7306,0.7126 z m -11.4273,-10.091 c -0.2364,0.5663 -0.8144,0.7979 -1.3926,0.5595 -1.1767,-0.4844 0.1255,-5.1525 0.6944,-6.5146 l 1.836,0.4488 c -0.1655,1.0054 -0.7891,4.6723 -1.1378,5.5063 z m -4.0107,-0.8017 c -0.129,0.5431 -1.7382,0.6883 -1.1078,-2.3709 0.2041,-0.9904 0.4209,-2.6762 0.758,-3.7238 l 1.8235,0.5023 z m -2.8647,-1.4632 c -0.1415,0.3384 -0.5392,0.3444 -0.944,0.1777 -1.0434,-0.4294 0.0553,-4.9691 0.2458,-6.1325 l 1.836,0.4474 c -0.3302,2.0091 -0.1233,3.0795 -1.1378,5.5074 z m 9.7404,3.7284 c -0.2327,0.5567 -0.4751,0.6545 -1.0443,0.4201 -1.3317,-0.5482 0.1848,-5.6571 0.6494,-7.1005 l 1.9772,0.8144 -1.2353,5.4156 z m 3.7185,0.1148 c -0.2367,0.5658 -0.8141,0.7985 -1.3935,0.5598 -1.0197,-0.4203 0.3716,-5.047 0.9422,-6.4125 l 1.7306,0.7124 c -0.9012,2.1548 -0.5656,3.433 -1.1784,4.8985 z m 2.2243,0.9164 c -0.9133,-0.3764 0.3271,-4.8756 0.7396,-5.9295 1.9698,0.8113 2.2411,-0.2205 1.487,2.0172 -0.4059,1.2041 -0.1618,1.745 -0.7324,3.1107 l -0.1015,0.2418 c -0.2359,0.5658 -0.8141,0.7982 -1.3927,0.5598 z m 4.5159,-0.407 c -0.233,0.557 -0.4751,0.6542 -1.0448,0.4201 -1.2187,-0.5023 0.0447,-4.2653 0.6389,-5.6877 l 1.73,0.7126 -1.1404,4.3339 z m -13.9567,-16.5166 c -0.2219,1.3535 -0.5422,6.294 -2.3241,5.5604 -1.4329,-0.5907 -0.3438,-4.6281 0.2458,-6.1328 z m 5.2932,8.1309 c -0.2832,0.1102 -0.7903,0.2415 -1.1906,0.0765 -1.1171,-0.4604 0.4493,-5.6089 0.8963,-6.9985 l 2.0798,0.5672 z m -10.9761,-4.2378 c -1.1497,-0.4734 -0.0683,-4.6908 0.4921,-6.0308 l 0.7416,0.3051 c 0.6675,0.2752 0.7296,0.1652 1.3368,0.267 l -1.279,5.1406 c -0.1369,0.5794 -0.5513,0.6231 -1.0446,0.4201 z m 8.0657,2.1889 c -0.1111,0.4935 -0.4252,0.6576 -0.752,1.1075 -1.995,-0.874 -0.7608,-5.1129 0.0539,-7.0623 l 0.7415,0.3053 c 0.6679,0.2753 0.7297,0.1656 1.3368,0.2673 z m 6.6286,2.1639 c -0.0836,0.3425 -0.5689,0.3323 -0.9437,0.1781 l -0.7412,-0.3056 -0.0941,-1.1696 1.1247,-4.9113 2.1368,0.5785 z m 3.4427,0.8124 -0.2747,-0.0742 c -1.7042,-0.7461 -1.0585,-3.7063 -0.4059,-5.2679 l 0.3033,-0.7251 1.8907,0.487 z m 3.399,-0.5448 c -0.0131,0.0457 -0.3835,0.4082 -0.5508,0.6234 l -0.9887,-0.4071 0.7852,-5.6035 2.1804,0.5845 z m -13.9343,-18.2126 c -0.2075,1.7853 -0.5065,8.2352 -2.1708,7.5288 -1.3388,-0.5686 -0.3217,-5.9524 0.2294,-7.9846 z m 4.9442,9.8133 c -0.2648,0.1817 -0.7384,0.4215 -1.1123,0.263 -1.0434,-0.443 0.4198,-7.3338 0.8373,-9.1964 l 1.9426,0.449 z m -10.2526,-3.9838 c -1.0741,-0.4558 -0.0638,-6.0724 0.4598,-7.8863 l 0.6925,0.2934 c 0.6236,0.265 0.6817,0.1137 1.2486,0.1621 l -1.1948,6.8406 c -0.1275,0.7699 -0.5148,0.8838 -0.9754,0.6883 z m 7.5339,1.7283 c -0.1038,0.6545 -0.3971,0.911 -0.7024,1.5389 -1.8635,-0.8586 -0.7107,-6.5242 0.0504,-9.1636 l 0.6928,0.294 c 0.6236,0.265 0.6815,0.1145 1.2487,0.1624 z m 6.1914,1.8927 c -0.0776,0.4555 -0.5312,0.5091 -0.8813,0.3608 l -0.6925,-0.2942 -0.0878,-1.5035 1.0505,-6.522 1.9964,0.4561 z m 3.2159,0.5796 -0.2562,-0.0584 c -1.592,-0.7327 -0.989,-4.6595 -0.3796,-6.7736 l 0.2835,-0.9819 1.7657,0.371 z m 36.6333,-10.9244 h 4.7662 c 0,2.6121 0,4.4135 0,7.026 -1.5891,2.0417 -3.178,2.0415 -4.7662,0 z m -7.0135,0 h 4.7659 c 0,2.4718 0,4.1763 0,6.6484 -1.5888,1.9324 -3.1776,1.9324 -4.7659,0 z m -6.3332,0 h 4.4581 c 0,2.3119 0,3.9064 0,6.2189 -1.4862,1.8074 -2.9724,1.8074 -4.4581,0 z m -6.2424,0 h 4.1408 c 0,2.1815 0,3.6862 0,5.8683 -1.3804,1.7056 -2.7609,1.7056 -4.1408,0 z m -5.6543,0 h 3.869 c 0,1.893 0,3.1966 0,5.0882 -1.29,1.4794 -2.5798,1.4794 -3.869,0 z m -5.1117,0 h 3.4166 c 0,1.7274 0,2.9166 0,4.6429 -1.1392,1.3493 -2.2779,1.3493 -3.4166,0 z m 23.3416,12.6666 h 4.7659 c 0,3.1346 0,5.2963 0,8.4311 -1.5888,2.4506 -3.1776,2.4506 -4.7659,0 z m -6.3332,0 h 4.4581 c 0,2.9322 0,4.9538 0,7.8863 -1.4862,2.2921 -2.9724,2.2921 -4.4581,0 z m -6.2424,0 h 4.1408 c 0,2.7666 0,4.6746 0,7.4418 -1.3804,2.1631 -2.7609,2.1631 -4.1408,0 z m -5.6543,0 h 3.869 c 0,2.4004 0,4.0536 0,6.4528 -1.29,1.876 -2.5798,1.876 -3.869,0 z m -5.1117,0 h 3.4166 c 0,2.1903 0,3.6984 0,5.8879 -1.1392,1.7107 -2.2779,1.7107 -3.4166,0 z m 0,11.7162 h 3.4166 c 0,1.7969 0,3.0333 0,4.8294 -1.1392,1.4025 -2.2779,1.4025 -3.4166,0 z m 4.2761,1.538 h 3.0311 c 0,1.7969 0,3.0334 0,4.8294 -1.0109,1.4026 -2.0211,1.4026 -3.0311,0 z m 3.9809,0.9049 h 3.4039 c 0,2.1149 0,3.5699 0,5.6837 -1.135,1.6506 -2.2694,1.6506 -3.4039,0 z m 5.0245,0.9952 h 3.5818 c 0,2.2252 0,3.7568 0,5.9808 -1.1945,1.7371 -2.3885,1.7371 -3.5818,0 z m 5.9261,0.3166 h 3.9821 c 0,2.4741 0,4.1769 0,6.6498 -1.3278,1.931 -2.6552,1.931 -3.9821,0 z m 36.2749,-28.1375 h -4.7661 c 0,2.6121 0,4.4135 0,7.026 1.5888,2.0417 3.1779,2.0415 4.7661,0 z m 7.0135,0 h -4.7659 c 0,2.4718 0,4.1763 0,6.6484 1.5888,1.9324 3.1777,1.9321 4.7659,0 z m 6.3332,0 h -4.4581 c 0,2.3119 0,3.9064 0,6.2189 1.4862,1.8074 2.9724,1.8068 4.4581,0 z m 6.2424,0 h -4.1411 c 0,2.1815 0,3.6865 0,5.8683 1.3808,1.7056 2.7612,1.7053 4.1411,0 z m 5.6543,0 h -3.869 c 0,1.8918 0,3.1966 0,5.0885 1.29,1.4791 2.5795,1.4788 3.869,0 z m 5.1117,0 h -3.4166 c 0,1.726 0,2.9166 0,4.6429 1.139,1.3495 2.2779,1.3493 3.4166,0 z m -23.5213,12.6666 h -4.7659 c 0,3.1346 0,5.2965 0,8.4314 1.5888,2.4503 3.1776,2.45 4.7659,0 z m 6.3332,0 h -4.4581 c 0,2.9319 0,4.9538 0,7.8863 1.4862,2.2918 2.9724,2.2915 4.4581,0 z m 6.2424,0 h -4.1411 c 0,2.7669 0,4.6749 0,7.4421 1.3807,2.1628 2.7612,2.1623 4.1411,0 z m 5.6543,0 h -3.869 c 0,2.3993 0,4.0538 0,6.4531 1.29,1.8751 2.5795,1.8751 3.869,0 z m 5.1117,0 h -3.4166 c 0,2.1889 0,3.6987 0,5.8879 1.139,1.7112 2.2779,1.7107 3.4166,0 z m 111.3018,-12.4143 h -2.8585 v 3.706 h 2.8585 z m -10.8743,0 h -1.6251 v 3.706 h 1.6251 z m 0,5.559 h -1.6251 v 2.9194 h 1.6251 z m -3.8676,-0.7863 h -2.2977 v 3.7057 h 2.2977 z m 0,6.2886 h -2.2977 v 2.4707 h 2.2977 z m 3.8676,0 h -1.7376 v 2.4707 h 1.7376 z m 3.3075,0 h -1.7379 v 1.516 h 1.7379 z m 0.2239,-5.5023 h -1.4567 v 2.9194 h 1.4567 z m 3.6992,0 h -1.4567 v 2.9194 h 1.4567 z m -3.6992,-1.6285 h -1.4567 v 0.8986 h 1.4567 z m 3.6992,0 h -1.4567 v 0.8986 h 1.4567 z m 5.6055,1.6285 h -1.4567 v 2.9194 h 1.4567 z m 3.6995,0 h -1.457 v 2.9194 h 1.457 z m -3.6995,-1.6285 h -1.4567 v 0.8986 h 1.4567 z m 3.6995,0 h -1.457 v 0.8986 h 1.457 z m 3.6995,-3.9305 h -1.6251 v 3.706 h 1.6251 z m 0,5.559 h -1.6251 v 2.9194 h 1.6251 z m 4.2041,0 h -1.6251 v 2.9194 h 1.6251 z m 0,5.6707 h -1.6251 v 2.9194 h 1.6251 z m -7.8474,-0.1684 h -1.7377 v 1.516 h 1.7377 z m 3.5875,0 h -1.7379 v 1.516 h 1.7379 z m -14.7073,7.8823 h 1.2181 v -3.0568 h -1.2181 z m 2.0019,0 h 1.218 v -3.0568 h -1.218 z m 2.0279,0 h 1.218 v -3.0568 h -1.218 z m 2.0018,0 h 1.218 v -3.0568 h -1.218 z m -63.3473,2.573 v -17.9934 h 1.8309 v 17.9934 z m 3.6618,0 v -17.9934 h 1.8309 v 17.9934 z m 3.6615,0 v -17.9934 h 1.8312 v 17.9934 z m 3.6621,0 v -17.9934 h 1.8312 v 17.9934 h -0.9884 z m 3.6618,0 v -17.9934 h 1.8312 v 17.9934 z m 3.6621,0 v -17.9934 h 1.8306 v 17.9934 z m 3.6615,0 v -17.9934 h 1.8312 v 17.9934 z M 492.461,886.062 h 4.1239 v -4.1238 h -4.1239 z m 6.103,0 h 4.1238 v -4.1238 h -4.1238 z m 18.8867,0 h 4.1238 v -4.1238 h -4.1238 z m 6.103,0 h 4.1238 v -4.1238 h -4.1238 z m -175.849,7.5223 h 0.9757 v -1.5638 h -0.9757 z m 3.1584,0 h 0.9757 v -1.5638 h -0.9757 z m -39.3545,-20.3411 h 1.6058 v -3.3386 h -1.6058 z m 2.3105,0 h 1.9069 v -3.3386 h -1.9069 z m 10.2365,0 h -1.6059 v -3.3386 h 1.6059 z m -2.3106,0 h -1.9068 v -3.3386 h 1.9068 z m -17.0606,-6.0162 h -3.211 v 4.9898 h 3.211 z m 33.1209,2.6767 h 1.061 v 13.1531 h -1.061 v 0.7959 h 23.0868 v -0.7959 h -0.707 v -13.1531 h 0.9723 v -0.7957 h -0.9723 -0.8507 -1.061 v 0.7957 h 1.061 v 13.1531 h -4.1003 v -13.1531 h 0.9726 v -0.7957 h -0.9726 -0.8507 -1.061 v 0.7957 h 1.061 v 13.1531 h -9.2732 v -13.1531 h 1.0168 v -0.7957 h -1.0168 -0.8507 -1.0168 v 0.7957 h 1.0168 v 13.1531 h -4.5425 v -13.1531 h 0.9725 v -0.7957 h -0.9725 -0.8507 -1.061 z m 20.3902,5.7609 v -3.8311 h -1.7295 v 3.8311 z m 0,5.1811 v -2.4142 h -1.7295 v 2.4142 z m -15.1189,-5.1811 v -3.8311 h -1.8675 v 3.8311 z m 0,5.1811 v -2.4142 h -1.8675 v 2.4142 z m 18.9207,-0.8203 h 1.724 v -2.7014 h -1.724 z m 0,-4.517 h 1.724 v -3.2327 h -1.724 z m 3.6249,4.517 h 1.7241 v -2.7014 h -1.7241 z m 0,-4.517 h 1.7241 v -3.2327 h -1.7241 z m 3.625,4.517 h 1.7237 v -2.7014 h -1.7237 z m 0,-4.517 h 1.7237 v -3.2327 h -1.7237 z m -41.5106,4.517 h 1.7241 v -2.7014 h -1.7241 z m 0,-4.517 h 1.7241 v -3.2327 h -1.7241 z m 3.625,4.517 h 1.724 v -2.7014 h -1.724 z m 0,-4.517 h 1.724 v -3.2327 h -1.724 z m 3.6249,4.517 h 1.7238 v -2.7014 h -1.7238 z m 0,-4.517 h 1.7238 v -3.2327 h -1.7238 z"
         style="fill:#cfa64b;fill-opacity:1;fill-rule:evenodd;stroke:none"
         transform="matrix(0.22162655,0,0,-0.22162655,9.3204113,340.25168)"
         clip-path="url(#clipPath40)" />
      <path
         id="path49"
         d="m 8.5669234,-4.6643406 c 0,0.6445312 0,1.2304687 0.1171875,1.640625 0.058594,0.3984375 0.234375,0.6914062 0.4570313,0.984375 0.234375,0.234375 0.6445312,0.3515625 1.1132808,0.46875 0.46875,0.1171875 1.042969,0.1757812 1.863282,0.1757812 h 2.097656 c 1.101562,0 1.980469,-0.1171875 2.683594,-0.2929687 0.691406,-0.1757813 1.277343,-0.46875 1.746093,-0.9375 0.457032,-0.3984375 0.867188,-0.984375 1.277344,-1.6875 0.351563,-0.703125 0.761719,-1.5703125 1.160156,-2.5664063 l 1.113282,0.234375 c -0.117188,0.5859375 -0.292969,1.171875 -0.410157,1.7460938 -0.117187,0.6445312 -0.234375,1.2890625 -0.351562,1.875 -0.117188,0.6328125 -0.234375,1.1601562 -0.292969,1.6875 -0.05859,0.57421872 -0.105469,0.98437497 -0.164062,1.335937475 -3.738282,0 -6.820313,0 -9.152344,-0.058593755 -2.3320313,0 -4.0781251,0 -5.2382813,0 -0.3515625,0 -0.7617188,0 -1.2304688,0 -0.4570312,0 -0.9257812,0 -1.453125,0 -0.46875,0 -0.9257812,0.058593755 -1.3945312,0.058593755 -0.46875,0 -0.8789063,0 -1.171875,0 L 1.2192672,-0.99637188 c 0.8789062,-0.046875 1.5820312,-0.10546872 2.0976562,-0.22265622 0.5273438,-0.1171875 0.9375,-0.3515625 1.2304688,-0.5859375 0.2929687,-0.234375 0.46875,-0.6445313 0.5742187,-1.0546875 0.1171875,-0.4570313 0.1171875,-1.0429688 0.1171875,-1.7460938 V -23.765903 c 0,-0.46875 0,-0.820313 -0.1171875,-1.113281 -0.058594,-0.339844 -0.2226562,-0.574219 -0.515625,-0.75 -0.234375,-0.234375 -0.5859375,-0.351563 -1.1132812,-0.46875 -0.46875,-0.05859 -1.1015625,-0.175782 -1.921875,-0.175782 l 0.058594,-1.042968 c 0.4101563,0 0.8203125,0 1.2890625,0 0.4570313,0.05859 0.9257813,0.05859 1.3945313,0.05859 0.46875,0 0.9257812,0 1.3945312,0 0.46875,0 0.9375,0 1.3359375,0 0.703125,0 2.2734375,0 4.6640618,0 2.332032,-0.05859 5.367188,-0.05859 9.035157,-0.05859 -0.117188,0.984375 -0.175782,1.980468 -0.234375,3.023437 -0.05859,1.113281 -0.117188,2.214844 -0.117188,3.433594 h -1.171875 c -0.164062,-0.984375 -0.339844,-1.804688 -0.574219,-2.4375 -0.175781,-0.644531 -0.46875,-1.171875 -0.878906,-1.582031 -0.351562,-0.339844 -0.867187,-0.632813 -1.453125,-0.808594 -0.644531,-0.175781 -1.394531,-0.234375 -2.390625,-0.234375 H 9.9028609 c -0.5859375,0 -0.984375,0.05859 -1.1015625,0.175781 -0.1757812,0.117188 -0.234375,0.410156 -0.234375,0.867188 v 9.84375 l 9.6093746,-0.28125 0.175782,0.234375 -0.05859,2.320312 c -1.746094,-0.117187 -3.433594,-0.234375 -5.132813,-0.292969 -1.628906,-0.04687 -3.1992183,-0.105468 -4.5937496,-0.164062 z M 35.12747,-11.355747 c -0.05859,-0.585937 -0.234375,-1.171875 -0.46875,-1.640625 -0.234375,-0.515625 -0.515625,-0.984375 -0.925781,-1.335937 -0.410156,-0.351563 -0.820312,-0.644532 -1.347656,-0.808594 -0.515625,-0.234375 -1.042969,-0.292969 -1.628906,-0.292969 -0.410157,0 -0.75,0.05859 -1.042969,0.175781 -0.351563,0.117188 -0.644531,0.222657 -0.878906,0.457032 -0.292969,0.234375 -0.46875,0.46875 -0.632813,0.761718 -0.175781,0.351563 -0.234375,0.703125 -0.234375,1.101563 0,0.46875 0.117188,0.878906 0.339844,1.230469 0.234375,0.351562 0.585937,0.644531 0.9375,0.925781 0.410156,0.292969 0.878906,0.527344 1.335937,0.761719 0.527344,0.1757809 1.054688,0.4101559 1.582032,0.5859371 0.574218,0.2929688 1.160156,0.515625 1.746093,0.8085938 0.574219,0.234375 1.101563,0.5859375 1.570313,0.9375 0.410156,0.4101562 0.820312,0.8085937 1.042969,1.3359375 0.292968,0.5273437 0.410156,1.1132812 0.410156,1.8046875 0,0.9375 -0.175781,1.6875 -0.527344,2.3320312 -0.398437,0.5859375 -0.867187,1.171875 -1.511719,1.57031252 -0.585937,0.41015625 -1.277343,0.703125 -2.039062,0.9375 -0.75,0.17578125 -1.570313,0.29296875 -2.332031,0.29296875 -0.457032,0 -0.984375,-0.0585938 -1.511719,-0.1171875 -0.46875,-0.0585938 -0.925781,-0.17578125 -1.394531,-0.234375 -0.410157,-0.1171875 -0.761719,-0.234374995 -1.113282,-0.29296875 -0.398437,-0.1171875 -0.808593,-0.17578125 -1.21875,-0.17578125 -0.05859,-0.3515625 -0.05859,-0.76171875 -0.117187,-1.21874997 -0.05859,-0.5273438 -0.117188,-1.0546875 -0.175781,-1.5234375 -0.05859,-0.515625 -0.117188,-1.0429688 -0.175782,-1.5117188 -0.05859,-0.4101562 -0.117187,-0.8085937 -0.175781,-1.0429687 l 0.9375,-0.2929688 c 0.292969,0.6445313 0.585938,1.2773438 0.867188,1.921875 0.351562,0.5859375 0.703125,1.1015625 1.171875,1.5703125 0.46875,0.46875 0.925781,0.8789063 1.511718,1.1132813 0.585938,0.28124997 1.21875,0.45703122 2.039063,0.45703122 0.761719,0 1.394531,-0.234375 1.980469,-0.63281252 0.527343,-0.4101562 0.820312,-0.9960937 0.820312,-1.8632812 0,-0.46875 -0.117187,-0.8789063 -0.292969,-1.2304688 -0.234375,-0.4101562 -0.527343,-0.6914062 -0.9375,-0.984375 -0.351562,-0.2929687 -0.75,-0.5859375 -1.21875,-0.7617187 -0.46875,-0.234375 -0.9375,-0.46875 -1.453125,-0.6445313 -0.585937,-0.2226562 -1.171875,-0.515625 -1.757812,-0.8085937 -0.574219,-0.234375 -1.101563,-0.5859375 -1.570313,-0.9375 -0.46875,-0.4101563 -0.808593,-0.8085938 -1.101562,-1.3359375 -0.292969,-0.5273434 -0.410156,-1.1015624 -0.410156,-1.8632814 0,-0.878906 0.175781,-1.628906 0.527343,-2.214844 0.410157,-0.644531 0.867188,-1.160156 1.453125,-1.570312 0.585938,-0.410156 1.21875,-0.703125 1.980469,-0.878906 0.703125,-0.234375 1.453125,-0.292969 2.214844,-0.292969 0.761719,0 1.511719,0.05859 2.273437,0.234375 0.691407,0.117187 1.570313,0.234375 2.507813,0.292969 -0.05859,0.585937 -0.05859,1.171875 -0.117188,1.6875 0,0.527343 0,1.113281 0,1.746093 v 1.40625 z m 20.797852,-4.957031 c -0.05859,0.46875 -0.117188,1.054687 -0.175781,1.628906 -0.05859,0.585938 -0.05859,1.230469 -0.117188,1.804688 0,0.585937 -0.05859,1.171875 -0.05859,1.699218 0,0.515625 -0.05859,0.984375 -0.05859,1.2773441 V 9.3747219 c 0,0.46875 0.05859,0.8203121 0.117187,1.1132811 0.05859,0.292969 0.175781,0.46875 0.351563,0.632813 0.234375,0.175781 0.527343,0.234375 0.9375,0.292968 0.398437,0.05859 0.925781,0.117188 1.628906,0.175782 l -0.117188,1.054687 c -0.585937,0 -1.277343,0 -2.15625,-0.05859 -0.820312,0 -1.6875,0 -2.566406,0 -0.410156,0 -0.75,0 -1.21875,0 -0.410156,0 -0.878906,0 -1.289062,0 -0.457032,0 -0.867188,0 -1.277344,0.05859 -0.351563,0 -0.703125,0 -0.925781,0 l -0.117188,-0.9375 c 0.867188,-0.05859 1.511719,-0.117187 1.980469,-0.234375 0.457031,-0.117187 0.867187,-0.292969 1.101562,-0.515625 0.234375,-0.234375 0.410157,-0.585937 0.46875,-0.9960936 0.05859,-0.46875 0.05859,-0.984375 0.05859,-1.7460938 v -9.609375 c -0.9375,0.69140627 -1.921875,1.16015627 -2.859375,1.51171877 -0.925781,0.29296875 -1.863281,0.41015625 -2.789062,0.41015625 -1.054688,0 -2.097657,-0.17578125 -2.976563,-0.64453125 -0.925781,-0.41015625 -1.6875,-0.92578127 -2.332031,-1.68749997 -0.574219,-0.703125 -1.101563,-1.5117188 -1.453125,-2.5078125 -0.351563,-0.9257813 -0.527344,-1.9804688 -0.527344,-3.0820313 0,-1.40625 0.292969,-2.6835936 0.820313,-3.7851566 0.527343,-1.171875 1.21875,-2.15625 2.15625,-2.976562 0.867187,-0.820313 1.980468,-1.453125 3.140625,-1.921875 1.230468,-0.46875 2.507812,-0.703125 3.902343,-0.703125 0.46875,0 1.171875,0.05859 1.980469,0.175781 0.820313,0.117188 1.628906,0.292969 2.390625,0.585938 0.292969,-0.05859 0.585938,-0.175782 0.878906,-0.292969 0.351563,-0.05859 0.574219,-0.175781 0.808594,-0.234375 z m -3.433594,2.742187 c -0.527344,-0.585937 -1.171875,-0.996093 -1.921875,-1.289062 -0.703125,-0.28125 -1.453125,-0.457031 -2.273437,-0.457031 -0.585938,0 -1.21875,0.117187 -1.804688,0.398437 -0.644531,0.234375 -1.171875,0.644531 -1.6875,1.171875 -0.527344,0.527344 -0.9375,1.21875 -1.289062,2.097656 -0.292969,0.867188 -0.457032,1.9218754 -0.457032,3.1406254 0,1.171875 0.164063,2.0976562 0.515625,2.9765625 0.292969,0.8085937 0.761719,1.5703125 1.289063,2.15625 0.515625,0.5742187 1.160156,0.984375 1.804687,1.3359375 0.632813,0.2929687 1.335938,0.4101562 2.039063,0.4101562 0.632812,0 1.335937,-0.058594 1.980469,-0.2929687 0.632812,-0.1757813 1.277343,-0.46875 1.804687,-0.8789063 z m 20.62207,13.74609412 c 0,-0.3515625 0.05859,-0.76171875 0.05859,-1.21875002 0,-0.46875 0.05859,-0.8789062 0.05859,-1.2304687 -0.996094,0.9375 -2.097656,1.62890622 -3.210938,2.09765622 -1.101562,0.52734375 -2.214843,0.76171875 -3.257812,0.76171875 -0.703125,0 -1.335938,-0.1171875 -1.921875,-0.3515625 -0.585938,-0.234374995 -1.113281,-0.5859375 -1.511719,-1.0546875 -0.46875,-0.51562497 -0.820312,-1.10156247 -1.054687,-1.86328127 -0.234375,-0.75 -0.351563,-1.6875 -0.351563,-2.7304687 v -6.8203124 c 0,-0.527344 -0.05859,-0.925781 -0.117187,-1.277344 -0.05859,-0.292969 -0.175782,-0.527344 -0.339844,-0.703125 -0.175781,-0.175781 -0.410156,-0.292969 -0.761719,-0.410156 -0.351562,-0.05859 -0.761719,-0.175781 -1.335937,-0.234375 l -0.05859,-0.867188 c 0.632812,-0.05859 1.21875,-0.117187 1.804687,-0.234375 0.632813,-0.117187 1.160157,-0.175781 1.6875,-0.292968 0.527344,-0.117188 0.984375,-0.175782 1.394532,-0.292969 0.351562,-0.05859 0.644531,-0.175781 0.878906,-0.234375 l 0.292969,0.234375 c -0.05859,0.46875 -0.117188,0.996094 -0.117188,1.511719 -0.05859,0.527343 -0.05859,1.054687 -0.117187,1.582031 0,0.515625 -0.05859,0.984375 -0.05859,1.453125 0,0.46875 0,0.878906 0,1.21875 v 4.2539061 c 0,0.8789063 0.05859,1.6289063 0.292969,2.2734375 0.175781,0.5859375 0.398437,1.1132813 0.691406,1.5117188 0.292969,0.3515625 0.644531,0.6445312 1.113281,0.7617187 0.410156,0.1757813 0.808594,0.2929688 1.335938,0.2929688 0.761718,0 1.570312,-0.1757813 2.390625,-0.5273438 0.808593,-0.3515625 1.570312,-0.7617187 2.332031,-1.3359375 v -8.6835936 c 0,-0.527344 -0.05859,-0.925781 -0.117188,-1.277344 -0.05859,-0.292969 -0.175781,-0.527344 -0.351562,-0.703125 -0.175781,-0.175781 -0.46875,-0.292969 -0.878906,-0.410156 -0.339844,-0.05859 -0.867188,-0.175781 -1.453125,-0.234375 l -0.05859,-0.867188 c 0.644531,-0.05859 1.289062,-0.117187 1.921875,-0.234375 0.644531,-0.117187 1.230469,-0.175781 1.746094,-0.292968 0.527343,-0.117188 0.996093,-0.234375 1.40625,-0.292969 0.339843,-0.05859 0.632812,-0.175781 0.808593,-0.234375 l 0.351563,0.234375 c -0.05859,0.46875 -0.117188,0.996094 -0.175781,1.511719 0,0.527343 -0.05859,1.054687 -0.05859,1.582031 -0.05859,0.515625 -0.05859,0.984375 -0.05859,1.453125 -0.05859,0.46875 -0.05859,0.878906 -0.05859,1.21875 v 6.6445311 c 0,0.5273438 0.05859,0.9375 0.117188,1.2773438 0.05859,0.2929687 0.175781,0.5273437 0.351562,0.703125 0.234375,0.1757812 0.527344,0.2929687 0.878907,0.3515625 0.398437,0.1171875 0.925781,0.1757812 1.570312,0.2929687 l 0.117188,0.80859377 c -0.585938,0.0585938 -1.171875,0.1171875 -1.746094,0.234375 -0.585938,0.0585938 -1.171875,0.17578125 -1.699219,0.234375 -0.574219,0.1171875 -1.042969,0.234375005 -1.453125,0.3515625 -0.46875,0.1171875 -0.808594,0.234375 -0.984375,0.29296875 z m 17.06836,-0.175781245 c -0.585938,0 -1.335938,0 -2.15625,-0.058593755 -0.878906,0 -1.746094,0 -2.683594,0 -0.691406,0 -1.453125,0 -2.15625,0 -0.691406,0.058593755 -1.277344,0.058593755 -1.804687,0.058593755 l -0.05859,-0.937500005 c 0.585937,-0.0585938 1.113281,-0.10546877 1.464844,-0.22265627 0.398437,-0.1171875 0.691406,-0.2929687 0.867187,-0.5273437 0.234375,-0.234375 0.351563,-0.5859375 0.410156,-0.9960938 0.05859,-0.4570312 0.117188,-0.984375 0.117188,-1.7460937 v -7.4531254 c 0,-0.527343 -0.05859,-0.9375 -0.117188,-1.277343 -0.05859,-0.292969 -0.175781,-0.527344 -0.351562,-0.703125 -0.175781,-0.175782 -0.410156,-0.292969 -0.75,-0.410157 -0.351563,-0.05859 -0.820313,-0.175781 -1.40625,-0.292968 l -0.05859,-0.808594 c 0.585938,-0.117188 1.171875,-0.234375 1.746094,-0.351563 0.585937,-0.117187 1.171875,-0.234375 1.699219,-0.351562 0.515625,-0.175781 0.984375,-0.292969 1.394531,-0.410156 0.410156,-0.117188 0.703125,-0.234375 0.925781,-0.292969 l 0.292969,0.234375 c -0.05859,0.46875 -0.117188,0.9375 -0.175781,1.511719 -0.05859,0.527343 -0.05859,1.054687 -0.05859,1.582031 -0.05859,0.515625 -0.05859,0.984375 -0.05859,1.453125 0,0.46875 0,0.878906 0,1.21875 v 7.5234374 c 0,0.4570312 0,0.8085937 0.05859,1.1015625 0.05859,0.2929687 0.175781,0.46875 0.410156,0.6445312 0.175781,0.1757813 0.46875,0.234375 0.878906,0.2929688 0.410157,0.058594 0.925782,0.1171875 1.628907,0.1757812 z M 83.59622,-23.590122 c 0,-0.644531 0.175782,-1.171875 0.527344,-1.511719 0.410156,-0.410156 0.9375,-0.585937 1.511719,-0.585937 0.703125,0 1.230469,0.175781 1.570312,0.585937 0.410157,0.339844 0.585938,0.867188 0.585938,1.511719 0,0.574219 -0.175781,1.101563 -0.585938,1.511719 -0.339843,0.351562 -0.867187,0.585937 -1.570312,0.585937 -0.574219,0 -1.101563,-0.234375 -1.511719,-0.585937 -0.351562,-0.410156 -0.527344,-0.9375 -0.527344,-1.511719 z m 17.0127,23.589843875 c -0.58594,0 -1.277348,0 -2.039067,-0.058593755 -0.761719,0 -1.570312,0 -2.507812,0 -0.75,0 -1.453125,0 -2.214844,0 -0.691406,0.058593755 -1.335938,0.058593755 -1.863281,0.058593755 L 91.866728,-0.93777813 c 0.644531,-0.0585938 1.171875,-0.10546877 1.582031,-0.22265627 0.339844,-0.1171875 0.691407,-0.2929687 0.867188,-0.5273437 0.234375,-0.234375 0.410156,-0.5859375 0.46875,-0.9960938 0.05859,-0.4570312 0.05859,-0.984375 0.05859,-1.7460937 v -7.3359374 c 0,-0.527344 0,-0.996094 -0.05859,-1.289063 -0.05859,-0.28125 -0.175781,-0.515625 -0.351563,-0.691406 -0.175781,-0.175781 -0.46875,-0.351562 -0.808593,-0.410156 -0.351563,-0.117188 -0.820313,-0.234375 -1.40625,-0.292969 l -0.05859,-0.808594 c 0.46875,-0.05859 0.996094,-0.175781 1.523437,-0.351562 0.515625,-0.117188 1.042969,-0.234375 1.570313,-0.410156 0.527344,-0.117188 0.984375,-0.292969 1.453125,-0.410157 0.46875,-0.117187 0.820312,-0.234375 1.101562,-0.351562 l 0.351563,0.234375 c -0.05859,0.410156 -0.117188,0.761719 -0.175781,1.171875 -0.05859,0.398437 -0.05859,0.75 -0.05859,1.160156 1.054687,-0.820312 2.09766,-1.453125 3.26953,-1.863281 1.16016,-0.46875 2.27344,-0.703125 3.25782,-0.703125 0.70312,0 1.34765,0.117187 1.92187,0.292969 0.64453,0.234375 1.17188,0.585937 1.57031,1.054687 0.41016,0.457031 0.76172,1.101563 1.05469,1.804688 0.23438,0.75 0.35156,1.628906 0.35156,2.671875 v 7.6992184 c 0,0.4570312 0.0586,0.8085937 0.11719,1.1015625 0.0586,0.2929687 0.17578,0.46875 0.35156,0.6445312 0.16407,0.1757813 0.45703,0.234375 0.8086,0.2929688 0.35156,0.058594 0.82031,0.1171875 1.45312,0.1757812 l -0.0586,1.042968775 c -0.63281,0 -1.27735,0 -2.03906,-0.058593755 -0.69141,0 -1.51172,0 -2.4375,0 -0.76172,0 -1.46485,0 -2.09766,0 -0.70313,0.058593755 -1.28906,0.058593755 -1.80469,0.058593755 l -0.11719,-0.937500005 c 0.57422,-0.0585938 1.10157,-0.10546877 1.45313,-0.22265627 0.35156,-0.058594 0.64453,-0.234375 0.82031,-0.46875 0.16406,-0.1757812 0.28125,-0.5273437 0.33985,-0.9375 0.0586,-0.4101562 0.11718,-0.9257812 0.11718,-1.6875 v -5.9999996 c 0,-1.511719 -0.35156,-2.625 -1.04297,-3.257813 -0.64453,-0.703125 -1.51171,-1.054687 -2.50781,-1.054687 -0.76172,0 -1.51172,0.175781 -2.33203,0.46875 -0.808595,0.292968 -1.628908,0.703125 -2.44922,1.21875 v 9.6210934 c 0,0.4570312 0.05859,0.8085937 0.05859,1.1015625 0.05859,0.2929687 0.175781,0.46875 0.351562,0.6445312 0.234375,0.1757813 0.527344,0.234375 0.878906,0.2929688 0.351563,0.058594 0.867182,0.1171875 1.453122,0.1757812 z M 124.02298,-9.1994969 c 0.0586,-0.1171875 0.0586,-0.2929687 0.0586,-0.46875 v -2.0976561 c 0,-0.9375 -0.22265,-1.746094 -0.6914,-2.390625 -0.46875,-0.644531 -1.23047,-0.925781 -2.21485,-0.925781 -0.58594,0 -1.05469,0.04687 -1.39453,0.28125 -0.41016,0.175781 -0.76172,0.46875 -0.99609,0.761718 -0.23438,0.351563 -0.46875,0.703125 -0.58594,1.101563 -0.11719,0.410156 -0.17578,0.878906 -0.17578,1.347656 -0.28125,0.234375 -0.69141,0.351563 -1.27735,0.351563 -0.41015,0 -0.82031,-0.117188 -1.21875,-0.292969 -0.35156,-0.175781 -0.58593,-0.527344 -0.58593,-0.878906 0,-0.351563 0.11718,-0.644532 0.35156,-0.984375 0.23437,-0.292969 0.58594,-0.644532 0.92578,-0.9375 0.41016,-0.292969 0.87891,-0.585938 1.34766,-0.867188 0.45703,-0.292969 0.92578,-0.527344 1.45312,-0.761719 1.21875,-0.527343 2.50781,-0.820312 3.72656,-0.820312 0.58594,0 1.17188,0.05859 1.6875,0.234375 0.52735,0.175781 0.9961,0.410156 1.40625,0.761719 0.39844,0.351562 0.69141,0.808593 0.92579,1.335937 0.23437,0.585938 0.35156,1.230469 0.35156,1.980469 0,1.171875 0,2.449219 -0.0586,3.9609374 0,1.4648437 -0.0586,3.1523437 -0.0586,4.9570312 0,0.75 0.17578,1.3359375 0.46875,1.7460938 0.23438,0.4101562 0.63281,0.5859375 1.16016,0.5859375 0.46875,0 0.9375,-0.1171875 1.45312,-0.46875 l 0.52735,0.74999997 c -0.41016,0.41015625 -0.92579,0.76171875 -1.57032,1.0546875 -0.64453,0.29296875 -1.27734,0.41015625 -1.92187,0.41015625 -0.70313,0 -1.27735,-0.17578125 -1.86328,-0.5859375 -0.52735,-0.3515625 -0.9375,-0.9375 -1.11328,-1.80468752 -0.17579,0.1171875 -0.45704,0.2929688 -0.86719,0.5859375 -0.41016,0.234375 -0.87891,0.51562502 -1.39453,0.80859377 -0.46875,0.29296875 -1.05469,0.52734375 -1.64063,0.703125 -0.57422,0.234375 -1.16015,0.3515625 -1.6875,0.3515625 -0.58594,0 -1.16015,-0.1171875 -1.6875,-0.3515625 -0.52734,-0.234374995 -0.9375,-0.52734375 -1.33594,-0.9375 -0.35156,-0.39843747 -0.64453,-0.80859377 -0.82031,-1.33593747 -0.23437,-0.5273438 -0.35156,-1.0429688 -0.35156,-1.6289063 0,-0.9375 0.29297,-1.7460937 0.87891,-2.4492187 0.52734,-0.703125 1.27734,-1.21875 2.21484,-1.6289063 0.63281,-0.234375 1.51172,-0.5273437 2.61328,-0.8203125 1.11328,-0.2929687 2.44922,-0.46875 3.96094,-0.6328125 z m 0,5.9414063 c 0,-0.7617188 0,-1.5820313 0,-2.3320313 0,-0.7617187 0,-1.5117187 0,-2.3320312 -0.45703,0.058594 -0.98438,0.1171875 -1.51172,0.234375 -0.52734,0.058594 -1.04297,0.1757812 -1.51172,0.2929687 -0.52734,0.1757813 -0.99609,0.3515625 -1.39453,0.515625 -0.46875,0.234375 -0.82031,0.46875 -1.11328,0.7617188 -0.46875,0.4101562 -0.69141,0.9375 -0.69141,1.6289062 0,0.7617188 0.16406,1.4648438 0.57422,1.9804688 0.41016,0.5859375 1.05469,0.8789062 1.92188,0.8789062 0.58593,0 1.23046,-0.1757812 1.86328,-0.46875 0.70312,-0.2929687 1.28906,-0.6445312 1.86328,-1.1601562 z m 35.13867,-23.1914064 c -1.86328,0.410156 -3.44531,1.054688 -4.83984,1.863281 -1.33594,0.761719 -2.50782,1.6875 -3.49219,2.800782 -0.9961,1.042968 -1.7461,2.273437 -2.33203,3.609375 -0.58594,1.335937 -0.9961,2.742187 -1.27735,4.253906 0.98438,-0.703125 1.98047,-1.160156 2.96485,-1.511719 1.05468,-0.351562 2.03906,-0.527344 3.03515,-0.527344 0.98438,0 1.92188,0.175782 2.78907,0.527344 0.8789,0.351563 1.6875,0.808594 2.33203,1.453125 0.70312,0.585938 1.21875,1.394531 1.6289,2.273438 0.35157,0.925781 0.58594,1.9804684 0.58594,3.1406246 0,1.2890625 -0.23437,2.5078125 -0.64453,3.609375 -0.46875,1.1132813 -1.04297,2.0390625 -1.80469,2.9179688 -0.75,0.8203125 -1.6875,1.45312497 -2.78906,1.92187497 -1.05469,0.46875 -2.21484,0.703125 -3.50391,0.703125 -1.45312,0 -2.67187,-0.29296875 -3.72656,-0.87890625 -1.04297,-0.52734375 -1.92187,-1.27734372 -2.625,-2.27343752 -0.69141,-0.9257812 -1.21875,-2.0390625 -1.51172,-3.2578125 -0.35156,-1.21875 -0.52734,-2.5078125 -0.52734,-3.9023437 0,-2.3320314 0.35156,-4.5468754 1.05469,-6.5859374 0.70312,-1.980469 1.74609,-3.785156 3.02343,-5.355469 1.34766,-1.570312 2.97657,-2.859375 4.83985,-3.902344 1.92187,-1.054687 4.01953,-1.804687 6.41015,-2.273437 z m -12,13.980469 c -0.0586,0.292969 -0.11719,0.585937 -0.11719,0.878906 0,0.351563 0,0.632813 0,0.984375 0,0.8789064 0.0586,1.8632814 0.23438,3.0351564 0.16406,1.1015625 0.45703,2.15625 0.86718,3.140625 0.41016,0.9960937 0.9961,1.8046875 1.7461,2.4492187 0.70312,0.703125 1.6289,0.98437502 2.80078,0.98437502 0.75,0 1.39453,-0.10546872 1.92187,-0.45703122 0.52735,-0.3515625 0.98438,-0.7617188 1.33594,-1.3476563 0.35156,-0.515625 0.58594,-1.21875 0.76172,-1.921875 0.17578,-0.75 0.29297,-1.5703125 0.29297,-2.4375 0,-0.9375 -0.11719,-1.7578125 -0.35156,-2.5664062 -0.17578,-0.7617184 -0.52735,-1.3945314 -0.9961,-1.9804684 -0.39843,-0.527344 -0.98437,-0.9375 -1.6875,-1.230469 -0.6914,-0.28125 -1.51172,-0.457031 -2.44922,-0.457031 -0.6914,0 -1.45312,0.05859 -2.26171,0.234375 -0.82032,0.164062 -1.52344,0.398437 -2.09766,0.691406 z m 16.77539,-6.117188 c 0,-0.691406 -0.0586,-1.277343 -0.0586,-1.804687 -0.0586,-0.527344 -0.0586,-1.101563 -0.11719,-1.6875 1.10156,-0.644531 2.21484,-1.160156 3.31641,-1.570313 1.05468,-0.351562 2.27343,-0.527343 3.5625,-0.527343 0.92578,0 1.80468,0.117187 2.67187,0.351562 0.87891,0.234375 1.6875,0.585938 2.39063,1.042969 0.64453,0.46875 1.21875,1.054687 1.6875,1.746094 0.41015,0.703125 0.64453,1.523437 0.64453,2.507812 0,0.234375 -0.0586,0.527344 -0.11719,0.9375 -0.0586,0.410156 -0.29297,0.867188 -0.52734,1.394531 -0.29297,0.527344 -0.69141,1.113282 -1.27735,1.746094 -0.52734,0.644531 -1.28906,1.289063 -2.21484,2.039063 0.76172,0.234375 1.51172,0.527343 2.15625,0.878906 0.6914,0.410156 1.33594,0.808594 1.80469,1.394531 0.52734,0.5273439 0.92578,1.1015626 1.21875,1.8046876 0.29296,0.6445313 0.46875,1.3945313 0.46875,2.2148438 0,1.6875 -0.41016,3.1992187 -1.10157,4.4882812 -0.76172,1.27734377 -1.69922,2.39062502 -2.85937,3.2578125 -1.16016,0.8789063 -2.44922,1.5117188 -3.96094,1.9804688 -1.45312,0.46875 -2.91797,0.6445312 -4.37109,0.6445312 -0.52735,0 -1.04297,0 -1.62891,-0.058594 -0.52734,-0.1171875 -1.04297,-0.234375 -1.45312,-0.4101563 -0.46875,-0.1757812 -0.87891,-0.46875 -1.17188,-0.7617187 -0.29297,-0.3398438 -0.39844,-0.75 -0.39844,-1.2773438 0,-0.5273437 0.16407,-0.92578123 0.51563,-1.33593748 0.41015,-0.3515625 0.8789,-0.64453125 1.40625,-0.703125 0.6914,0.76171875 1.51172,1.33593748 2.49609,1.74609378 0.9961,0.46875 2.03906,0.6445312 3.03516,0.6445312 0.92578,0 1.74609,-0.1757812 2.50781,-0.46875 0.69141,-0.3515625 1.33594,-0.74999998 1.86328,-1.33593748 0.45703,-0.5859375 0.86719,-1.2890625 1.10156,-2.03906252 0.29297,-0.8203125 0.41016,-1.6875 0.41016,-2.625 0,-0.984375 -0.11719,-1.8632812 -0.46875,-2.5664062 -0.29297,-0.75 -0.75,-1.3359375 -1.27734,-1.8046875 -0.58594,-0.515625 -1.23047,-0.8671875 -1.98047,-1.1015625 -0.82031,-0.2343746 -1.6875,-0.3515626 -2.625,-0.3515626 -0.41016,0 -0.87891,0 -1.33594,0.05859 -0.46875,0.05859 -0.9375,0.117188 -1.28906,0.2929686 l -0.23438,-1.2773436 c 0.87891,-0.234375 1.81641,-0.46875 2.80078,-0.761719 0.9375,-0.292968 1.7461,-0.703125 2.56641,-1.171875 0.75,-0.515625 1.33594,-1.101562 1.86328,-1.863281 0.46875,-0.75 0.70313,-1.6875 0.70313,-2.789062 0,-0.644532 -0.11719,-1.230469 -0.35157,-1.746094 -0.23437,-0.527344 -0.58593,-0.996094 -0.99609,-1.347656 -0.41016,-0.339844 -0.92578,-0.632813 -1.45312,-0.808594 -0.58594,-0.234375 -1.11329,-0.351563 -1.7461,-0.351563 -0.70312,0 -1.34765,0.117188 -1.98047,0.351563 -0.58593,0.234375 -1.05468,0.574219 -1.51172,0.984375 -0.41015,0.410156 -0.76171,0.9375 -1.05468,1.523437 -0.23438,0.574219 -0.41016,1.277344 -0.46875,1.980469 l -1.16016,-0.05859 z m 48.28711,3.269532 c -0.57422,0.05859 -1.04297,0.117187 -1.39453,0.234375 -0.35156,0.105468 -0.64453,0.222656 -0.87891,0.457031 -0.28125,0.175781 -0.51562,0.46875 -0.6914,0.820312 -0.23438,0.292969 -0.46875,0.75 -0.76172,1.335938 -0.41016,0.878906 -0.92578,1.863281 -1.39453,3.0351561 -0.52735,1.1601563 -1.05469,2.390625 -1.57032,3.6679688 -0.58593,1.2773437 -1.11328,2.625 -1.69922,3.9609375 -0.51562,1.39453122 -1.04296,2.74218747 -1.57031,4.078125 -0.35156,0.9257812 -0.75,1.8632812 -1.16015,2.8476562 -0.41016,0.9960938 -0.82032,1.921875 -1.28907,2.8007813 -0.39843,0.8789062 -0.86718,1.6289062 -1.33593,2.3320311 -0.46875,0.703125 -0.86719,1.21875 -1.33594,1.570313 -0.9961,0.820312 -1.92188,1.230468 -2.91797,1.230468 -0.46875,0 -0.86719,-0.175781 -1.27734,-0.46875 -0.35157,-0.292968 -0.52735,-0.703125 -0.52735,-1.289062 0,-0.398438 0.11719,-0.75 0.35156,-1.042969 0.23438,-0.3515624 0.52735,-0.5859374 0.92579,-0.8203124 0.17578,0.058594 0.35156,0.058594 0.52734,0.1171875 0.17578,0 0.35156,0.058594 0.52734,0.058594 0.41016,0 0.82032,-0.058594 1.21875,-0.234375 0.41016,-0.1171875 0.76172,-0.2929688 1.05469,-0.6328125 0.69141,-0.703125 1.33594,-1.6992188 1.98047,-3.0351563 0.64453,-1.2773437 1.33594,-2.7890625 1.98047,-4.546875 l 0.0586,-0.22265623 -0.0586,-0.41015625 c -0.41016,-0.99609375 -0.82031,-2.09765622 -1.23047,-3.21093752 -0.45703,-1.1601562 -0.86719,-2.3320312 -1.33594,-3.4335937 -0.46875,-1.1601563 -0.86719,-2.2734375 -1.33594,-3.3164063 -0.46875,-1.1132813 -0.8789,-2.0976563 -1.28906,-3.0351563 -0.22265,-0.585938 -0.45703,-1.042969 -0.63281,-1.335938 -0.23438,-0.351562 -0.46875,-0.644531 -0.70313,-0.820312 -0.23437,-0.175781 -0.58593,-0.351563 -0.92578,-0.410156 -0.35156,-0.04687 -0.76172,-0.105469 -1.34765,-0.164063 l 0.0586,-1.054687 c 0.64453,0 1.34766,0 2.09766,0.05859 0.82031,0 1.6289,0 2.44922,0 0.76171,0 1.45312,0 2.03906,0 0.64453,-0.05859 1.21875,-0.05859 1.74609,-0.05859 l 0.0586,0.9375 c -0.76172,0.117187 -1.27735,0.234375 -1.57032,0.339843 -0.29297,0.117188 -0.46875,0.351563 -0.46875,0.703125 0,0.117188 0.0586,0.351563 0.11719,0.527344 0.0586,0.234375 0.11719,0.46875 0.23438,0.75 l 3.78515,9.8554691 4.13672,-9.9140631 c 0.23438,-0.691406 0.35156,-1.042968 0.35156,-1.160156 0,-0.351562 -0.17578,-0.585937 -0.52734,-0.761719 -0.29297,-0.164062 -0.87891,-0.28125 -1.74609,-0.28125 l 0.0586,-0.996093 c 0.58594,0 1.16016,0 1.74609,0.05859 0.58594,0 1.27735,0 2.15625,0 0.64453,0 1.21875,0 1.7461,0 0.52734,-0.05859 0.99609,-0.05859 1.51172,-0.05859 z m 27.85547,-11.132813 c -1.86328,0.410156 -3.44531,1.054688 -4.83985,1.863281 -1.33593,0.761719 -2.50781,1.6875 -3.49218,2.800782 -0.9961,1.042968 -1.7461,2.273437 -2.33203,3.609375 -0.58594,1.335937 -0.9961,2.742187 -1.27735,4.253906 0.98438,-0.703125 1.98047,-1.160156 2.96485,-1.511719 1.05468,-0.351562 2.03906,-0.527344 3.03515,-0.527344 0.98438,0 1.92188,0.175782 2.78906,0.527344 0.87891,0.351563 1.6875,0.808594 2.33204,1.453125 0.70312,0.585938 1.21875,1.394531 1.6289,2.273438 0.35156,0.925781 0.58594,1.9804684 0.58594,3.1406246 0,1.2890625 -0.23438,2.5078125 -0.64453,3.609375 -0.46875,1.1132813 -1.04297,2.0390625 -1.80469,2.9179688 -0.75,0.8203125 -1.6875,1.45312497 -2.78906,1.92187497 -1.05469,0.46875 -2.21485,0.703125 -3.50391,0.703125 -1.45312,0 -2.67187,-0.29296875 -3.72656,-0.87890625 -1.04297,-0.52734375 -1.92188,-1.27734372 -2.625,-2.27343752 -0.69141,-0.9257812 -1.21875,-2.0390625 -1.51172,-3.2578125 -0.35156,-1.21875 -0.52734,-2.5078125 -0.52734,-3.9023437 0,-2.3320314 0.35156,-4.5468754 1.05468,-6.5859374 0.70313,-1.980469 1.7461,-3.785156 3.02344,-5.355469 1.34766,-1.570312 2.97656,-2.859375 4.83985,-3.902344 1.92187,-1.054687 4.01953,-1.804687 6.41015,-2.273437 z m -12,13.980469 c -0.0586,0.292969 -0.11719,0.585937 -0.11719,0.878906 0,0.351563 0,0.632813 0,0.984375 0,0.8789064 0.0586,1.8632814 0.23438,3.0351564 0.16406,1.1015625 0.45703,2.15625 0.86718,3.140625 0.41016,0.9960937 0.9961,1.8046875 1.7461,2.4492187 0.70312,0.703125 1.6289,0.98437502 2.80078,0.98437502 0.75,0 1.39453,-0.10546872 1.92187,-0.45703122 0.52735,-0.3515625 0.98438,-0.7617188 1.33594,-1.3476563 0.35156,-0.515625 0.58594,-1.21875 0.76172,-1.921875 0.17578,-0.75 0.29297,-1.5703125 0.29297,-2.4375 0,-0.9375 -0.11719,-1.7578125 -0.35156,-2.5664062 -0.17579,-0.7617184 -0.52735,-1.3945314 -0.9961,-1.9804684 -0.39844,-0.527344 -0.98437,-0.9375 -1.6875,-1.230469 -0.6914,-0.28125 -1.51172,-0.457031 -2.44922,-0.457031 -0.6914,0 -1.45312,0.05859 -2.26172,0.234375 -0.82031,0.164062 -1.52343,0.398437 -2.09765,0.691406 z m 31.3418,-13.980469 c -1.86329,0.410156 -3.44532,1.054688 -4.83985,1.863281 -1.33594,0.761719 -2.50781,1.6875 -3.49219,2.800782 -0.99609,1.042968 -1.74609,2.273437 -2.33203,3.609375 -0.58593,1.335937 -0.99609,2.742187 -1.27734,4.253906 0.98437,-0.703125 1.98047,-1.160156 2.96484,-1.511719 1.05469,-0.351562 2.03907,-0.527344 3.03516,-0.527344 0.98437,0 1.92187,0.175782 2.78906,0.527344 0.87891,0.351563 1.6875,0.808594 2.33203,1.453125 0.70313,0.585938 1.21875,1.394531 1.62891,2.273438 0.35156,0.925781 0.58594,1.9804684 0.58594,3.1406246 0,1.2890625 -0.23438,2.5078125 -0.64453,3.609375 -0.46875,1.1132813 -1.04297,2.0390625 -1.80469,2.9179688 -0.75,0.8203125 -1.6875,1.45312497 -2.78906,1.92187497 -1.05469,0.46875 -2.21485,0.703125 -3.50391,0.703125 -1.45313,0 -2.67188,-0.29296875 -3.72656,-0.87890625 -1.04297,-0.52734375 -1.92188,-1.27734372 -2.625,-2.27343752 -0.69141,-0.9257812 -1.21875,-2.0390625 -1.51172,-3.2578125 -0.35156,-1.21875 -0.52735,-2.5078125 -0.52735,-3.9023437 0,-2.3320314 0.35157,-4.5468754 1.05469,-6.5859374 0.70313,-1.980469 1.7461,-3.785156 3.02344,-5.355469 1.34766,-1.570312 2.97656,-2.859375 4.83984,-3.902344 1.92188,-1.054687 4.01953,-1.804687 6.41016,-2.273437 z m -12,13.980469 c -0.0586,0.292969 -0.11719,0.585937 -0.11719,0.878906 0,0.351563 0,0.632813 0,0.984375 0,0.8789064 0.0586,1.8632814 0.23437,3.0351564 0.16407,1.1015625 0.45703,2.15625 0.86719,3.140625 0.41016,0.9960937 0.99609,1.8046875 1.74609,2.4492187 0.70313,0.703125 1.62891,0.98437502 2.80079,0.98437502 0.75,0 1.39453,-0.10546872 1.92187,-0.45703122 0.52734,-0.3515625 0.98438,-0.7617188 1.33594,-1.3476563 0.35156,-0.515625 0.58594,-1.21875 0.76172,-1.921875 0.17578,-0.75 0.29297,-1.5703125 0.29297,-2.4375 0,-0.9375 -0.11719,-1.7578125 -0.35157,-2.5664062 -0.17578,-0.7617184 -0.52734,-1.3945314 -0.99609,-1.9804684 -0.39844,-0.527344 -0.98438,-0.9375 -1.6875,-1.230469 -0.69141,-0.28125 -1.51172,-0.457031 -2.44922,-0.457031 -0.69141,0 -1.45312,0.05859 -2.26172,0.234375 -0.82031,0.164062 -1.52344,0.398437 -2.09765,0.691406 z m 0,0"
         style="fill:#cfa64b;fill-opacity:1;fill-rule:nonzero;stroke:none"
         aria-label="Esquina 63 y 66"
         transform="matrix(0.22162655,0,0,0.22162655,80.904591,204.22466)"
         clip-path="url(#clipPath50)" />
    </g>
  </g>
</svg>
