<?xml version="1.0" encoding="UTF-8" standalone="no"?>
<svg width="32" height="32" viewBox="0 0 32 32" version="1.1" id="favicon" xmlns="http://www.w3.org/2000/svg">
  <g transform="scale(0.15)">
    <path d="m 453.3483,1176.391 h 0.002 v -0.017 c 104.6038,-6e-4 199.3101,-42.4055 267.8587,-110.954 68.5474,-68.548 110.9517,-163.2529 110.9528,-267.8548 h 0.0168 v -0.004 -0.002 h -0.0168 C 832.1613,692.9558 789.7564,598.2489 721.2076,529.7006 652.6596,461.1529 557.9544,418.7489 453.3525,418.7477 v -0.0167 h -0.004 -0.002 v 0.0167 C 348.7431,418.7483 254.0364,461.1532 185.4882,529.702 116.9408,598.2497 74.5364,692.9549 74.5353,797.557 h -0.0167 v 0.004 0.002 h 0.0167 c 6e-4,104.6032 42.4055,199.3099 110.9543,267.8581 68.5477,68.5477 163.2529,110.9517 267.8544,110.9529 v 0.017 h 0.004 z" style="fill:#cfa64b;fill-opacity:1;fill-rule:nonzero;stroke:none"/>
  </g>
</svg>
